<?xml version="1.0" encoding="UTF-8"?>
<svg width="400px" height="400px" viewBox="0 0 400 400" version="1.1" xmlns="http://www.w3.org/2000/svg" xmlns:xlink="http://www.w3.org/1999/xlink">
    <title>水瓶</title>
    <g id="水瓶" stroke="none" stroke-width="1" fill="none" fill-rule="evenodd">
        <rect fill="#FFFFFF" x="0" y="0" width="400" height="400"></rect>
        <g id="编组-2" transform="translate(15.000000, 47.800000)">
            <path d="M185,8.64918235 C169.513413,2.99568796 149.83569,16.7252366 125.966829,49.8378284 C121.127353,56.5514953 117.844797,65.051248 114.391075,70.0820359 C105.337449,83.2698008 101.015275,89.7338056 101.424554,89.4740503 L131.359743,75.0120696 L189.994234,93.7012615 L272.858975,98.942712 L308.943936,93.7012615 L292.828303,70.0820359 C287.40205,64.0541529 282.383145,59.8174183 277.771589,57.371832 C258.551325,47.1790012 238.531463,44.6205928 232.310132,44.4612933 C226.088801,44.3019938 222.324025,44.687787 219.53768,44.4612933 C218.258713,44.3573299 216.749589,44.5596004 214.439529,43.9616791 C213.209963,43.6434261 212.136266,42.3237541 209.90311,42.3237541 C206.577655,42.3237541 198.276619,31.0988969 185,8.64918235 Z" id="路径-7" fill="#BAEDDC"></path>
            <path d="M117.916168,77.2015323 C136.369974,81.2659085 149.722035,84.2804541 157.972351,86.2451693 C193.762634,94.7682013 220.399024,98.9701414 236.778741,94.6486857 C258.822194,88.8329679 282.262761,88.8329679 307.10044,94.6486857 L355.211966,170.034335 C346.796794,211.106593 328.268943,229.634397 299.628413,225.617749 C295.776282,225.077513 296.057924,224.334885 292.651448,222.466137 C288.765733,220.334485 284.292031,217.213334 278.673978,214.904037 C246.704562,201.763029 200.573927,178.108788 180.315787,150.369209 C177.399317,146.375671 170.742845,127.324171 169.50704,123.898065 C167.212817,117.537637 162.398045,111.866905 162.398045,107.244148 C162.398045,103.042805 148.579583,91.956088 147.215341,89.1749276 C143.434343,81.4669435 127.845204,83.2915296 100.447921,94.6486857 L117.916168,77.2015323 Z" id="路径-4" fill="#75C5AA"></path>
            <path d="M114.061355,79.9343497 C133.476055,83.6090653 145.468975,86.689258 150.040117,89.1749276 C153.442115,91.0248468 159.018638,96.7640716 162.398045,107.244148 C164.956916,115.179611 167.71255,122.47168 170.664946,129.120355 C168.829478,123.794697 167.504464,120.05953 166.689904,117.914853 C166.518052,117.462379 166.366868,117.049089 166.236352,116.674984 C164.344155,111.251281 157.660216,98.67077 157.972351,98.6423921 C159.529322,98.5008393 171.642004,121.615727 179.815954,120.466744 C187.989903,119.317762 194.473894,122.273115 197.91611,123.898065 C215.404353,132.153658 226.105597,122.812218 230.665334,123.898065 C266.455616,132.421097 258.443104,114.227536 274.82282,109.90608 C290.435509,105.786989 310.246054,116.2624 311.855833,109.696661 C313.107351,104.592149 316.291194,106.918257 321.407364,116.674984 L355.211966,170.034335 C346.796794,211.106593 328.268943,229.634397 299.628413,225.617749 C295.776282,225.077513 296.057924,224.334885 292.651448,222.466137 C288.765733,220.334485 284.292031,217.213334 278.673978,214.904037 C246.704562,201.763029 200.573927,178.108788 180.315787,150.369209 C177.399317,146.375671 170.742845,127.324171 169.50704,123.898065 C167.212817,117.537637 162.398045,111.866905 162.398045,107.244148 C162.398045,103.042805 145.349698,87.6770114 143.985455,84.8958511 C140.204458,77.187867 125.691947,80.4388118 100.447921,94.6486857 L114.061355,79.9343497 Z" id="路径-4" fill="#599EAB"></path>
            <path d="M167.215341,116.000374 C174.072053,119.728879 179.018638,126.764072 182.398045,137.244148 C186.236352,149.147343 191.642004,151.615727 199.815954,150.466744 C207.989903,149.317762 214.473894,152.273115 217.91611,153.898065 C235.404353,162.153658 246.105597,152.812218 250.665334,153.898065 C286.455616,162.421097 278.443104,144.227536 294.82282,139.90608 C310.435509,135.786989 330.246054,146.2624 331.855833,139.696661 C333.107351,134.592149 336.291194,136.918257 341.407364,146.674984 L355.211966,170.034335 C346.796794,211.106593 328.268943,229.634397 299.628413,225.617749 C295.776282,225.077513 296.057924,224.334885 292.651448,222.466137 C288.765733,220.334485 284.292031,217.213334 278.673978,214.904037 C246.704562,201.763029 200.573927,178.108788 180.315787,150.369209 C177.399317,146.375671 180.214715,150.554906 178.97891,147.128801 C176.684687,140.768373 177.150519,145.550246 175.210332,140.532568 C173.270145,135.514889 168.579583,121.956088 167.215341,119.174928 C161.543845,107.612951 160.358628,112.27187 167.215341,116.000374 Z" id="路径-4" fill="#336D78"></path>
            <path d="M118.326755,86.2333634 C126.565954,82.7535755 135.118854,82.307738 143.985455,84.8958511 C159.213733,91.4864999 169.267214,95.3854002 174.145898,96.5925517 C197.658344,102.410326 206.629321,99.5324316 212.281,98.4959866 C223.397068,96.4574437 229.151822,97.9227788 239.292073,94.7511586 C246.05224,92.6367451 256.526426,91.1390902 270.714631,90.2581938 C254.487044,88.6705397 244.012858,88.0942789 239.292073,88.5294115 C231.78268,89.2215807 219.029088,94.7511586 216.19382,94.7511586 C207.930532,94.7511586 199.682951,81.4799348 178.222518,79.9343497 C156.762084,78.3887646 142.505932,78.6519306 135.250089,78.6519306 C133.531836,78.6519306 119.787937,76.1169327 116.421195,77.2015323 C109.998356,79.2706572 100.764143,89.9389011 100.447921,92.3738704 C100.342589,93.1849462 102.010157,93.6713371 104.037244,92.3738704 C106.2052,90.986238 116.337736,87.0734163 118.326755,86.2333634 Z" id="路径-5" fill="#A7DDCB"></path>
            <g id="编组" transform="translate(87.600000, 0.000000)" fill="#BAEDDC" fill-rule="nonzero">
                <path d="M115.96,54.6540311 C115.96,63.6010441 92.4656147,76.2239471 66.2782109,70.8540311 L63.2486468,70.240802 L53.5313394,68.3331691 L51.580367,67.9354456 L50.1234228,67.6241653 L49.0830939,67.3908896 L48.4115586,67.2340891 L47.4333813,66.9951349 L46.7984051,66.8322633 L46.1753224,66.6656834 L45.562573,66.4946638 L44.9585968,66.3184733 L44.3618338,66.1363804 L43.7707239,65.9476539 L43.1837069,65.7515623 L42.5992228,65.5473744 L42.0157114,65.3343587 L41.4316127,65.1117841 L40.8453665,64.878919 L40.2554127,64.6350322 L39.6601913,64.3793923 L39.0581422,64.111268 L38.4477051,63.8299279 C38.34518,63.781896 38.2422403,63.7332829 38.1388536,63.6840734 L37.5129096,63.3815385 L36.8746775,63.0639593 L36.2225972,62.7306048 L35.5551085,62.3807434 L34.8706514,62.0136438 C34.7550745,61.9509834 34.6387256,61.8875743 34.5215722,61.8234012 C31.8734786,60.3728559 27.8210395,59.3410194 23.3033252,58.5393386 L22.1647468,58.3436042 L21.0100426,58.1568049 L19.8424733,57.9782861 C19.6469874,57.9491866 19.4511014,57.9204049 19.2548831,57.8919272 L18.0741298,57.7246014 L17.0169497,57.58099 L15.5420566,57.3888271 L12.2336208,56.9827211 L6.32893003,56.2822609 L4.51295302,56.0532613 L3.47285886,55.914338 L2.4745293,55.7733393 L1.52176526,55.629502 L0.618367643,55.482063 L0.0454053564,55.3813924 L-0.502800801,55.2785558 L-1.02512463,55.1733269 L-1.52043994,55.0654797 L-1.98762053,54.9547879 C-2.13853314,54.9173915 -2.28456892,54.8794833 -2.42554019,54.8410256 L-2.83307275,54.7239666 C-2.96372728,54.6843723 -3.08912959,54.6441909 -3.20909199,54.6033847 L-3.55247172,54.4790538 C-4.42363059,54.1423052 -4.93462191,53.7631554 -4.98934352,53.3223084 C-5.09803315,52.4466855 -4.37370455,51.8144482 -2.88940254,51.2879001 L-2.51861597,51.1634872 C-2.45439876,51.1430665 -2.38897494,51.1227972 -2.32234919,51.1026706 L-1.90820889,50.9835523 L-1.46544659,50.867435 L-0.994286688,50.7538956 L-0.49495358,50.6425112 L0.032328342,50.5328588 L0.87516439,50.3707021 L1.47133662,50.2635289 L2.09467229,50.156607 L3.42193637,49.9418256 L4.85516147,49.7229739 L11.6117691,48.739183 L14.0468413,48.3730518 L16.1016515,48.052091 L17.1640236,47.8810954 L18.8006593,47.6102683 L21.062074,47.2201885 L22.8165784,46.9040452 L24.6203357,46.5661013 L26.4725886,46.2049291 C26.6810607,46.1634555 26.8904167,46.1215254 27.1006522,46.0791298 L28.3725798,45.8191011 L29.6516053,45.5503148 L30.8564298,45.2893871 L31.9771893,45.038803 L33.0179822,44.7982153 L33.9829072,44.5672771 L34.876063,44.3456411 C35.0191692,44.3094577 35.1594558,44.2736474 35.2970081,44.2382031 L36.0901947,44.0298698 L37.1659,43.7330764 L37.8129642,43.545179 C37.9164214,43.514503 38.017742,43.4841422 38.1170115,43.4540896 L38.6886981,43.2774124 L39.2152561,43.1077815 L39.9294428,42.8657878 L40.3611108,42.7122543 L41.1361949,42.4223349 L43.0505296,41.6647681 L43.5058106,41.495489 L43.8186686,41.3858765 L44.1437783,41.2784513 L44.4852382,41.1728662 L44.8471468,41.0687743 L45.2336028,40.9658284 L45.6487048,40.8636815 L46.0965513,40.7619865 L46.5812409,40.6603963 L47.1068722,40.5585639 L47.6775438,40.4561421 L48.2973543,40.3527839 L48.9704022,40.2481423 L49.7007861,40.14187 L50.4926046,40.0336202 L51.804488,39.8667781 L53.2776538,39.6935341 L54.3561966,39.5739029 L56.1289057,39.3873859 L57.4199522,39.2578214 L59.5306289,39.0547775 L62.6913819,38.7659952 L66.2782109,38.4540311 C98.1500882,35.7402142 115.96,45.7070182 115.96,54.6540311 Z M102.290249,44.195155 C93.5937302,40.8234798 81.4970732,39.4173297 67.269092,40.5399919 L63.7302857,40.8424257 L59.3948932,41.2368523 L57.6931678,41.4009648 L55.7482297,41.597706 L53.3445621,41.8595932 L51.55889,42.0737088 L50.7543964,42.1778649 L49.7676935,42.314307 L48.6640619,42.481805 L47.877678,42.6141008 L47.3402764,42.7127286 L46.6888009,42.8439281 C45.6259963,43.070282 44.8770676,43.2884398 44.0152285,43.6093989 L43.5487026,43.7889556 L41.9159826,44.4366689 C41.0956054,44.7528849 40.2882759,45.0375221 39.3419011,45.33628 L38.7285709,45.5257637 L38.0826893,45.7170956 L37.0491235,46.0082204 L36.3144444,46.2054962 L35.5412789,46.405679 L34.727931,46.6090714 L33.428858,46.9208397 L32.5076355,47.1335796 L31.5402956,47.350588 L30.5251426,47.5721675 L29.4604807,47.7986205 C24.5503361,48.8301768 19.8994951,49.6558856 14.7277088,50.4537164 L3.82032118,52.0727896 L2.32377885,52.3086573 L1.77763477,52.4028496 L0.984649102,52.5478655 L0.264590586,52.6901762 C0.150522627,52.7137025 0.0393916985,52.7371411 -0.0688530014,52.7605044 L-0.684092861,52.8998815 L-0.981,52.973 L-0.692522769,53.0361144 L-0.220501486,53.133271 L0.283475889,53.2297825 L0.821791798,53.3261103 L1.698862,53.471267 L2.33344742,53.5691544 L3.73303191,53.7696848 L4.9062131,53.9260608 L16.2391199,55.3005269 L17.3077021,55.4406482 L18.3703881,55.5850148 C18.7787386,55.6415571 19.1804066,55.6984741 19.5754806,55.7558284 L20.7410086,55.9292661 L21.8675022,56.1057043 L22.9554915,56.2855195 C23.1336438,56.315791 23.3102139,56.3462189 23.4852127,56.3768111 L24.5164395,56.5623975 C24.6851976,56.593678 24.8524066,56.6251384 25.0180775,56.6567865 L25.9937344,56.8489912 C26.1532971,56.8814217 26.3113439,56.9140557 26.4678857,56.946901 L27.3891652,57.1465708 C30.8521862,57.922172 33.5307679,58.8178409 35.5592713,59.9289935 C38.3675097,61.4672612 40.6787188,62.5434506 42.9795827,63.3878906 C44.9259008,64.1022087 46.9277187,64.6775168 49.4975662,65.2697515 L50.7835479,65.5571868 L52.3749475,65.8861361 L66.7121061,68.7380597 C78.369614,71.1285158 90.3506692,69.9720838 100.147786,66.1131592 C108.466004,62.8367485 113.8,58.0217198 113.8,54.6540311 C113.8,51.1166812 109.730003,47.0795776 102.290249,44.195155 Z" id="椭圆形" transform="translate(55.480000, 55.069970) rotate(-45.000000) translate(-55.480000, -55.069970) "></path>
                <path d="M27.7005358,40.2498283 L18.8890508,38.7610191 L27.0921662,42.3061169 C27.6771884,42.5589429 28.252952,42.8125274 28.8194645,43.0668661 L29.9401565,43.5765481 L31.0361917,44.0882343 C31.7586658,44.4300248 32.4647106,44.7731466 33.1543437,45.1175898 L34.1764867,45.6352445 C35.5229381,46.326769 36.8037772,47.0235597 38.0191434,47.7255387 L38.918394,48.2529944 L39.7931054,48.7823885 C49.998718,55.0583234 55.0528073,61.7398325 55.0528073,68.7723091 C55.0528073,78.7330369 54.137438,86.6051 52.3205314,92.3740856 L52.0392247,93.2672818 L53.6929135,94.0587738 L55.3001783,94.8158603 C57.4330314,95.8111826 59.5252203,96.7499952 61.576773,97.6322471 L63.1078188,98.2833301 L64.6236286,98.913198 C64.874994,99.0164078 65.1257248,99.1187334 65.3758208,99.2201748 L66.8687817,99.8182111 C68.1065698,100.307731 69.3284941,100.775139 70.5345613,101.220423 L71.974231,101.744144 C89.8749711,108.157889 104.208495,109.59262 114.99794,106.006253 L116.065632,105.648039 L117.106396,105.292105 L118.120243,104.93839 L119.107186,104.586833 L120.067237,104.237373 L121.000407,103.88995 L121.90671,103.544502 L122.786156,103.20097 L123.638759,102.859292 L124.46453,102.519407 L125.263481,102.181256 L126.035625,101.844777 C126.162083,101.788833 126.287424,101.732956 126.411649,101.677145 L127.143604,101.34306 L127.848783,101.010496 L128.527196,100.679391 C128.638035,100.624325 128.74776,100.569317 128.85637,100.514367 L129.494659,100.185337 C129.702965,100.075882 129.906816,99.9666451 130.106212,99.8576158 L130.691044,99.5311414 C130.78629,99.4768295 130.880422,99.4225671 130.973442,99.3683528 L131.518213,99.0436351 L132.036291,98.7200127 C135.232951,96.673744 136.824354,94.6897193 136.824354,92.6985152 L136.824354,92.2578083 L136.516023,91.9429191 C130.935641,86.2438252 128.885617,79.5307463 130.331256,71.6904515 L130.478935,70.8955165 L130.786446,69.2756816 L131.110161,67.615896 L131.450079,65.9161627 L131.806201,64.1764848 L132.178526,62.3968654 L132.567053,60.5773076 L132.971784,58.7178143 L133.392717,56.8183886 L133.829853,54.8790337 L134.515937,51.8951405 L134.993579,49.8559757 L135.487423,47.7768923 L135.997469,45.6578933 L136.523717,43.4989819 C136.612775,43.1358374 136.702508,42.7710301 136.792917,42.4045599 L134.715399,41.8177736 C132.296132,49.404706 123.766425,54.1488181 109.035305,55.9234878 L107.843584,56.0591241 C107.441932,56.1022231 107.035869,56.143208 106.625393,56.1820765 L105.380722,56.2923304 C104.33246,56.3789136 103.256604,56.4522543 102.153127,56.5123149 L100.815695,56.5780109 C100.590579,56.587897 100.364358,56.5972513 100.137031,56.6060735 L98.7598051,56.6526191 C96.6740615,56.7128525 94.4987381,56.729937 92.2336776,56.7036536 C88.104091,56.6557347 83.6093184,55.8407823 78.3795987,54.305041 L77.3087103,53.984384 L76.2317847,53.6493208 L75.1326448,53.2947013 L73.9951132,52.9153756 L72.8030126,52.5061937 L71.5401658,52.0620057 L69.7183596,51.4063998 L67.7036765,50.6671978 L61.8695815,48.513926 L59.1197501,47.5214888 L57.5641945,46.9792017 L56.5881984,46.6516957 L55.3491805,46.256402 L54.846244,46.1037689 L54.328668,45.9517044 L53.8124338,45.8049625 L52.9355621,45.5657427 L52.009336,45.3236407 C44.6887778,43.4422596 36.5860273,41.7511419 27.7005358,40.2498283 Z M35.394,43.834 L35.4695061,43.8487448 C41.1708506,44.9501926 46.5049699,46.1392126 51.4716883,47.4156576 L52.3881195,47.6553492 L53.2572888,47.8929793 L54.0991501,48.1357288 L55.11152,48.4456965 L56.3969437,48.8649972 L57.8736195,49.3727106 L60.1865536,50.199847 L68.5024931,53.2622132 L70.3879159,53.9443728 L71.6923879,54.406401 L73.3167424,54.9662226 L74.8453755,55.4731178 L75.5859466,55.7105774 L76.6807905,56.0511235 L77.7709991,56.377529 C83.1750271,57.964457 87.855008,58.8129898 92.2086151,58.8635082 L92.9860531,58.8708683 C93.696411,58.8760621 94.3983558,58.8769602 95.0918831,58.8735563 L96.4677127,58.8610108 C96.6951467,58.8579633 96.921645,58.8544373 97.1472075,58.8504326 L98.4893519,58.8206584 C99.3766267,58.796977 100.248924,58.765629 101.106232,58.7265998 L102.380952,58.662293 L103.633181,58.5864532 C104.667331,58.5184448 105.678046,58.4384111 106.665303,58.3463232 L107.838751,58.2300298 L108.989672,58.1021532 L110.118058,57.9626822 C111.048988,57.8416224 111.956436,57.7084735 112.840381,57.5632066 L113.889832,57.3830678 C122.541225,55.8334081 128.841487,53.0707865 132.76979,49.066212 L133.023,48.801 L132.637895,50.4381509 L132.146809,52.5514556 L131.673381,54.6213731 L131.21761,56.647907 L130.779495,58.6310605 L130.359037,60.5708373 L129.956235,62.4672409 L129.571089,64.3202746 L129.203599,66.1299419 L128.853765,67.8962465 L128.521586,69.6191916 L128.207063,71.2987808 L128.125067,71.7630295 C126.769807,79.7909277 128.846356,86.8260789 134.325389,92.7727884 L134.62,93.088 L134.607637,93.148369 C134.345163,94.2118863 133.172002,95.4295374 131.094702,96.7685156 L130.618199,97.0680501 L130.111946,97.371499 C130.025093,97.4223955 129.937,97.4734518 129.847669,97.5246662 L129.296821,97.8338365 C129.108253,97.9375168 128.914732,98.0418161 128.716263,98.1467211 L128.106012,98.4632399 L127.466082,98.7833131 L126.79649,99.1068605 L126.097252,99.4338022 L125.368383,99.7640581 L124.609901,100.097548 L123.82182,100.434193 L123.004156,100.773912 L122.156927,101.116625 C122.013259,101.173988 121.86836,101.231474 121.72223,101.289079 L120.83068,101.636133 L119.909605,101.985982 L118.959019,102.338545 L117.978938,102.693742 L116.969379,103.051493 L115.930358,103.411719 L114.861889,103.774338 C114.681358,103.83497 114.499601,103.895698 114.316618,103.956521 L113.902776,104.090854 C105.971124,106.604216 95.9256593,106.297941 83.7766618,103.153333 L82.5339194,102.823757 C79.617269,102.031912 76.5821975,101.080218 73.4288421,99.9684237 L72.0701626,99.4821377 L70.6970018,98.9762433 C69.5466679,98.5464932 68.3812517,98.0963131 67.2007596,97.6256917 L65.7769331,97.0511334 C65.5384227,96.9537381 65.2993094,96.855525 65.0595932,96.7564939 L63.6140618,96.1524919 C63.3719342,96.0501887 63.1292039,95.9470675 62.8858708,95.8431281 L61.4186399,95.2096724 C60.6814084,94.8880346 59.9387532,94.5590314 59.1906756,94.2226603 L57.6872909,93.5400934 C57.4355219,93.4246947 57.1831506,93.3084772 56.9301769,93.1914407 L55.4051072,92.479394 L54.652,92.122 L54.6793301,92.0303006 C56.3722176,86.1340409 57.2128073,78.3854436 57.2128073,68.7723091 C57.2128073,59.7727818 50.1429555,51.6189828 36.1500468,44.2286414 L35.394,43.834 Z" id="路径" transform="translate(77.856702, 73.345195) rotate(-45.000000) translate(-77.856702, -73.345195) "></path>
                <path d="M157.285832,70.8078199 L73.8800751,70.8078199 L73.2905836,71.7394514 L72.7649501,72.5840401 C72.6792551,72.7231026 72.5945165,72.861315 72.5107356,72.998679 L72.0195566,73.8126951 L71.5514376,74.6064284 L71.1064513,75.3799579 L70.68467,76.1333627 C70.6163109,76.2572575 70.5489217,76.3803171 70.4825039,76.5025431 L70.095666,77.2259092 L69.7322143,77.9293484 C69.6149695,78.1605157 69.5016345,78.3883751 69.3922213,78.6129396 L69.0757593,79.2767622 L68.7829009,79.920895 L68.5137184,80.5454172 L68.2682844,81.1504079 C66.828148,84.8211242 66.7467947,87.3822418 68.1006801,88.91722 C68.3981984,89.2545337 68.7855526,89.634841 69.2519301,90.0492547 L69.6707826,90.4126118 L70.1268273,90.7914303 L70.618551,91.1844666 L71.1444406,91.590477 L71.7029829,92.0082178 L72.2926648,92.4364454 C72.393456,92.5086214 72.4954816,92.5811826 72.5987102,92.654103 L73.2322643,93.0957288 C73.3401784,93.1699824 73.4492324,93.2445434 73.5593947,93.3193859 L74.2334166,93.7716115 L74.9325255,94.2293491 L75.6552082,94.691355 L76.3999518,95.1563855 L77.165243,95.6231968 L77.9495687,96.0905455 C78.2140149,96.2462797 78.4813813,96.4018961 78.7514157,96.5571876 L79.569271,97.0218796 C79.7068302,97.0990966 79.8449933,97.1761806 79.9837289,97.2531056 L80.8227594,97.7125404 C80.9636586,97.7887258 81.1050672,97.8647004 81.2469537,97.9404383 L82.1037548,98.3918177 L82.9705117,98.8362722 L83.845711,99.2725581 C83.9921971,99.3445226 84.1389718,99.4160949 84.2860038,99.4872492 C94.732718,104.542803 105.971915,107.542035 117.288718,107.542035 C128.774757,107.542035 139.084524,105.843071 147.740256,102.901784 C154.545229,100.589401 159.9433,97.5829951 162.307466,95.1047173 C166.570851,90.6355513 169.138273,81.670567 166.20793,78.9640071 L160.865231,74.0698712 L157.285832,70.8078199 Z M75.07,72.967 L156.448,72.967 L164.413031,80.2468902 L164.742369,80.5507432 C166.498777,82.1730184 164.285283,89.9021458 160.744558,93.6137724 C159.961961,94.4341425 158.754441,95.3469787 157.207772,96.2841109 L156.57122,96.660098 C156.026025,96.9742311 155.444418,97.2900538 154.829576,97.6050412 L154.076015,97.9824637 C153.819646,98.1080299 153.558162,98.2333008 153.291768,98.3581149 L152.478055,98.7310252 C151.926028,98.9785031 151.355171,99.2235073 150.767109,99.4647452 L149.872316,99.8236158 C149.721102,99.8829029 149.568862,99.9419142 149.415624,100.00063 L148.484409,100.349208 C148.01301,100.52156 147.533078,100.690884 147.045299,100.856635 C138.613692,103.721762 128.538715,105.382035 117.288718,105.382035 C106.32748,105.382035 95.3995312,102.465861 85.2269197,97.5429556 L84.8008043,97.3351805 L83.9538763,96.913023 L83.1152809,96.4831092 L82.2865332,96.0467031 L81.4691479,95.6050686 L80.66464,95.1594696 L79.8745244,94.7111701 L79.100316,94.2614341 L78.3435297,93.8115255 L77.6056803,93.3627081 L76.8882828,92.9162461 L76.192852,92.4734033 L75.5209029,92.0354436 L74.8739503,91.6036311 L74.2535091,91.1792296 C74.1523957,91.1091839 74.0524501,91.0394995 73.9537037,90.970203 L73.3758702,90.559288 L72.8283353,90.158944 C72.7396885,90.0931711 72.6523673,90.0278913 72.5664032,89.963131 L72.0671567,89.5810132 L71.6019962,89.2126263 L71.1724364,88.859234 L70.7799923,88.5221004 C70.3443808,88.1387537 69.9876401,87.7911823 69.7205954,87.4884182 L69.6548449,87.4079206 C69.065504,86.6286352 69.1578813,85.066607 69.9721896,82.7657325 L70.1577488,82.2613951 C70.1905219,82.1754594 70.2242195,82.0885853 70.2588434,82.0007748 L70.4777174,81.4626907 L70.7189112,80.9022289 C70.760975,80.8069591 70.8039725,80.7107609 70.8479054,80.6136363 L71.1227437,80.0197878 L71.4201215,79.4038014 L71.7401268,78.7657732 L72.0828476,78.1057991 L72.4483717,77.4239752 C72.5111976,77.3085224 72.5749772,77.1921632 72.6397125,77.0748995 L73.0396066,76.3604808 L73.4625238,75.6244521 L73.9085521,74.8669095 L74.3777794,74.0879489 L74.8702938,73.2876664 L75.07,72.967 Z" id="路径-2" transform="translate(117.299127, 89.174928) rotate(-45.000000) translate(-117.299127, -89.174928) "></path>
                <path d="M226.250874,50.634102 L226.761571,51.3073268 L227.766967,52.6448219 L228.75103,53.9703821 C228.913263,54.1903145 229.074607,54.4097499 229.235061,54.6286884 L230.187121,55.9363567 C230.344019,56.1533078 230.500028,56.3697623 230.655148,56.5857201 L231.575198,57.875509 C231.726761,58.0894809 231.877435,58.3029565 232.027219,58.5159358 L232.915253,59.7878576 L233.78194,61.047875 L234.627278,62.2959935 L235.451264,63.5322185 C235.586816,63.7372652 235.721477,63.9418166 235.855249,64.1458728 L236.647203,65.3642681 C236.777415,65.5663439 236.906737,65.7679247 237.03517,65.9690106 L237.795085,67.1695887 C237.919957,67.3686956 238.04394,67.5673079 238.167032,67.7654256 L238.894902,68.9481988 L239.601407,70.119109 L240.286543,71.2781617 C240.848586,72.2390998 241.388367,73.1876922 241.90588,74.1239532 L242.516207,75.2415483 C242.816025,75.7973872 243.107826,76.3487889 243.391608,76.8957564 L243.94848,77.9837803 L244.483966,79.0599854 C244.746362,79.5951341 245.000737,80.1258529 245.247089,80.6521448 L245.729098,81.6988271 C249.185382,89.3312255 250.915784,96.011801 250.915784,101.75036 C250.915784,102.86158 250.850928,104.201369 250.721195,105.769902 L250.625096,106.849481 L250.509772,107.996847 L250.375223,109.212013 L250.221448,110.49499 L250.048445,111.845789 L249.856212,113.264422 L249.64475,114.750901 L249.414055,116.305237 L249.164127,117.927442 L248.753171,120.488028 L248.455155,122.279956 L247.97206,125.095181 L247.445675,128.063241 L247.0707,130.126875 L246.676482,132.258465 L246.26302,134.458022 L245.830313,136.725558 L245.145163,140.254347 L244.664336,142.691881 L243.907,146.475721 L243.378045,149.083325 L242.548511,153.122325 L241.97142,155.900071 L241.375072,158.745894 L240.44444,163.1423 L239.136187,169.242552 L238.104433,173.996576 L237.029334,178.903929 L235.528434,185.685649 L234.352178,190.950925 L232.716386,198.210016 L231.003499,205.742019 L229.668234,211.570175 L227.820405,219.579995 L226.779119,224.067931 L226.467626,224.303829 C210.588851,236.32903 195.781975,242.364127 182.042749,242.364127 C168.421675,242.364127 156.649037,236.43131 146.788911,224.629543 L146.255585,223.983579 L145.686902,222.402058 L144.193289,218.227246 L142.734967,214.119865 L141.311935,210.079911 L140.382853,207.424066 L139.018638,203.496479 L137.689712,199.636305 L136.823366,197.100305 L135.972704,194.594263 L135.137725,192.118177 L133.914664,188.460212 L133.118894,186.05901 L131.954644,182.513364 L130.825681,179.035103 L130.092642,176.753695 L129.022488,173.387729 L128.328655,171.181181 L127.650504,169.004573 L126.662682,165.795798 L126.023736,163.694037 L125.094719,160.597523 L124.494977,158.570599 L123.910916,156.573606 L123.342535,154.606543 L122.789836,152.66941 L122.252818,150.762204 L121.476691,147.957505 L120.978874,146.125112 L120.496738,144.32264 L119.802933,141.675033 L119.359996,139.94736 L118.932739,138.249604 C118.862836,137.969138 118.793587,137.689918 118.72499,137.411944 L118.321253,135.759061 L117.933195,134.13609 L117.560816,132.543031 L117.204116,130.979883 C117.145973,130.72185 117.088483,130.465064 117.031646,130.209524 L116.698464,128.691238 L116.380962,127.202858 L116.079138,125.744382 L115.792992,124.31581 L115.522525,122.91714 L115.267736,121.54837 L115.028625,120.209499 C111.188758,98.228095 114.94199,77.1536168 126.275784,57.0276328 L126.678948,56.3176978 L128.553374,57.3910691 C117.153676,77.2983404 113.359015,98.0995675 117.156404,119.837803 L117.393912,121.167588 L117.647091,122.527398 L117.915941,123.917229 L118.20046,125.337082 L118.500648,126.786955 L118.816507,128.266846 L119.148034,129.776753 C119.204595,130.030906 119.261808,130.286309 119.319674,130.542963 L119.674706,132.097892 L120.045407,133.682835 L120.431777,135.297788 L120.833815,136.942752 L121.251522,138.617724 L121.684898,140.322703 L122.133942,142.057687 L122.598654,143.822674 C122.677412,144.119339 122.756822,144.417254 122.836886,144.716419 L123.3251,146.52641 L123.828982,148.366401 L124.348532,150.23639 L124.883749,152.136376 L125.434634,154.066358 L126.001186,156.026333 L126.583405,158.016301 L127.181291,160.03626 L127.794844,162.086209 L128.744548,165.217359 L129.397268,167.342274 L130.065653,169.497174 L130.749705,171.682056 L131.805156,175.015594 L132.895856,178.416584 L134.021803,181.885021 L135.182997,185.420901 L136.379437,189.024218 L137.196646,191.463892 L138.451829,195.179593 L139.742258,198.962717 L141.067932,202.81326 L142.42885,206.731217 L143.355708,209.380637 L144.775366,213.410937 L145.741383,216.135249 L147.219779,220.27788 L148.16,222.898 L148.460415,223.261285 C157.781898,234.411344 168.765575,240.037415 181.472625,240.200476 L182.042749,240.204127 C195.061492,240.204127 209.208284,234.516105 224.479063,223.097025 L224.852,222.816 L226.162188,217.16443 L228.385152,207.501973 L230.493138,198.246361 L232.486126,189.397762 L234.364098,180.956348 L235.435665,176.087019 L236.127033,172.922288 L237.129569,168.297453 L238.090681,163.819364 L239.010364,159.488058 L240.172157,153.941375 L240.995158,149.952704 L242.028026,144.863002 L242.754322,141.217167 L243.439166,137.718324 L244.082553,134.366508 L244.488445,132.213664 L244.875909,130.126193 L245.422549,127.117586 L245.927719,124.256128 L246.241458,122.430258 L246.536763,120.669816 L246.813632,118.974812 L247.072065,117.345257 L247.31206,115.781162 L247.533615,114.282538 L247.73673,112.849396 L247.921403,111.481748 L248.087633,110.179602 L248.23542,108.942972 C248.258513,108.742327 248.280839,108.544412 248.302396,108.349228 L248.422513,107.21089 L248.524184,106.138094 C248.539591,105.964757 248.55423,105.794151 248.568101,105.626277 L248.642098,104.651814 C248.70687,103.710134 248.743966,102.866808 248.753382,102.121884 L248.755784,101.75036 C248.755784,96.7289189 247.327044,90.8723209 244.466059,84.1881682 L244.026169,83.1793395 C243.951063,83.0101673 243.875063,82.8404781 243.798166,82.670272 L243.326046,81.6428341 L242.832435,80.6029971 L242.317332,79.5507668 L241.780733,78.4861488 C241.598284,78.1292121 241.412251,77.7702118 241.222636,77.4091488 L240.643038,76.3197726 C240.544646,76.1371788 240.445359,75.9540697 240.345175,75.7704452 L239.733321,74.6625152 C239.629553,74.4768299 239.524889,74.2906295 239.419329,74.1039142 L238.775213,72.9774434 C238.666068,72.7886686 238.556026,72.5993792 238.445088,72.4095751 L237.768705,71.2645763 C237.654181,71.0727142 237.538761,70.8803378 237.422445,70.6874472 L236.713787,69.5239331 C236.593884,69.328986 236.473085,69.1335247 236.351389,68.9375496 L235.610451,67.7555332 C235.485168,67.557503 235.358988,67.3589592 235.231912,67.1599018 L234.458689,65.9593958 C234.328024,65.7582847 234.196463,65.5566603 234.064005,65.3545227 L233.25849,64.1355401 L232.431445,62.9042467 C232.291809,62.6980056 232.151277,62.4912517 232.009847,62.2839853 L231.1505,61.0342366 C231.005481,60.8249203 230.859564,60.6150916 230.71275,60.4047507 L229.821096,59.1365595 C229.670692,58.9241702 229.51939,58.7112688 229.367191,58.4978556 L228.443223,57.2112347 C228.287433,56.9957745 228.130746,56.7798026 227.97316,56.5633192 L227.016874,55.2582814 L226.039038,53.9409729 C225.874269,53.7203993 225.708603,53.4993146 225.542038,53.2777189 L224.531873,51.9420149 L226.250874,50.634102 Z" id="路径-3" transform="translate(182.243913, 146.499114) rotate(-45.000000) translate(-182.243913, -146.499114) "></path>
            </g>
            <ellipse id="椭圆形" fill="#B7B7F0" cx="106" cy="275.7" rx="73" ry="13.5"></ellipse>
            <ellipse id="椭圆形" fill="#BAEDDC" cx="106.5" cy="279.7" rx="106.5" ry="23.5"></ellipse>
            <ellipse id="椭圆形" fill="#75C5AA" cx="106" cy="277.2" rx="89" ry="18"></ellipse>
            <ellipse id="椭圆形" fill="#BAEDDC" cx="106" cy="275.7" rx="73" ry="13.5"></ellipse>
            <ellipse id="椭圆形" fill="#75C5AA" cx="108" cy="274.7" rx="51" ry="9.5"></ellipse>
            <path d="M107.345428,281.539812 C125.846967,281.539812 140,278.618278 140,274.2 C140,269.781722 125.001539,267.2 106.5,267.2 C87.9984609,267.2 73,269.781722 73,274.2 C73,278.618278 88.8438886,281.539812 107.345428,281.539812 Z" id="椭圆形" fill="#BAEDDC"></path>
            <path d="M108.68139,278.539812 C123.593078,278.539812 135,276.502453 135,273.421327 C135,270.3402 122.911688,268.539812 108,268.539812 C93.0883118,268.539812 81,270.3402 81,273.421327 C81,276.502453 93.7697013,278.539812 108.68139,278.539812 Z" id="椭圆形" fill="#75C5AA"></path>
            <path d="M102.197992,84.6423921 C99.8334075,190.65308 99.8334075,250.609995 102.197992,264.513135 C102.934444,268.843282 102.934444,268.843282 105.373657,269.902361 C107.81287,270.961441 110.266302,268.780953 110.266302,266.473769 C110.266302,233.08947 107.576865,172.479011 102.197992,84.6423921 Z" id="路径-6" fill="#BAEDDC"></path>
            <path d="M105.345428,86.2153255 C101.967863,92.8319367 100.260288,97.6894119 100.222702,100.787751 C99.6727355,146.12369 100.160475,172.088096 101.685922,178.680971 C102.209727,180.944824 102.209727,180.944824 103.944632,181.498523 C105.679536,182.052223 107.424554,180.912238 107.424554,179.706014 C107.424554,164.342975 105.942493,137.951582 102.978373,100.531836 C102.709459,97.1370045 103.498477,92.3648343 105.345428,86.2153255 Z" id="路径-6" fill="#75C5AA"></path>
        </g>
    </g>
</svg>