<?xml version="1.0" standalone="no"?><!DOCTYPE svg PUBLIC "-//W3C//DTD SVG 1.1//EN" "http://www.w3.org/Graphics/SVG/1.1/DTD/svg11.dtd"><svg height="400" node-id="1" sillyvg="true" template-height="400" template-width="400" version="1.1" viewBox="0 0 400 400" width="400" xmlns="http://www.w3.org/2000/svg" xmlns:xlink="http://www.w3.org/1999/xlink"><defs node-id="37"><clipPath id="mask-2_8" node-id="11"><path d="M 135.13 127.33 L 134.15 123.80 L 132.88 120.94 L 131.35 118.66 L 129.56 116.86 L 127.50 115.49 L 125.12 114.52 L 122.34 113.97 L 119.10 113.87 L 115.30 114.31 L 110.82 115.38 L 105.56 117.22 L 100.89 119.31 L 96.42 121.77 L 92.15 124.61 L 88.06 127.84 L 84.25 131.37 L 80.69 135.23 L 77.37 139.45 L 74.29 144.05 L 71.58 148.82 L 69.17 153.91 L 67.07 159.33 L 65.28 165.12 L 63.90 170.95 L 62.90 177.08 L 62.27 183.54 L 62.05 190.35 L 62.36 199.51 L 63.30 209.17 L 64.77 218.85 L 66.72 228.41 L 69.11 237.76 L 71.79 246.36 L 74.88 254.51 L 78.01 261.30 L 80.40 265.56 L 82.68 268.93 L 84.86 271.52 L 86.78 273.28 L 88.55 274.43 L 90.22 275.08 L 91.84 275.31 L 94.12 275.55 L 96.82 276.26 L 100.00 277.54 L 104.65 279.98 L 109.76 283.29 L 114.76 287.04 L 119.64 291.19 L 124.23 295.58 L 128.16 299.86 L 131.55 304.22 L 133.81 307.92 L 134.89 310.46 L 135.27 312.44 L 135.13 313.99 L 133.58 318.71 L 131.98 322.58 L 130.34 325.71 L 128.69 328.22 L 133.39 325.76 L 137.22 323.27 L 140.31 320.75 L 142.75 318.21 L 144.62 315.64 L 145.97 313.01 L 146.86 310.31 L 148.65 302.94 L 149.30 298.67 L 149.43 293.95 L 149.10 290.79 L 148.28 287.49 L 146.93 284.03 L 145.11 280.80 L 142.48 277.42 L 138.90 273.85 L 136.04 271.53 L 132.51 269.14 L 128.22 266.67 L 123.08 264.12 L 120.00 262.47 L 117.17 260.50 L 114.54 258.20 L 112.12 255.54 L 109.29 251.67 L 106.76 247.35 L 104.55 242.55 L 102.70 237.58 L 101.14 232.35 L 99.85 226.86 L 98.43 218.53 L 97.55 210.19 L 97.15 201.91 L 97.16 194.24 L 97.54 186.87 L 98.18 180.73 L 99.13 175.12 L 100.13 171.37 L 101.07 169.14 L 101.85 168.15 L 102.51 167.87 L 103.78 168.07 L 105.34 168.68 L 107.27 169.81 L 110.10 171.86 L 113.48 174.60 L 120.78 180.66 L 124.74 183.69 L 128.81 186.43 L 133.03 188.74 L 137.20 190.35 L 144.00 192.55 L 151.62 195.49 L 160.14 199.25 L 169.65 203.92 L 204.79 161.45 L 203.64 143.56 L 135.13 127.33 Z" fill="#000000" fill-rule="evenodd" node-id="42" stroke="none" target-height="214.34846" target-width="142.74133" target-x="62.045094" target-y="113.86992"></path></clipPath><clipPath id="mask-2_7" node-id="11"><path d="M 135.13 127.33 L 134.15 123.80 L 132.88 120.94 L 131.35 118.66 L 129.56 116.86 L 127.50 115.49 L 125.12 114.52 L 122.34 113.97 L 119.10 113.87 L 115.30 114.31 L 110.82 115.38 L 105.56 117.22 L 100.89 119.31 L 96.42 121.77 L 92.15 124.61 L 88.06 127.84 L 84.25 131.37 L 80.69 135.23 L 77.37 139.45 L 74.29 144.05 L 71.58 148.82 L 69.17 153.91 L 67.07 159.33 L 65.28 165.12 L 63.90 170.95 L 62.90 177.08 L 62.27 183.54 L 62.05 190.35 L 62.36 199.51 L 63.30 209.17 L 64.77 218.85 L 66.72 228.41 L 69.11 237.76 L 71.79 246.36 L 74.88 254.51 L 78.01 261.30 L 80.40 265.56 L 82.68 268.93 L 84.86 271.52 L 86.78 273.28 L 88.55 274.43 L 90.22 275.08 L 91.84 275.31 L 94.12 275.55 L 96.82 276.26 L 100.00 277.54 L 104.65 279.98 L 109.76 283.29 L 114.76 287.04 L 119.64 291.19 L 124.23 295.58 L 128.16 299.86 L 131.55 304.22 L 133.81 307.92 L 134.89 310.46 L 135.27 312.44 L 135.13 313.99 L 133.58 318.71 L 131.98 322.58 L 130.34 325.71 L 128.69 328.22 L 133.39 325.76 L 137.22 323.27 L 140.31 320.75 L 142.75 318.21 L 144.62 315.64 L 145.97 313.01 L 146.86 310.31 L 148.65 302.94 L 149.30 298.67 L 149.43 293.95 L 149.10 290.79 L 148.28 287.49 L 146.93 284.03 L 145.11 280.80 L 142.48 277.42 L 138.90 273.85 L 136.04 271.53 L 132.51 269.14 L 128.22 266.67 L 123.08 264.12 L 120.00 262.47 L 117.17 260.50 L 114.54 258.20 L 112.12 255.54 L 109.29 251.67 L 106.76 247.35 L 104.55 242.55 L 102.70 237.58 L 101.14 232.35 L 99.85 226.86 L 98.43 218.53 L 97.55 210.19 L 97.15 201.91 L 97.16 194.24 L 97.54 186.87 L 98.18 180.73 L 99.13 175.12 L 100.13 171.37 L 101.07 169.14 L 101.85 168.15 L 102.51 167.87 L 103.78 168.07 L 105.34 168.68 L 107.27 169.81 L 110.10 171.86 L 113.48 174.60 L 120.78 180.66 L 124.74 183.69 L 128.81 186.43 L 133.03 188.74 L 137.20 190.35 L 144.00 192.55 L 151.62 195.49 L 160.14 199.25 L 169.65 203.92 L 204.79 161.45 L 203.64 143.56 L 135.13 127.33 Z" fill="#000000" fill-rule="evenodd" node-id="42" stroke="none" target-height="214.34846" target-width="142.74133" target-x="62.045094" target-y="113.86992"></path></clipPath><clipPath id="mask-2_6" node-id="11"><path d="M 135.13 127.33 L 134.15 123.80 L 132.88 120.94 L 131.35 118.66 L 129.56 116.86 L 127.50 115.49 L 125.12 114.52 L 122.34 113.97 L 119.10 113.87 L 115.30 114.31 L 110.82 115.38 L 105.56 117.22 L 100.89 119.31 L 96.42 121.77 L 92.15 124.61 L 88.06 127.84 L 84.25 131.37 L 80.69 135.23 L 77.37 139.45 L 74.29 144.05 L 71.58 148.82 L 69.17 153.91 L 67.07 159.33 L 65.28 165.12 L 63.90 170.95 L 62.90 177.08 L 62.27 183.54 L 62.05 190.35 L 62.36 199.51 L 63.30 209.17 L 64.77 218.85 L 66.72 228.41 L 69.11 237.76 L 71.79 246.36 L 74.88 254.51 L 78.01 261.30 L 80.40 265.56 L 82.68 268.93 L 84.86 271.52 L 86.78 273.28 L 88.55 274.43 L 90.22 275.08 L 91.84 275.31 L 94.12 275.55 L 96.82 276.26 L 100.00 277.54 L 104.65 279.98 L 109.76 283.29 L 114.76 287.04 L 119.64 291.19 L 124.23 295.58 L 128.16 299.86 L 131.55 304.22 L 133.81 307.92 L 134.89 310.46 L 135.27 312.44 L 135.13 313.99 L 133.58 318.71 L 131.98 322.58 L 130.34 325.71 L 128.69 328.22 L 133.39 325.76 L 137.22 323.27 L 140.31 320.75 L 142.75 318.21 L 144.62 315.64 L 145.97 313.01 L 146.86 310.31 L 148.65 302.94 L 149.30 298.67 L 149.43 293.95 L 149.10 290.79 L 148.28 287.49 L 146.93 284.03 L 145.11 280.80 L 142.48 277.42 L 138.90 273.85 L 136.04 271.53 L 132.51 269.14 L 128.22 266.67 L 123.08 264.12 L 120.00 262.47 L 117.17 260.50 L 114.54 258.20 L 112.12 255.54 L 109.29 251.67 L 106.76 247.35 L 104.55 242.55 L 102.70 237.58 L 101.14 232.35 L 99.85 226.86 L 98.43 218.53 L 97.55 210.19 L 97.15 201.91 L 97.16 194.24 L 97.54 186.87 L 98.18 180.73 L 99.13 175.12 L 100.13 171.37 L 101.07 169.14 L 101.85 168.15 L 102.51 167.87 L 103.78 168.07 L 105.34 168.68 L 107.27 169.81 L 110.10 171.86 L 113.48 174.60 L 120.78 180.66 L 124.74 183.69 L 128.81 186.43 L 133.03 188.74 L 137.20 190.35 L 144.00 192.55 L 151.62 195.49 L 160.14 199.25 L 169.65 203.92 L 204.79 161.45 L 203.64 143.56 L 135.13 127.33 Z" fill="#000000" fill-rule="evenodd" node-id="42" stroke="none" target-height="214.34846" target-width="142.74133" target-x="62.045094" target-y="113.86992"></path></clipPath><clipPath id="mask-2_5" node-id="11"><path d="M 135.13 127.33 L 134.15 123.80 L 132.88 120.94 L 131.35 118.66 L 129.56 116.86 L 127.50 115.49 L 125.12 114.52 L 122.34 113.97 L 119.10 113.87 L 115.30 114.31 L 110.82 115.38 L 105.56 117.22 L 100.89 119.31 L 96.42 121.77 L 92.15 124.61 L 88.06 127.84 L 84.25 131.37 L 80.69 135.23 L 77.37 139.45 L 74.29 144.05 L 71.58 148.82 L 69.17 153.91 L 67.07 159.33 L 65.28 165.12 L 63.90 170.95 L 62.90 177.08 L 62.27 183.54 L 62.05 190.35 L 62.36 199.51 L 63.30 209.17 L 64.77 218.85 L 66.72 228.41 L 69.11 237.76 L 71.79 246.36 L 74.88 254.51 L 78.01 261.30 L 80.40 265.56 L 82.68 268.93 L 84.86 271.52 L 86.78 273.28 L 88.55 274.43 L 90.22 275.08 L 91.84 275.31 L 94.12 275.55 L 96.82 276.26 L 100.00 277.54 L 104.65 279.98 L 109.76 283.29 L 114.76 287.04 L 119.64 291.19 L 124.23 295.58 L 128.16 299.86 L 131.55 304.22 L 133.81 307.92 L 134.89 310.46 L 135.27 312.44 L 135.13 313.99 L 133.58 318.71 L 131.98 322.58 L 130.34 325.71 L 128.69 328.22 L 133.39 325.76 L 137.22 323.27 L 140.31 320.75 L 142.75 318.21 L 144.62 315.64 L 145.97 313.01 L 146.86 310.31 L 148.65 302.94 L 149.30 298.67 L 149.43 293.95 L 149.10 290.79 L 148.28 287.49 L 146.93 284.03 L 145.11 280.80 L 142.48 277.42 L 138.90 273.85 L 136.04 271.53 L 132.51 269.14 L 128.22 266.67 L 123.08 264.12 L 120.00 262.47 L 117.17 260.50 L 114.54 258.20 L 112.12 255.54 L 109.29 251.67 L 106.76 247.35 L 104.55 242.55 L 102.70 237.58 L 101.14 232.35 L 99.85 226.86 L 98.43 218.53 L 97.55 210.19 L 97.15 201.91 L 97.16 194.24 L 97.54 186.87 L 98.18 180.73 L 99.13 175.12 L 100.13 171.37 L 101.07 169.14 L 101.85 168.15 L 102.51 167.87 L 103.78 168.07 L 105.34 168.68 L 107.27 169.81 L 110.10 171.86 L 113.48 174.60 L 120.78 180.66 L 124.74 183.69 L 128.81 186.43 L 133.03 188.74 L 137.20 190.35 L 144.00 192.55 L 151.62 195.49 L 160.14 199.25 L 169.65 203.92 L 204.79 161.45 L 203.64 143.56 L 135.13 127.33 Z" fill="#000000" fill-rule="evenodd" node-id="42" stroke="none" target-height="214.34846" target-width="142.74133" target-x="62.045094" target-y="113.86992"></path></clipPath><clipPath id="mask-2" node-id="11"><path d="M 73.13 14.33 C 70.33 0.85 60.47 -2.52 43.56 4.22 C 18.19 14.33 0.05 41.27 0.05 77.35 C 0.05 113.42 16.11 162.31 29.84 162.31 C 43.56 162.31 75.84 191.76 73.13 200.99 C 71.32 207.15 69.17 211.89 66.69 215.22 C 77.10 210.31 83.16 204.34 84.86 197.31 C 87.42 186.76 95.21 166.60 61.08 151.12 C 26.94 135.65 34.00 54.87 40.51 54.87 C 47.03 54.87 61.12 73.24 75.20 77.35 C 84.58 80.08 95.40 84.61 107.65 90.92 L 142.79 48.45 L 141.64 30.56 L 73.13 14.33 Z" fill="#000000" fill-rule="evenodd" node-id="42" stroke="none" target-height="217.74211" target-width="142.74133" target-x="0.04509364" target-y="-2.5237088"></path></clipPath><clipPath id="mask-4_8" node-id="19"><path d="M 270.87 127.33 L 271.85 123.80 L 273.12 120.94 L 274.65 118.66 L 276.44 116.86 L 278.50 115.49 L 280.88 114.52 L 283.66 113.97 L 286.90 113.87 L 290.70 114.31 L 295.18 115.38 L 300.44 117.22 L 305.11 119.31 L 309.58 121.77 L 313.85 124.61 L 317.94 127.84 L 321.75 131.37 L 325.31 135.23 L 328.63 139.45 L 331.71 144.05 L 334.42 148.82 L 336.83 153.91 L 338.93 159.33 L 340.72 165.12 L 342.10 170.95 L 343.10 177.08 L 343.73 183.54 L 343.95 190.35 L 343.64 199.51 L 342.70 209.17 L 341.23 218.85 L 339.28 228.41 L 336.89 237.76 L 334.21 246.36 L 331.12 254.51 L 327.99 261.30 L 325.60 265.56 L 323.32 268.93 L 321.14 271.52 L 319.22 273.28 L 317.45 274.43 L 315.78 275.08 L 314.16 275.31 L 311.88 275.55 L 309.18 276.26 L 306.00 277.54 L 301.35 279.98 L 296.24 283.29 L 291.24 287.04 L 286.36 291.19 L 281.77 295.58 L 277.84 299.86 L 274.45 304.22 L 272.19 307.92 L 271.11 310.46 L 270.73 312.44 L 270.87 313.99 L 272.42 318.71 L 274.02 322.58 L 275.66 325.71 L 277.31 328.22 L 272.61 325.76 L 268.78 323.27 L 265.69 320.75 L 263.25 318.21 L 261.38 315.64 L 260.03 313.01 L 259.14 310.31 L 257.35 302.94 L 256.70 298.67 L 256.57 293.95 L 256.90 290.79 L 257.72 287.49 L 259.07 284.03 L 260.89 280.80 L 263.52 277.42 L 267.10 273.85 L 269.96 271.53 L 273.49 269.14 L 277.78 266.67 L 282.92 264.12 L 286.00 262.47 L 288.83 260.50 L 291.46 258.20 L 293.88 255.54 L 296.71 251.67 L 299.24 247.35 L 301.45 242.55 L 303.30 237.58 L 304.86 232.35 L 306.15 226.86 L 307.57 218.53 L 308.45 210.19 L 308.85 201.91 L 308.84 194.24 L 308.46 186.87 L 307.82 180.73 L 306.87 175.12 L 305.87 171.37 L 304.93 169.14 L 304.15 168.15 L 303.49 167.87 L 302.22 168.07 L 300.66 168.68 L 298.73 169.81 L 295.90 171.86 L 292.52 174.60 L 285.22 180.66 L 281.26 183.69 L 277.19 186.43 L 272.97 188.74 L 268.80 190.35 L 262.00 192.55 L 254.38 195.49 L 245.86 199.25 L 236.35 203.92 L 201.21 161.45 L 202.36 143.56 L 270.87 127.33 Z" fill="#000000" fill-rule="evenodd" node-id="49" stroke="none" target-height="214.34846" target-width="142.74132" target-x="201.21358" target-y="113.86992"></path></clipPath><clipPath id="mask-4_7" node-id="19"><path d="M 270.87 127.33 L 271.85 123.80 L 273.12 120.94 L 274.65 118.66 L 276.44 116.86 L 278.50 115.49 L 280.88 114.52 L 283.66 113.97 L 286.90 113.87 L 290.70 114.31 L 295.18 115.38 L 300.44 117.22 L 305.11 119.31 L 309.58 121.77 L 313.85 124.61 L 317.94 127.84 L 321.75 131.37 L 325.31 135.23 L 328.63 139.45 L 331.71 144.05 L 334.42 148.82 L 336.83 153.91 L 338.93 159.33 L 340.72 165.12 L 342.10 170.95 L 343.10 177.08 L 343.73 183.54 L 343.95 190.35 L 343.64 199.51 L 342.70 209.17 L 341.23 218.85 L 339.28 228.41 L 336.89 237.76 L 334.21 246.36 L 331.12 254.51 L 327.99 261.30 L 325.60 265.56 L 323.32 268.93 L 321.14 271.52 L 319.22 273.28 L 317.45 274.43 L 315.78 275.08 L 314.16 275.31 L 311.88 275.55 L 309.18 276.26 L 306.00 277.54 L 301.35 279.98 L 296.24 283.29 L 291.24 287.04 L 286.36 291.19 L 281.77 295.58 L 277.84 299.86 L 274.45 304.22 L 272.19 307.92 L 271.11 310.46 L 270.73 312.44 L 270.87 313.99 L 272.42 318.71 L 274.02 322.58 L 275.66 325.71 L 277.31 328.22 L 272.61 325.76 L 268.78 323.27 L 265.69 320.75 L 263.25 318.21 L 261.38 315.64 L 260.03 313.01 L 259.14 310.31 L 257.35 302.94 L 256.70 298.67 L 256.57 293.95 L 256.90 290.79 L 257.72 287.49 L 259.07 284.03 L 260.89 280.80 L 263.52 277.42 L 267.10 273.85 L 269.96 271.53 L 273.49 269.14 L 277.78 266.67 L 282.92 264.12 L 286.00 262.47 L 288.83 260.50 L 291.46 258.20 L 293.88 255.54 L 296.71 251.67 L 299.24 247.35 L 301.45 242.55 L 303.30 237.58 L 304.86 232.35 L 306.15 226.86 L 307.57 218.53 L 308.45 210.19 L 308.85 201.91 L 308.84 194.24 L 308.46 186.87 L 307.82 180.73 L 306.87 175.12 L 305.87 171.37 L 304.93 169.14 L 304.15 168.15 L 303.49 167.87 L 302.22 168.07 L 300.66 168.68 L 298.73 169.81 L 295.90 171.86 L 292.52 174.60 L 285.22 180.66 L 281.26 183.69 L 277.19 186.43 L 272.97 188.74 L 268.80 190.35 L 262.00 192.55 L 254.38 195.49 L 245.86 199.25 L 236.35 203.92 L 201.21 161.45 L 202.36 143.56 L 270.87 127.33 Z" fill="#000000" fill-rule="evenodd" node-id="49" stroke="none" target-height="214.34846" target-width="142.74132" target-x="201.21358" target-y="113.86992"></path></clipPath><clipPath id="mask-4_6" node-id="19"><path d="M 270.87 127.33 L 271.85 123.80 L 273.12 120.94 L 274.65 118.66 L 276.44 116.86 L 278.50 115.49 L 280.88 114.52 L 283.66 113.97 L 286.90 113.87 L 290.70 114.31 L 295.18 115.38 L 300.44 117.22 L 305.11 119.31 L 309.58 121.77 L 313.85 124.61 L 317.94 127.84 L 321.75 131.37 L 325.31 135.23 L 328.63 139.45 L 331.71 144.05 L 334.42 148.82 L 336.83 153.91 L 338.93 159.33 L 340.72 165.12 L 342.10 170.95 L 343.10 177.08 L 343.73 183.54 L 343.95 190.35 L 343.64 199.51 L 342.70 209.17 L 341.23 218.85 L 339.28 228.41 L 336.89 237.76 L 334.21 246.36 L 331.12 254.51 L 327.99 261.30 L 325.60 265.56 L 323.32 268.93 L 321.14 271.52 L 319.22 273.28 L 317.45 274.43 L 315.78 275.08 L 314.16 275.31 L 311.88 275.55 L 309.18 276.26 L 306.00 277.54 L 301.35 279.98 L 296.24 283.29 L 291.24 287.04 L 286.36 291.19 L 281.77 295.58 L 277.84 299.86 L 274.45 304.22 L 272.19 307.92 L 271.11 310.46 L 270.73 312.44 L 270.87 313.99 L 272.42 318.71 L 274.02 322.58 L 275.66 325.71 L 277.31 328.22 L 272.61 325.76 L 268.78 323.27 L 265.69 320.75 L 263.25 318.21 L 261.38 315.64 L 260.03 313.01 L 259.14 310.31 L 257.35 302.94 L 256.70 298.67 L 256.57 293.95 L 256.90 290.79 L 257.72 287.49 L 259.07 284.03 L 260.89 280.80 L 263.52 277.42 L 267.10 273.85 L 269.96 271.53 L 273.49 269.14 L 277.78 266.67 L 282.92 264.12 L 286.00 262.47 L 288.83 260.50 L 291.46 258.20 L 293.88 255.54 L 296.71 251.67 L 299.24 247.35 L 301.45 242.55 L 303.30 237.58 L 304.86 232.35 L 306.15 226.86 L 307.57 218.53 L 308.45 210.19 L 308.85 201.91 L 308.84 194.24 L 308.46 186.87 L 307.82 180.73 L 306.87 175.12 L 305.87 171.37 L 304.93 169.14 L 304.15 168.15 L 303.49 167.87 L 302.22 168.07 L 300.66 168.68 L 298.73 169.81 L 295.90 171.86 L 292.52 174.60 L 285.22 180.66 L 281.26 183.69 L 277.19 186.43 L 272.97 188.74 L 268.80 190.35 L 262.00 192.55 L 254.38 195.49 L 245.86 199.25 L 236.35 203.92 L 201.21 161.45 L 202.36 143.56 L 270.87 127.33 Z" fill="#000000" fill-rule="evenodd" node-id="49" stroke="none" target-height="214.34846" target-width="142.74132" target-x="201.21358" target-y="113.86992"></path></clipPath><clipPath id="mask-4_5" node-id="19"><path d="M 270.87 127.33 L 271.85 123.80 L 273.12 120.94 L 274.65 118.66 L 276.44 116.86 L 278.50 115.49 L 280.88 114.52 L 283.66 113.97 L 286.90 113.87 L 290.70 114.31 L 295.18 115.38 L 300.44 117.22 L 305.11 119.31 L 309.58 121.77 L 313.85 124.61 L 317.94 127.84 L 321.75 131.37 L 325.31 135.23 L 328.63 139.45 L 331.71 144.05 L 334.42 148.82 L 336.83 153.91 L 338.93 159.33 L 340.72 165.12 L 342.10 170.95 L 343.10 177.08 L 343.73 183.54 L 343.95 190.35 L 343.64 199.51 L 342.70 209.17 L 341.23 218.85 L 339.28 228.41 L 336.89 237.76 L 334.21 246.36 L 331.12 254.51 L 327.99 261.30 L 325.60 265.56 L 323.32 268.93 L 321.14 271.52 L 319.22 273.28 L 317.45 274.43 L 315.78 275.08 L 314.16 275.31 L 311.88 275.55 L 309.18 276.26 L 306.00 277.54 L 301.35 279.98 L 296.24 283.29 L 291.24 287.04 L 286.36 291.19 L 281.77 295.58 L 277.84 299.86 L 274.45 304.22 L 272.19 307.92 L 271.11 310.46 L 270.73 312.44 L 270.87 313.99 L 272.42 318.71 L 274.02 322.58 L 275.66 325.71 L 277.31 328.22 L 272.61 325.76 L 268.78 323.27 L 265.69 320.75 L 263.25 318.21 L 261.38 315.64 L 260.03 313.01 L 259.14 310.31 L 257.35 302.94 L 256.70 298.67 L 256.57 293.95 L 256.90 290.79 L 257.72 287.49 L 259.07 284.03 L 260.89 280.80 L 263.52 277.42 L 267.10 273.85 L 269.96 271.53 L 273.49 269.14 L 277.78 266.67 L 282.92 264.12 L 286.00 262.47 L 288.83 260.50 L 291.46 258.20 L 293.88 255.54 L 296.71 251.67 L 299.24 247.35 L 301.45 242.55 L 303.30 237.58 L 304.86 232.35 L 306.15 226.86 L 307.57 218.53 L 308.45 210.19 L 308.85 201.91 L 308.84 194.24 L 308.46 186.87 L 307.82 180.73 L 306.87 175.12 L 305.87 171.37 L 304.93 169.14 L 304.15 168.15 L 303.49 167.87 L 302.22 168.07 L 300.66 168.68 L 298.73 169.81 L 295.90 171.86 L 292.52 174.60 L 285.22 180.66 L 281.26 183.69 L 277.19 186.43 L 272.97 188.74 L 268.80 190.35 L 262.00 192.55 L 254.38 195.49 L 245.86 199.25 L 236.35 203.92 L 201.21 161.45 L 202.36 143.56 L 270.87 127.33 Z" fill="#000000" fill-rule="evenodd" node-id="49" stroke="none" target-height="214.34846" target-width="142.74132" target-x="201.21358" target-y="113.86992"></path></clipPath><clipPath id="mask-4" node-id="19"><path d="M 73.13 14.33 C 70.33 0.85 60.47 -2.52 43.56 4.22 C 18.19 14.33 0.05 41.27 0.05 77.35 C 0.05 113.42 16.11 162.31 29.84 162.31 C 43.56 162.31 75.84 191.76 73.13 200.99 C 71.32 207.15 69.17 211.89 66.69 215.22 C 77.10 210.31 83.16 204.34 84.86 197.31 C 87.42 186.76 95.21 166.60 61.08 151.12 C 26.94 135.65 34.00 54.87 40.51 54.87 C 47.03 54.87 61.12 73.24 75.20 77.35 C 84.58 80.08 95.40 84.61 107.65 90.92 L 142.79 48.45 L 141.64 30.56 L 73.13 14.33 Z" fill="#000000" fill-rule="evenodd" node-id="49" stroke="none" target-height="217.74211" target-width="142.74133" target-x="0.04509364" target-y="-2.5237088"></path></clipPath></defs><path d="M 0.00 0.00 L 400.00 0.00 L 400.00 400.00 L 0.00 400.00 Z" fill="#ffffff" fill-rule="evenodd" node-id="55" stroke="none" target-height="400" target-width="400" target-x="0" target-y="0"></path><g node-id="99"><g node-id="100"><g node-id="109"><path d="M 135.13 127.33 L 134.15 123.80 L 132.88 120.94 L 131.35 118.66 L 129.56 116.86 L 127.50 115.49 L 125.12 114.52 L 122.34 113.97 L 119.10 113.87 L 115.30 114.31 L 110.82 115.38 L 105.56 117.22 L 100.89 119.31 L 96.42 121.77 L 92.15 124.61 L 88.06 127.84 L 84.25 131.37 L 80.69 135.23 L 77.37 139.45 L 74.29 144.05 L 71.58 148.82 L 69.17 153.91 L 67.07 159.33 L 65.28 165.12 L 63.90 170.95 L 62.90 177.08 L 62.27 183.54 L 62.05 190.35 L 62.36 199.51 L 63.30 209.17 L 64.77 218.85 L 66.72 228.41 L 69.11 237.76 L 71.79 246.36 L 74.88 254.51 L 78.01 261.30 L 80.40 265.56 L 82.68 268.93 L 84.86 271.52 L 86.78 273.28 L 88.55 274.43 L 90.22 275.08 L 91.84 275.31 L 94.12 275.55 L 96.82 276.26 L 100.00 277.54 L 104.65 279.98 L 109.76 283.29 L 114.76 287.04 L 119.64 291.19 L 124.23 295.58 L 128.16 299.86 L 131.55 304.22 L 133.81 307.92 L 134.89 310.46 L 135.27 312.44 L 135.13 313.99 L 133.58 318.71 L 131.98 322.58 L 130.34 325.71 L 128.69 328.22 L 133.39 325.76 L 137.22 323.27 L 140.31 320.75 L 142.75 318.21 L 144.62 315.64 L 145.97 313.01 L 146.86 310.31 L 148.65 302.94 L 149.30 298.67 L 149.43 293.95 L 149.10 290.79 L 148.28 287.49 L 146.93 284.03 L 145.11 280.80 L 142.48 277.42 L 138.90 273.85 L 136.04 271.53 L 132.51 269.14 L 128.22 266.67 L 123.08 264.12 L 120.00 262.47 L 117.17 260.50 L 114.54 258.20 L 112.12 255.54 L 109.29 251.67 L 106.76 247.35 L 104.55 242.55 L 102.70 237.58 L 101.14 232.35 L 99.85 226.86 L 98.43 218.53 L 97.55 210.19 L 97.15 201.91 L 97.16 194.24 L 97.54 186.87 L 98.18 180.73 L 99.13 175.12 L 100.13 171.37 L 101.07 169.14 L 101.85 168.15 L 102.51 167.87 L 103.78 168.07 L 105.34 168.68 L 107.27 169.81 L 110.10 171.86 L 113.48 174.60 L 120.78 180.66 L 124.74 183.69 L 128.81 186.43 L 133.03 188.74 L 137.20 190.35 L 144.00 192.55 L 151.62 195.49 L 160.14 199.25 L 169.65 203.92 L 204.79 161.45 L 203.64 143.56 L 135.13 127.33 Z" fill="#baeddc" fill-rule="evenodd" group-id="1,2,11" node-id="60" stroke="none" target-height="214.34846" target-width="142.74133" target-x="62.045094" target-y="113.86992"></path></g><g node-id="110"><g clip-path="url(#mask-2_5)" group-id="1,2,12" node-id="63"><path d="M 92.68 145.15 L 101.22 155.63 L 109.23 165.19 L 117.06 174.53 L 124.30 183.47 L 131.16 192.52 L 137.41 201.72 L 141.23 208.04 L 144.77 214.68 L 148.04 221.67 L 150.89 228.83 L 153.45 236.62 L 155.70 245.06 L 156.07 248.20 L 155.82 251.48 L 154.92 254.98 L 153.52 258.35 L 151.62 261.83 L 149.16 265.42 L 146.42 268.81 L 143.32 272.17 L 139.83 275.48 L 134.28 280.08 L 128.34 284.24 L 122.16 287.89 L 116.10 290.80 L 111.95 292.39 L 108.10 293.52 L 104.51 294.24 L 100.88 294.55 L 97.74 294.34 L 94.99 293.66 L 88.79 291.06 L 83.01 287.98 L 77.64 284.43 L 72.56 280.45 L 67.66 276.06 L 62.94 271.24 L 59.38 267.01 L 56.16 262.43 L 53.28 257.48 L 50.73 252.13 L 48.58 246.64 L 46.73 240.93 L 45.19 234.99 L 43.96 228.81 L 42.81 220.51 L 42.16 212.13 L 42.01 203.66 L 42.33 195.20 L 43.07 187.01 L 44.24 179.09 L 45.85 171.24 L 47.79 164.06 L 50.03 157.48 L 52.17 152.73 L 54.96 148.06 L 57.13 145.12 L 59.49 142.42 L 62.07 139.94 L 64.85 137.73 L 67.76 135.93 L 70.79 134.50 L 73.96 133.51 L 77.21 133.05 L 80.57 133.11 L 83.86 133.75 L 87.27 135.07 L 90.86 137.17 L 92.68 145.15 Z" fill="#a7ddcb" fill-rule="evenodd" group-id="1,2,12" id="路径-10备份-2" node-id="14" stroke="none" target-height="161.50081" target-width="114.060165" target-x="42.006958" target-y="133.049"></path></g></g><g node-id="111"><g clip-path="url(#mask-2_6)" group-id="1,2,13" node-id="67"><path d="M 101.68 108.15 L 110.22 118.63 L 118.23 128.19 L 126.06 137.53 L 133.30 146.47 L 140.16 155.52 L 146.41 164.72 L 150.23 171.04 L 153.77 177.68 L 157.04 184.67 L 159.89 191.83 L 162.45 199.62 L 164.70 208.06 L 165.07 211.20 L 164.82 214.48 L 163.92 217.98 L 162.52 221.35 L 160.62 224.83 L 158.16 228.42 L 155.42 231.81 L 152.32 235.17 L 148.83 238.48 L 143.28 243.08 L 137.34 247.24 L 131.16 250.89 L 125.10 253.80 L 120.95 255.39 L 117.10 256.52 L 113.51 257.24 L 109.88 257.55 L 106.74 257.34 L 103.99 256.66 L 97.79 254.06 L 92.01 250.98 L 86.64 247.43 L 81.56 243.45 L 76.66 239.06 L 71.94 234.24 L 68.38 230.01 L 65.16 225.43 L 62.28 220.48 L 59.73 215.13 L 57.58 209.64 L 55.73 203.93 L 54.19 197.99 L 52.96 191.81 L 51.81 183.51 L 51.16 175.13 L 51.01 166.66 L 51.33 158.20 L 52.07 150.01 L 53.24 142.09 L 54.85 134.24 L 56.79 127.06 L 59.03 120.48 L 61.17 115.73 L 63.96 111.06 L 66.13 108.12 L 68.49 105.42 L 71.07 102.94 L 73.85 100.73 L 76.76 98.93 L 79.79 97.50 L 82.96 96.51 L 86.21 96.05 L 89.57 96.11 L 92.86 96.75 L 96.27 98.07 L 99.86 100.17 L 101.68 108.15 Z" fill="#75c5aa" fill-rule="evenodd" group-id="1,2,13" id="路径-10备份" node-id="15" stroke="none" target-height="161.50081" target-width="114.06018" target-x="51.006958" target-y="96.048996"></path></g></g><g node-id="112"><g clip-path="url(#mask-2_7)" group-id="1,2,14" node-id="71"><path d="M 112.68 86.15 L 121.22 96.63 L 129.23 106.19 L 137.06 115.53 L 144.30 124.47 L 151.16 133.52 L 157.41 142.72 L 161.23 149.04 L 164.77 155.68 L 168.04 162.67 L 170.89 169.83 L 173.45 177.62 L 175.70 186.06 L 176.07 189.20 L 175.82 192.48 L 174.92 195.98 L 173.52 199.35 L 171.62 202.83 L 169.16 206.42 L 166.42 209.81 L 163.32 213.17 L 159.83 216.48 L 154.28 221.08 L 148.34 225.24 L 142.16 228.89 L 136.10 231.80 L 131.95 233.39 L 128.10 234.52 L 124.51 235.24 L 120.88 235.55 L 117.74 235.34 L 114.99 234.66 L 108.79 232.06 L 103.01 228.98 L 97.64 225.43 L 92.56 221.45 L 87.66 217.06 L 82.94 212.24 L 79.38 208.01 L 76.16 203.43 L 73.28 198.48 L 70.73 193.13 L 68.58 187.64 L 66.73 181.93 L 65.19 175.99 L 63.96 169.81 L 62.81 161.51 L 62.16 153.13 L 62.01 144.66 L 62.33 136.20 L 63.07 128.01 L 64.24 120.09 L 65.85 112.24 L 67.79 105.06 L 70.03 98.48 L 72.17 93.73 L 74.96 89.06 L 77.13 86.12 L 79.49 83.42 L 82.07 80.94 L 84.85 78.73 L 87.76 76.93 L 90.79 75.50 L 93.96 74.51 L 97.21 74.05 L 100.57 74.11 L 103.86 74.75 L 107.27 76.07 L 110.86 78.17 L 112.68 86.15 Z" fill="#599eab" fill-rule="evenodd" group-id="1,2,14" id="路径-10" node-id="16" stroke="none" target-height="161.50082" target-width="114.06018" target-x="62.006958" target-y="74.049"></path></g></g><g clip-path="url(#mask-2_8)" group-id="1,2,15" node-id="75"><path d="M 145.68 74.15 L 154.22 84.63 L 162.23 94.19 L 170.06 103.53 L 177.30 112.47 L 184.16 121.52 L 190.41 130.72 L 194.23 137.04 L 197.77 143.68 L 201.04 150.67 L 203.89 157.83 L 206.45 165.62 L 208.70 174.06 L 209.07 177.20 L 208.82 180.48 L 207.92 183.98 L 206.52 187.35 L 204.62 190.83 L 202.16 194.42 L 199.42 197.81 L 196.32 201.17 L 192.83 204.48 L 187.28 209.08 L 181.34 213.24 L 175.16 216.89 L 169.10 219.80 L 164.95 221.39 L 161.10 222.52 L 157.51 223.24 L 153.88 223.55 L 150.74 223.34 L 147.99 222.66 L 141.79 220.06 L 136.01 216.98 L 130.64 213.43 L 125.56 209.45 L 120.66 205.06 L 115.94 200.24 L 112.38 196.01 L 109.16 191.43 L 106.28 186.48 L 103.73 181.13 L 101.58 175.64 L 99.73 169.93 L 98.19 163.99 L 96.96 157.81 L 95.81 149.51 L 95.16 141.13 L 95.01 132.66 L 95.33 124.20 L 96.07 116.01 L 97.24 108.09 L 98.85 100.24 L 100.79 93.06 L 103.03 86.48 L 105.17 81.73 L 107.96 77.06 L 110.13 74.12 L 112.49 71.42 L 115.07 68.94 L 117.85 66.73 L 120.76 64.93 L 123.79 63.50 L 126.96 62.51 L 130.21 62.05 L 133.57 62.11 L 136.86 62.75 L 140.27 64.07 L 143.86 66.17 L 145.68 74.15 Z" fill="#336d78" fill-rule="evenodd" group-id="1,2,15" id="路径-10" node-id="17" stroke="none" target-height="161.50081" target-width="114.06018" target-x="95.00696" target-y="62.048996"></path></g></g><g node-id="101"><g node-id="114"><path d="M 270.87 127.33 L 271.85 123.80 L 273.12 120.94 L 274.65 118.66 L 276.44 116.86 L 278.50 115.49 L 280.88 114.52 L 283.66 113.97 L 286.90 113.87 L 290.70 114.31 L 295.18 115.38 L 300.44 117.22 L 305.11 119.31 L 309.58 121.77 L 313.85 124.61 L 317.94 127.84 L 321.75 131.37 L 325.31 135.23 L 328.63 139.45 L 331.71 144.05 L 334.42 148.82 L 336.83 153.91 L 338.93 159.33 L 340.72 165.12 L 342.10 170.95 L 343.10 177.08 L 343.73 183.54 L 343.95 190.35 L 343.64 199.51 L 342.70 209.17 L 341.23 218.85 L 339.28 228.41 L 336.89 237.76 L 334.21 246.36 L 331.12 254.51 L 327.99 261.30 L 325.60 265.56 L 323.32 268.93 L 321.14 271.52 L 319.22 273.28 L 317.45 274.43 L 315.78 275.08 L 314.16 275.31 L 311.88 275.55 L 309.18 276.26 L 306.00 277.54 L 301.35 279.98 L 296.24 283.29 L 291.24 287.04 L 286.36 291.19 L 281.77 295.58 L 277.84 299.86 L 274.45 304.22 L 272.19 307.92 L 271.11 310.46 L 270.73 312.44 L 270.87 313.99 L 272.42 318.71 L 274.02 322.58 L 275.66 325.71 L 277.31 328.22 L 272.61 325.76 L 268.78 323.27 L 265.69 320.75 L 263.25 318.21 L 261.38 315.64 L 260.03 313.01 L 259.14 310.31 L 257.35 302.94 L 256.70 298.67 L 256.57 293.95 L 256.90 290.79 L 257.72 287.49 L 259.07 284.03 L 260.89 280.80 L 263.52 277.42 L 267.10 273.85 L 269.96 271.53 L 273.49 269.14 L 277.78 266.67 L 282.92 264.12 L 286.00 262.47 L 288.83 260.50 L 291.46 258.20 L 293.88 255.54 L 296.71 251.67 L 299.24 247.35 L 301.45 242.55 L 303.30 237.58 L 304.86 232.35 L 306.15 226.86 L 307.57 218.53 L 308.45 210.19 L 308.85 201.91 L 308.84 194.24 L 308.46 186.87 L 307.82 180.73 L 306.87 175.12 L 305.87 171.37 L 304.93 169.14 L 304.15 168.15 L 303.49 167.87 L 302.22 168.07 L 300.66 168.68 L 298.73 169.81 L 295.90 171.86 L 292.52 174.60 L 285.22 180.66 L 281.26 183.69 L 277.19 186.43 L 272.97 188.74 L 268.80 190.35 L 262.00 192.55 L 254.38 195.49 L 245.86 199.25 L 236.35 203.92 L 201.21 161.45 L 202.36 143.56 L 270.87 127.33 Z" fill="#baeddc" fill-rule="evenodd" group-id="1,3,16" node-id="82" stroke="none" target-height="214.34846" target-width="142.74132" target-x="201.21358" target-y="113.86992"></path></g><g node-id="115"><g clip-path="url(#mask-4_5)" group-id="1,3,17" node-id="85"><path d="M 313.32 145.15 L 304.78 155.63 L 296.77 165.19 L 288.94 174.53 L 281.70 183.47 L 274.84 192.52 L 268.59 201.72 L 264.77 208.04 L 261.23 214.68 L 257.96 221.67 L 255.11 228.83 L 252.55 236.62 L 250.30 245.06 L 249.93 248.20 L 250.18 251.48 L 251.08 254.98 L 252.48 258.35 L 254.38 261.83 L 256.84 265.42 L 259.58 268.81 L 262.68 272.17 L 266.17 275.48 L 271.72 280.08 L 277.66 284.24 L 283.84 287.89 L 289.90 290.80 L 294.05 292.39 L 297.90 293.52 L 301.49 294.24 L 305.12 294.55 L 308.26 294.34 L 311.01 293.66 L 317.21 291.06 L 322.99 287.98 L 328.36 284.43 L 333.44 280.45 L 338.34 276.06 L 343.06 271.24 L 346.62 267.01 L 349.84 262.43 L 352.72 257.48 L 355.27 252.13 L 357.42 246.64 L 359.27 240.93 L 360.81 234.99 L 362.04 228.81 L 363.19 220.51 L 363.84 212.13 L 363.99 203.66 L 363.67 195.20 L 362.93 187.01 L 361.76 179.09 L 360.15 171.24 L 358.21 164.06 L 355.97 157.48 L 353.83 152.73 L 351.04 148.06 L 348.87 145.12 L 346.51 142.42 L 343.93 139.94 L 341.15 137.73 L 338.24 135.93 L 335.21 134.50 L 332.04 133.51 L 328.79 133.05 L 325.43 133.11 L 322.14 133.75 L 318.73 135.07 L 315.14 137.17 L 313.32 145.15 Z" fill="#a7ddcb" fill-rule="evenodd" group-id="1,3,17" id="路径-10备份-2" node-id="22" stroke="none" target-height="161.50081" target-width="114.060165" target-x="249.93288" target-y="133.049"></path></g></g><g node-id="116"><g clip-path="url(#mask-4_6)" group-id="1,3,18" node-id="89"><path d="M 304.32 108.15 L 295.78 118.63 L 287.77 128.19 L 279.94 137.53 L 272.70 146.47 L 265.84 155.52 L 259.59 164.72 L 255.77 171.04 L 252.23 177.68 L 248.96 184.67 L 246.11 191.83 L 243.55 199.62 L 241.30 208.06 L 240.93 211.20 L 241.18 214.48 L 242.08 217.98 L 243.48 221.35 L 245.38 224.83 L 247.84 228.42 L 250.58 231.81 L 253.68 235.17 L 257.17 238.48 L 262.72 243.08 L 268.66 247.24 L 274.84 250.89 L 280.90 253.80 L 285.05 255.39 L 288.90 256.52 L 292.49 257.24 L 296.12 257.55 L 299.26 257.34 L 302.01 256.66 L 308.21 254.06 L 313.99 250.98 L 319.36 247.43 L 324.44 243.45 L 329.34 239.06 L 334.06 234.24 L 337.62 230.01 L 340.84 225.43 L 343.72 220.48 L 346.27 215.13 L 348.42 209.64 L 350.27 203.93 L 351.81 197.99 L 353.04 191.81 L 354.19 183.51 L 354.84 175.13 L 354.99 166.66 L 354.67 158.20 L 353.93 150.01 L 352.76 142.09 L 351.15 134.24 L 349.21 127.06 L 346.97 120.48 L 344.83 115.73 L 342.04 111.06 L 339.87 108.12 L 337.51 105.42 L 334.93 102.94 L 332.15 100.73 L 329.24 98.93 L 326.21 97.50 L 323.04 96.51 L 319.79 96.05 L 316.43 96.11 L 313.14 96.75 L 309.73 98.07 L 306.14 100.17 L 304.32 108.15 Z" fill="#75c5aa" fill-rule="evenodd" group-id="1,3,18" id="路径-10备份" node-id="23" stroke="none" target-height="161.50081" target-width="114.06018" target-x="240.93286" target-y="96.048996"></path></g></g><g node-id="117"><g clip-path="url(#mask-4_7)" group-id="1,3,19" node-id="93"><path d="M 293.32 86.15 L 284.78 96.63 L 276.77 106.19 L 268.94 115.53 L 261.70 124.47 L 254.84 133.52 L 248.59 142.72 L 244.77 149.04 L 241.23 155.68 L 237.96 162.67 L 235.11 169.83 L 232.55 177.62 L 230.30 186.06 L 229.93 189.20 L 230.18 192.48 L 231.08 195.98 L 232.48 199.35 L 234.38 202.83 L 236.84 206.42 L 239.58 209.81 L 242.68 213.17 L 246.17 216.48 L 251.72 221.08 L 257.66 225.24 L 263.84 228.89 L 269.90 231.80 L 274.05 233.39 L 277.90 234.52 L 281.49 235.24 L 285.12 235.55 L 288.26 235.34 L 291.01 234.66 L 297.21 232.06 L 302.99 228.98 L 308.36 225.43 L 313.44 221.45 L 318.34 217.06 L 323.06 212.24 L 326.62 208.01 L 329.84 203.43 L 332.72 198.48 L 335.27 193.13 L 337.42 187.64 L 339.27 181.93 L 340.81 175.99 L 342.04 169.81 L 343.19 161.51 L 343.84 153.13 L 343.99 144.66 L 343.67 136.20 L 342.93 128.01 L 341.76 120.09 L 340.15 112.24 L 338.21 105.06 L 335.97 98.48 L 333.83 93.73 L 331.04 89.06 L 328.87 86.12 L 326.51 83.42 L 323.93 80.94 L 321.15 78.73 L 318.24 76.93 L 315.21 75.50 L 312.04 74.51 L 308.79 74.05 L 305.43 74.11 L 302.14 74.75 L 298.73 76.07 L 295.14 78.17 L 293.32 86.15 Z" fill="#599eab" fill-rule="evenodd" group-id="1,3,19" id="路径-10" node-id="24" stroke="none" target-height="161.50082" target-width="114.06018" target-x="229.93286" target-y="74.049"></path></g></g><g clip-path="url(#mask-4_8)" group-id="1,3,20" node-id="97"><path d="M 260.32 74.15 L 251.78 84.63 L 243.77 94.19 L 235.94 103.53 L 228.70 112.47 L 221.84 121.52 L 215.59 130.72 L 211.77 137.04 L 208.23 143.68 L 204.96 150.67 L 202.11 157.83 L 199.55 165.62 L 197.30 174.06 L 196.93 177.20 L 197.18 180.48 L 198.08 183.98 L 199.48 187.35 L 201.38 190.83 L 203.84 194.42 L 206.58 197.81 L 209.68 201.17 L 213.17 204.48 L 218.72 209.08 L 224.66 213.24 L 230.84 216.89 L 236.90 219.80 L 241.05 221.39 L 244.90 222.52 L 248.49 223.24 L 252.12 223.55 L 255.26 223.34 L 258.01 222.66 L 264.21 220.06 L 269.99 216.98 L 275.36 213.43 L 280.44 209.45 L 285.34 205.06 L 290.06 200.24 L 293.62 196.01 L 296.84 191.43 L 299.72 186.48 L 302.27 181.13 L 304.42 175.64 L 306.27 169.93 L 307.81 163.99 L 309.04 157.81 L 310.19 149.51 L 310.84 141.13 L 310.99 132.66 L 310.67 124.20 L 309.93 116.01 L 308.76 108.09 L 307.15 100.24 L 305.21 93.06 L 302.97 86.48 L 300.83 81.73 L 298.04 77.06 L 295.87 74.12 L 293.51 71.42 L 290.93 68.94 L 288.15 66.73 L 285.24 64.93 L 282.21 63.50 L 279.04 62.51 L 275.79 62.05 L 272.43 62.11 L 269.14 62.75 L 265.73 64.07 L 262.14 66.17 L 260.32 74.15 Z" fill="#336d78" fill-rule="evenodd" group-id="1,3,20" id="路径-10" node-id="25" stroke="none" target-height="161.50081" target-width="114.06018" target-x="196.93286" target-y="62.048996"></path></g></g><g node-id="102"><path d="M 202.79 248.11 L 209.50 233.12 L 208.96 197.48 L 209.02 182.12 L 209.28 177.34 L 209.50 176.60 L 212.51 175.29 L 216.37 173.99 L 221.22 172.71 L 227.91 171.38 L 235.03 170.44 L 242.63 169.89 L 250.73 169.77 L 259.46 165.78 L 272.45 149.02 L 256.21 142.26 L 243.51 137.45 L 233.77 134.23 L 226.47 132.27 L 221.15 131.28 L 217.38 131.00 L 211.98 131.19 L 208.41 131.67 L 206.18 132.31 L 204.90 133.04 L 204.25 133.81 L 204.05 134.65 L 203.84 133.82 L 203.17 133.06 L 201.83 132.33 L 199.49 131.68 L 195.69 131.19 L 189.94 131.00 L 185.92 131.29 L 180.33 132.29 L 172.73 134.27 L 162.68 137.50 L 149.67 142.30 L 133.13 149.02 L 156.39 172.71 L 167.78 172.14 L 176.12 172.04 L 182.00 172.26 L 185.97 172.71 L 189.74 173.43 L 193.31 174.56 L 195.19 175.39 L 197.49 176.60 L 197.63 177.28 L 197.63 181.94 L 196.96 197.22 L 194.82 233.12 L 202.79 248.11 Z" fill="#599eab" fill-rule="evenodd" group-id="1,4" id="三角形" node-id="26" stroke="none" target-height="117.10716" target-width="139.31876" target-x="133.12704" target-y="131.00002"></path></g><g node-id="103"><path d="M 201.79 230.11 L 208.50 215.12 L 207.96 186.05 L 208.01 173.34 L 208.28 169.27 L 208.50 168.60 L 209.55 167.74 L 210.89 165.97 L 213.64 161.53 L 215.18 159.19 L 216.75 157.16 L 217.93 155.97 L 219.08 155.18 L 220.22 154.71 L 226.91 153.38 L 234.03 152.44 L 241.63 151.89 L 249.73 151.77 L 269.39 146.60 L 257.05 136.46 L 246.87 128.67 L 238.55 122.86 L 231.84 118.71 L 226.48 115.90 L 222.25 114.16 L 218.94 113.26 L 216.38 113.00 L 210.98 113.19 L 207.41 113.67 L 205.18 114.31 L 203.90 115.04 L 203.25 115.81 L 203.05 116.65 L 202.84 115.82 L 202.17 115.06 L 200.83 114.33 L 198.49 113.68 L 194.69 113.19 L 188.94 113.00 L 186.19 113.27 L 182.72 114.20 L 178.35 115.97 L 172.89 118.81 L 166.14 122.98 L 157.87 128.79 L 147.84 136.55 L 135.77 146.60 L 155.39 154.71 L 166.78 154.14 L 175.12 154.04 L 181.00 154.26 L 184.97 154.71 L 185.92 155.06 L 186.87 155.73 L 187.85 156.80 L 189.15 158.65 L 190.50 160.91 L 193.26 165.40 L 194.84 167.31 L 196.49 168.60 L 196.63 169.21 L 196.63 173.16 L 195.95 185.80 L 193.82 215.12 L 201.79 230.11 Z" fill="#336d78" fill-rule="evenodd" group-id="1,5" id="三角形" node-id="27" stroke="none" target-height="117.10716" target-width="133.61195" target-x="135.7733" target-y="112.999985"></path></g><g node-id="104"><path d="M 201.79 230.57 L 203.48 226.40 L 205.48 222.86 L 207.78 219.89 L 210.37 217.43 L 213.28 215.42 L 216.55 213.85 L 220.22 212.71 L 226.91 211.38 L 234.03 210.44 L 241.63 209.89 L 249.73 209.77 L 255.36 189.03 L 256.04 187.39 L 256.05 186.03 L 255.46 184.79 L 254.12 183.59 L 251.72 182.41 L 237.18 176.98 L 230.74 174.74 L 225.52 173.14 L 220.68 172.02 L 217.28 171.68 L 213.10 171.91 L 209.90 172.53 L 207.48 173.45 L 205.68 174.62 L 204.38 176.02 L 203.51 177.67 L 203.05 179.65 L 202.38 177.70 L 201.30 176.05 L 199.78 174.64 L 197.75 173.46 L 195.07 172.53 L 191.60 171.91 L 187.17 171.68 L 185.04 171.91 L 182.47 172.55 L 179.39 173.71 L 168.89 178.53 L 162.71 181.32 L 155.39 184.26 L 153.41 184.72 L 151.73 184.72 L 150.14 184.43 L 148.83 184.06 L 147.60 183.73 L 146.70 183.65 L 145.98 183.93 L 145.40 184.85 L 145.09 186.26 L 144.96 189.03 L 145.19 192.16 L 145.92 195.55 L 147.22 199.25 L 149.16 203.31 L 151.84 207.78 L 155.39 212.71 L 166.78 212.14 L 175.12 212.04 L 181.00 212.26 L 184.97 212.71 L 187.28 213.39 L 189.72 214.74 L 192.36 216.92 L 195.23 220.11 L 198.36 224.57 L 201.79 230.57 Z" fill="#75c5aa" fill-rule="evenodd" group-id="1,6" id="三角形备份" node-id="28" stroke="none" target-height="58.89203" target-width="111.09018" target-x="144.95715" target-y="171.68141"></path></g><g node-id="105"><path d="M 205.05 264.64 L 208.15 264.47 L 210.62 263.90 L 212.90 262.80 L 215.37 260.87 L 217.82 258.32 L 221.13 254.34 L 229.72 243.12 L 236.54 234.02 L 241.72 226.70 L 244.82 221.84 L 246.82 218.09 L 247.97 215.25 L 248.42 213.05 L 248.24 211.53 L 247.57 210.44 L 246.37 209.68 L 242.38 208.36 L 239.08 207.56 L 236.36 207.17 L 232.38 207.07 L 229.28 207.45 L 223.98 208.84 L 221.61 209.44 L 219.28 209.68 L 215.10 209.91 L 211.90 210.53 L 209.48 211.45 L 207.68 212.62 L 206.38 214.02 L 205.51 215.67 L 205.05 217.65 L 204.38 215.70 L 203.30 214.05 L 201.78 212.64 L 199.75 211.46 L 197.07 210.53 L 193.60 209.91 L 189.17 209.68 L 184.03 209.34 L 181.22 209.12 L 177.94 209.01 L 174.47 209.16 L 170.24 209.72 L 165.79 210.73 L 160.27 212.51 L 159.27 213.19 L 158.82 214.19 L 158.92 215.68 L 159.84 218.17 L 161.85 221.69 L 164.34 225.37 L 167.48 229.67 L 174.25 238.76 L 177.60 243.50 L 180.57 248.11 L 184.10 253.44 L 187.09 257.15 L 189.21 259.29 L 191.18 260.92 L 193.01 262.11 L 195.93 263.46 L 198.83 264.21 L 201.82 264.55 L 205.05 264.64 Z" fill="#a7ddcb" fill-rule="evenodd" group-id="1,7" id="三角形备份-2" node-id="29" stroke="none" target-height="57.56958" target-width="89.604065" target-x="158.8169" target-y="207.07004"></path></g><path d="M 159.05 177.24 L 167.31 175.99 L 172.66 175.65 L 175.92 175.90 L 177.75 176.47 L 178.67 177.24 L 180.04 179.56 L 182.09 184.04 L 185.05 191.65 L 178.42 190.33 L 173.74 189.03 L 170.57 187.77 L 168.56 186.60 L 165.97 184.49 L 162.84 181.44 L 159.05 177.24 Z" fill="#ffffff" fill-rule="evenodd" group-id="1" id="路径-9" node-id="30" stroke="none" target-height="16" target-width="26" target-x="159.05054" target-y="175.65005"></path><path d="M 248.05 177.24 L 239.80 175.99 L 234.44 175.65 L 231.18 175.90 L 229.35 176.47 L 228.43 177.24 L 227.06 179.56 L 225.01 184.04 L 222.05 191.65 L 228.68 190.33 L 233.36 189.03 L 236.53 187.77 L 238.55 186.60 L 241.13 184.49 L 244.26 181.44 L 248.05 177.24 Z" fill="#ffffff" fill-rule="evenodd" group-id="1,8" id="路径-9备份" node-id="31" stroke="none" target-height="16" target-width="26" target-x="222.05055" target-y="175.65005"></path><path d="M 172.05 204.97 L 179.01 203.93 L 183.53 203.65 L 186.27 203.86 L 187.82 204.34 L 188.59 204.97 L 189.75 206.92 L 191.47 210.66 L 193.97 217.01 L 188.38 215.91 L 184.43 214.82 L 181.76 213.77 L 180.06 212.79 L 177.89 211.03 L 175.24 208.49 L 172.05 204.97 Z" fill="#ffffff" fill-rule="evenodd" group-id="1" id="路径-9" node-id="32" stroke="none" target-height="13.362488" target-width="21.918396" target-x="172.05054" target-y="203.65005"></path><path d="M 234.97 204.97 L 228.01 203.93 L 223.49 203.65 L 220.75 203.86 L 219.20 204.34 L 218.43 204.97 L 217.27 206.92 L 215.55 210.66 L 213.05 217.01 L 218.64 215.91 L 222.59 214.82 L 225.26 213.77 L 226.96 212.79 L 229.13 211.03 L 231.78 208.49 L 234.97 204.97 Z" fill="#ffffff" fill-rule="evenodd" group-id="1,9" id="路径-9备份" node-id="33" stroke="none" target-height="13.362488" target-width="21.91838" target-x="213.05054" target-y="203.65005"></path><path d="M 186.05 231.54 L 191.73 230.75 L 194.97 230.69 L 196.64 231.02 L 197.37 231.54 L 198.69 233.93 L 201.05 239.65 L 196.21 238.66 L 193.22 237.70 L 191.53 236.81 L 189.18 234.84 L 186.05 231.54 Z" fill="#ffffff" fill-rule="evenodd" group-id="1" id="路径-9" node-id="34" stroke="none" target-height="8.961502" target-width="15.000015" target-x="186.05054" target-y="230.68855"></path><path d="M 220.05 231.54 L 214.37 230.75 L 211.13 230.69 L 209.46 231.02 L 208.73 231.54 L 207.41 233.93 L 205.05 239.65 L 209.89 238.66 L 212.88 237.70 L 214.57 236.81 L 216.92 234.84 L 220.05 231.54 Z" fill="#ffffff" fill-rule="evenodd" group-id="1,10" id="路径-9备份" node-id="35" stroke="none" target-height="8.961502" target-width="15" target-x="205.05055" target-y="230.68855"></path></g></svg>