<?xml version="1.0" standalone="no"?><!DOCTYPE svg PUBLIC "-//W3C//DTD SVG 1.1//EN" "http://www.w3.org/Graphics/SVG/1.1/DTD/svg11.dtd"><svg height="400" node-id="1" sillyvg="true" template-height="400" template-width="400" version="1.1" viewBox="0 0 400 400" width="400" xmlns="http://www.w3.org/2000/svg" xmlns:xlink="http://www.w3.org/1999/xlink"><defs node-id="21"></defs><path d="M 0.00 0.00 L 400.00 0.00 L 400.00 400.00 L 0.00 400.00 Z" fill="#ffffff" fill-rule="evenodd" node-id="24" stroke="none" target-height="400" target-width="400" target-x="0" target-y="0"></path><g node-id="26"><path d="M 123.45 263.49 L 122.30 265.86 L 120.83 267.62 L 119.02 268.87 L 116.80 269.66 L 114.05 269.94 L 110.63 269.55 L 103.29 267.89 L 89.74 264.06 L 67.17 256.94 L 52.00 295.55 L 56.07 320.95 L 55.45 310.44 L 55.35 303.19 L 55.60 298.45 L 56.07 295.55 L 58.29 287.62 L 60.43 281.69 L 62.80 276.45 L 64.80 272.84 L 66.84 269.82 L 68.26 268.08 L 69.87 266.49 L 70.87 266.20 L 73.78 266.38 L 80.32 267.67 L 92.79 270.98 L 114.05 277.44 L 130.57 269.94 L 123.45 263.49 Z" fill="#336d78" fill-rule="evenodd" group-id="1" id="路径-14" node-id="7" stroke="none" target-height="64.010925" target-width="78.56665" target-x="52" target-y="256.93512"></path><g node-id="27"><path d="M 277.12 263.49 L 278.26 265.86 L 279.73 267.62 L 281.54 268.87 L 283.77 269.66 L 286.52 269.94 L 289.95 269.58 L 297.31 268.04 L 310.86 264.51 L 333.40 257.94 L 348.57 296.55 L 344.50 321.95 L 345.12 311.44 L 345.22 304.19 L 344.97 299.45 L 344.50 296.55 L 342.28 288.62 L 340.14 282.69 L 337.77 277.45 L 335.76 273.84 L 333.72 270.82 L 332.31 269.08 L 330.70 267.49 L 329.69 267.19 L 326.77 267.31 L 320.22 268.47 L 307.75 271.50 L 286.52 277.44 L 270.00 269.94 L 277.12 263.49 Z" fill="#336d78" fill-rule="evenodd" group-id="1,2" id="路径-14" node-id="8" stroke="none" target-height="64.010925" target-width="78.56665" target-x="270" target-y="257.93512"></path></g><path d="M 200.76 320.94 L 213.09 320.85 L 224.65 320.50 L 232.26 320.01 L 239.39 319.24 L 246.07 318.20 L 252.65 316.74 L 258.67 314.85 L 264.18 312.56 L 268.12 310.45 L 271.75 308.01 L 275.09 305.23 L 278.15 302.09 L 280.82 298.68 L 283.21 294.78 L 285.33 290.34 L 287.14 285.31 L 288.45 280.29 L 289.45 274.58 L 290.09 268.09 L 290.32 260.73 L 289.99 258.92 L 288.93 256.94 L 286.94 254.70 L 284.59 252.80 L 281.46 250.88 L 277.40 248.94 L 273.21 247.38 L 268.29 246.02 L 262.57 244.88 L 256.81 244.16 L 250.43 243.84 L 243.35 243.96 L 236.33 244.57 L 228.77 245.77 L 220.63 247.63 L 218.31 248.49 L 215.83 249.81 L 210.85 252.98 L 208.30 254.55 L 205.79 255.85 L 203.23 256.77 L 200.76 257.10 L 197.39 256.80 L 194.77 256.05 L 192.40 254.90 L 190.26 253.50 L 185.92 250.39 L 183.48 248.94 L 180.44 247.63 L 174.86 245.90 L 169.46 244.59 L 164.24 243.69 L 159.16 243.17 L 152.30 242.95 L 145.94 243.23 L 140.02 243.98 L 134.16 245.19 L 129.02 246.65 L 124.51 248.34 L 120.15 250.43 L 116.73 252.48 L 114.12 254.50 L 112.32 256.33 L 111.17 257.95 L 110.54 259.40 L 110.32 260.73 L 110.57 268.09 L 111.22 274.58 L 112.24 280.29 L 113.57 285.31 L 115.42 290.34 L 117.57 294.77 L 120.00 298.67 L 122.72 302.09 L 125.83 305.23 L 129.22 308.01 L 132.90 310.45 L 136.90 312.56 L 142.48 314.85 L 148.57 316.74 L 155.22 318.20 L 161.96 319.24 L 169.14 320.01 L 176.80 320.50 L 188.41 320.85 L 200.76 320.94 Z" fill="#336d78" fill-rule="evenodd" group-id="1" id="椭圆形备份-3" node-id="9" stroke="none" target-height="77.98668" target-width="180" target-x="110.32373" target-y="242.94844"></path><path d="M 200.32 311.94 L 210.29 311.72 L 219.77 311.02 L 228.77 309.86 L 235.50 308.60 L 241.85 306.99 L 247.83 305.05 L 253.48 302.79 L 258.96 300.08 L 264.01 296.95 L 268.67 293.41 L 272.96 289.44 L 276.05 285.99 L 278.87 282.19 L 281.43 278.04 L 283.72 273.49 L 285.74 268.51 L 287.29 263.60 L 288.55 258.20 L 289.50 252.29 L 290.10 245.82 L 290.32 238.74 L 290.13 237.41 L 289.55 236.05 L 288.53 234.63 L 286.94 233.11 L 284.60 231.47 L 281.48 229.85 L 277.40 228.26 L 273.22 227.06 L 268.31 226.06 L 262.57 225.29 L 256.83 224.90 L 250.44 224.88 L 243.35 225.27 L 236.33 226.08 L 228.77 227.41 L 220.63 229.30 L 218.31 230.16 L 215.83 231.48 L 210.85 234.64 L 208.30 236.20 L 205.79 237.50 L 203.23 238.41 L 200.76 238.74 L 197.39 238.44 L 194.77 237.69 L 192.40 236.55 L 190.26 235.16 L 185.92 232.06 L 183.48 230.62 L 180.44 229.30 L 173.05 227.06 L 165.96 225.46 L 159.16 224.48 L 152.29 224.00 L 145.92 223.98 L 140.02 224.40 L 134.14 225.23 L 129.00 226.33 L 124.51 227.67 L 120.13 229.39 L 116.72 231.15 L 114.12 232.91 L 112.32 234.54 L 111.18 236.04 L 110.54 237.42 L 110.32 238.74 L 110.55 245.82 L 111.15 252.29 L 112.09 258.20 L 113.36 263.60 L 114.91 268.51 L 116.93 273.49 L 119.22 278.04 L 121.78 282.19 L 124.60 285.99 L 127.69 289.44 L 131.98 293.41 L 136.64 296.95 L 141.69 300.08 L 147.17 302.79 L 152.82 305.05 L 158.80 306.99 L 165.15 308.60 L 171.88 309.86 L 180.88 311.02 L 190.35 311.72 L 200.32 311.94 Z" fill="#599eab" fill-rule="evenodd" group-id="1" id="椭圆形备份-3" node-id="10" stroke="none" target-height="87.952576" target-width="180" target-x="110.32373" target-y="223.98254"></path><path d="M 123.45 241.49 L 122.30 243.86 L 120.83 245.62 L 119.02 246.87 L 116.80 247.66 L 114.05 247.94 L 110.56 247.50 L 102.24 245.56 L 85.81 240.88 L 57.17 231.94 L 42.00 270.55 L 46.07 295.95 L 45.45 285.44 L 45.35 278.19 L 45.60 273.45 L 46.07 270.55 L 48.29 262.62 L 50.43 256.69 L 52.80 251.45 L 54.80 247.84 L 56.84 244.82 L 58.26 243.08 L 59.87 241.49 L 60.89 241.24 L 64.19 241.53 L 71.99 243.20 L 87.34 247.35 L 114.05 255.44 L 130.57 247.94 L 123.45 241.49 Z" fill="#75c5aa" fill-rule="evenodd" group-id="1" id="路径-14" node-id="11" stroke="none" target-height="64.01094" target-width="88.56665" target-x="42" target-y="231.9351"></path><path d="M 277.12 241.49 L 278.26 243.86 L 279.73 245.62 L 281.54 246.87 L 283.77 247.66 L 286.52 247.94 L 290.00 247.50 L 298.33 245.56 L 314.76 240.88 L 343.40 231.94 L 358.57 270.55 L 354.50 295.95 L 355.12 285.44 L 355.22 278.19 L 354.97 273.45 L 354.50 270.55 L 352.28 262.62 L 350.14 256.69 L 347.77 251.45 L 345.76 247.84 L 343.72 244.82 L 342.31 243.08 L 340.70 241.49 L 339.67 241.24 L 336.38 241.53 L 328.57 243.20 L 313.23 247.35 L 286.52 255.44 L 270.00 247.94 L 277.12 241.49 Z" fill="#599eab" fill-rule="evenodd" group-id="1,3" id="路径-14" node-id="12" stroke="none" target-height="64.01094" target-width="88.56665" target-x="270" target-y="231.9351"></path><path d="M 200.32 295.94 L 210.30 295.76 L 219.77 295.16 L 228.77 294.16 L 235.51 293.04 L 241.86 291.60 L 247.84 289.84 L 253.48 287.79 L 258.97 285.28 L 264.03 282.36 L 268.68 279.04 L 272.96 275.29 L 276.05 272.01 L 278.87 268.37 L 281.42 264.36 L 283.71 259.95 L 285.74 255.11 L 287.29 250.32 L 288.55 245.03 L 289.49 239.20 L 290.10 232.78 L 290.32 225.70 L 290.13 224.37 L 289.55 223.02 L 288.53 221.60 L 286.94 220.08 L 284.60 218.45 L 281.48 216.83 L 277.40 215.25 L 273.22 214.05 L 268.31 213.05 L 262.57 212.29 L 256.83 211.90 L 250.44 211.88 L 243.35 212.27 L 236.33 213.07 L 228.77 214.40 L 220.63 216.29 L 218.31 217.14 L 215.83 218.46 L 210.85 221.61 L 208.30 223.17 L 205.79 224.46 L 203.23 225.37 L 200.76 225.70 L 197.39 225.40 L 194.77 224.65 L 192.40 223.51 L 190.26 222.13 L 185.92 219.04 L 183.48 217.60 L 180.44 216.29 L 173.05 214.05 L 165.96 212.46 L 159.16 211.48 L 152.29 211.00 L 145.92 210.98 L 140.02 211.40 L 134.14 212.23 L 129.00 213.33 L 124.51 214.66 L 120.13 216.38 L 116.72 218.13 L 114.12 219.89 L 112.32 221.52 L 111.18 223.01 L 110.54 224.38 L 110.32 225.70 L 110.55 232.78 L 111.15 239.20 L 112.10 245.03 L 113.36 250.32 L 114.91 255.11 L 116.93 259.95 L 119.23 264.36 L 121.78 268.37 L 124.60 272.01 L 127.69 275.29 L 131.97 279.04 L 136.62 282.36 L 141.68 285.28 L 147.17 287.79 L 152.80 289.84 L 158.78 291.60 L 165.13 293.04 L 171.88 294.16 L 180.87 295.16 L 190.35 295.76 L 200.32 295.94 Z" fill="#75c5aa" fill-rule="evenodd" group-id="1" id="椭圆形备份-2" node-id="13" stroke="none" target-height="84.9527" target-width="180" target-x="110.32373" target-y="210.98242"></path><path d="M 200.32 277.93 L 224.25 277.81 L 231.89 277.56 L 239.05 277.06 L 245.75 276.33 L 252.38 275.22 L 258.44 273.70 L 263.96 271.78 L 267.95 269.96 L 271.61 267.80 L 274.96 265.30 L 278.04 262.46 L 280.73 259.31 L 283.14 255.66 L 285.27 251.46 L 287.11 246.64 L 288.42 241.84 L 289.43 236.30 L 290.08 229.93 L 290.32 222.64 L 290.13 221.32 L 289.55 219.97 L 288.53 218.56 L 286.94 217.05 L 284.60 215.42 L 281.48 213.81 L 277.40 212.23 L 273.22 211.04 L 268.31 210.04 L 262.57 209.28 L 256.83 208.90 L 250.44 208.88 L 243.35 209.27 L 236.33 210.06 L 228.77 211.38 L 220.63 213.27 L 218.31 214.12 L 215.83 215.43 L 210.85 218.57 L 208.30 220.12 L 205.79 221.41 L 203.23 222.31 L 200.76 222.64 L 197.39 222.34 L 194.77 221.60 L 192.40 220.46 L 190.26 219.08 L 185.92 216.00 L 183.48 214.57 L 180.44 213.27 L 173.05 211.04 L 165.96 209.45 L 159.16 208.48 L 152.29 208.00 L 145.92 207.98 L 140.02 208.40 L 134.14 209.22 L 129.00 210.32 L 124.51 211.64 L 120.13 213.36 L 116.72 215.10 L 114.12 216.85 L 112.32 218.48 L 111.18 219.96 L 110.54 221.33 L 110.32 222.64 L 110.57 229.93 L 111.22 236.30 L 112.22 241.84 L 113.54 246.64 L 115.37 251.46 L 117.51 255.66 L 119.92 259.31 L 122.61 262.46 L 125.69 265.30 L 129.04 267.80 L 132.70 269.96 L 136.68 271.78 L 142.21 273.70 L 148.26 275.22 L 154.90 276.33 L 161.60 277.06 L 168.75 277.56 L 176.40 277.81 L 200.32 277.93 Z" fill="#a7ddcb" fill-rule="evenodd" group-id="1" id="椭圆形备份" node-id="14" stroke="none" target-height="69.94374" target-width="180" target-x="110.32373" target-y="207.98222"></path><path d="M 116.34 210.94 L 116.01 211.06 L 115.73 211.84 L 115.47 214.20 L 115.21 216.57 L 114.94 217.35 L 114.63 217.47 L 105.79 214.09 L 96.34 209.95 L 86.24 205.01 L 75.45 199.19 L 63.92 192.43 L 58.89 178.37 L 62.14 171.09 L 61.43 162.35 L 61.33 154.39 L 61.79 147.16 L 62.76 140.58 L 64.20 134.58 L 66.09 129.12 L 68.40 124.15 L 71.12 119.61 L 76.22 112.49 L 82.17 104.99 L 89.04 97.10 L 96.91 88.77 L 105.86 80.00 L 95.73 104.29 L 90.23 118.68 L 87.77 126.35 L 87.07 129.85 L 87.19 131.11 L 87.61 131.40 L 88.73 130.94 L 91.48 128.64 L 97.27 122.60 L 107.89 110.23 L 125.64 88.31 L 124.71 98.92 L 123.41 108.36 L 121.77 116.73 L 119.84 124.13 L 117.65 130.64 L 115.22 136.35 L 112.59 141.34 L 109.76 145.68 L 106.75 149.42 L 103.55 152.63 L 100.16 155.34 L 88.39 163.91 L 80.11 170.34 L 74.57 175.04 L 71.12 178.37 L 71.12 183.67 L 75.50 184.40 L 79.69 185.56 L 83.72 187.14 L 87.61 189.17 L 96.97 194.25 L 116.34 203.87 L 127.87 210.41 L 133.06 213.79 L 134.77 215.30 L 135.00 215.89 L 134.56 216.15 L 132.70 216.01 L 127.54 214.68 L 116.34 210.94 Z" fill="#a7ddcb" fill-rule="evenodd" group-id="1" id="路径-13" node-id="15" stroke="none" target-height="137.47484" target-width="76.10753" target-x="58.88829" target-y="80"></path><path d="M 286.56 210.94 L 286.88 211.06 L 287.16 211.84 L 287.43 214.20 L 287.68 216.57 L 287.96 217.35 L 288.27 217.47 L 297.11 214.09 L 306.55 209.95 L 316.65 205.01 L 327.44 199.19 L 338.97 192.43 L 344.01 178.37 L 340.76 171.09 L 341.47 162.35 L 341.57 154.39 L 341.10 147.16 L 340.13 140.58 L 338.69 134.58 L 336.81 129.12 L 334.50 124.15 L 331.77 119.61 L 326.68 112.49 L 320.73 104.99 L 313.86 97.10 L 305.99 88.77 L 297.04 80.00 L 307.17 104.29 L 312.67 118.68 L 315.13 126.35 L 315.82 129.85 L 315.71 131.11 L 315.28 131.40 L 314.17 130.94 L 311.41 128.64 L 305.63 122.60 L 295.00 110.23 L 277.25 88.31 L 278.18 98.92 L 279.49 108.36 L 281.13 116.73 L 283.06 124.13 L 285.25 130.64 L 287.67 136.35 L 290.31 141.34 L 293.13 145.68 L 296.14 149.42 L 299.34 152.63 L 302.73 155.34 L 314.50 163.91 L 322.78 170.34 L 328.32 175.04 L 331.77 178.37 L 331.77 183.67 L 327.40 184.40 L 323.20 185.56 L 319.17 187.14 L 315.28 189.17 L 305.93 194.25 L 286.56 203.87 L 275.03 210.41 L 269.83 213.79 L 268.12 215.30 L 267.90 215.89 L 268.33 216.15 L 270.20 216.01 L 275.36 214.68 L 286.56 210.94 Z" fill="#a7ddcb" fill-rule="evenodd" group-id="1,4" id="路径-13备份" node-id="16" stroke="none" target-height="137.47484" target-width="76.107544" target-x="267.90002" target-y="80"></path><path d="M 113.45 217.49 L 112.30 219.86 L 110.83 221.62 L 109.02 222.87 L 106.80 223.66 L 104.05 223.94 L 100.56 223.50 L 92.24 221.56 L 75.81 216.88 L 47.17 207.94 L 32.00 246.55 L 36.07 271.95 L 35.45 261.44 L 35.35 254.19 L 35.60 249.45 L 36.07 246.55 L 38.29 238.62 L 40.43 232.69 L 42.80 227.45 L 44.80 223.84 L 46.84 220.82 L 48.26 219.08 L 49.87 217.49 L 50.89 217.24 L 54.19 217.53 L 61.99 219.20 L 77.34 223.35 L 104.05 231.44 L 120.57 223.94 L 113.45 217.49 Z" fill="#75c5aa" fill-rule="evenodd" group-id="1" id="路径-14" node-id="17" stroke="none" target-height="64.01094" target-width="88.56665" target-x="32" target-y="207.9351"></path><path d="M 287.12 217.49 L 288.26 219.86 L 289.73 221.62 L 291.54 222.87 L 293.77 223.66 L 296.52 223.94 L 300.00 223.50 L 308.33 221.56 L 324.76 216.88 L 353.40 207.94 L 368.57 246.55 L 364.50 271.95 L 365.12 261.44 L 365.22 254.19 L 364.97 249.45 L 364.50 246.55 L 362.28 238.62 L 360.14 232.69 L 357.77 227.45 L 355.76 223.84 L 353.72 220.82 L 352.31 219.08 L 350.70 217.49 L 349.67 217.24 L 346.38 217.53 L 338.57 219.20 L 323.23 223.35 L 296.52 231.44 L 280.00 223.94 L 287.12 217.49 Z" fill="#75c5aa" fill-rule="evenodd" group-id="1,5" id="路径-14" node-id="18" stroke="none" target-height="64.01094" target-width="88.56665" target-x="280" target-y="207.9351"></path><path d="M 200.32 267.94 L 212.67 267.89 L 224.25 267.64 L 231.89 267.25 L 239.05 266.60 L 245.75 265.70 L 252.37 264.39 L 258.43 262.66 L 263.96 260.53 L 267.94 258.54 L 271.59 256.22 L 274.95 253.55 L 278.04 250.54 L 280.73 247.23 L 283.14 243.43 L 285.27 239.09 L 287.11 234.14 L 288.43 229.21 L 289.43 223.56 L 290.08 217.11 L 290.32 209.76 L 290.10 208.44 L 289.45 206.98 L 288.24 205.34 L 286.32 203.46 L 283.57 201.38 L 279.95 199.24 L 275.29 197.02 L 270.50 195.20 L 265.00 193.57 L 258.69 192.15 L 252.33 191.18 L 245.45 190.63 L 237.99 190.55 L 230.56 191.01 L 222.79 192.12 L 214.64 193.92 L 212.44 194.42 L 210.88 194.62 L 208.19 194.54 L 205.41 194.16 L 201.42 193.92 L 198.77 194.02 L 197.14 194.22 L 194.92 194.80 L 193.45 195.24 L 192.67 195.27 L 191.44 195.09 L 187.59 193.92 L 181.43 192.08 L 175.32 190.78 L 169.22 190.01 L 163.08 189.69 L 157.14 189.77 L 151.37 190.25 L 145.64 191.09 L 140.29 192.18 L 135.30 193.51 L 130.38 195.13 L 126.05 196.84 L 122.26 198.62 L 118.58 200.67 L 115.71 202.60 L 113.52 204.42 L 111.61 206.52 L 110.63 208.27 L 110.32 209.76 L 110.57 217.11 L 111.21 223.56 L 112.22 229.21 L 113.54 234.14 L 115.37 239.09 L 117.50 243.43 L 119.92 247.23 L 122.61 250.54 L 125.69 253.55 L 129.05 256.22 L 132.71 258.54 L 136.68 260.53 L 142.22 262.66 L 148.28 264.39 L 154.90 265.70 L 161.60 266.60 L 168.76 267.25 L 176.40 267.64 L 187.98 267.89 L 200.32 267.94 Z" fill="#baeddc" fill-rule="evenodd" group-id="1" id="椭圆形" node-id="19" stroke="none" target-height="78.24727" target-width="180" target-x="110.32373" target-y="189.68785"></path></g></svg>