<?xml version="1.0" standalone="no"?><!DOCTYPE svg PUBLIC "-//W3C//DTD SVG 1.1//EN" "http://www.w3.org/Graphics/SVG/1.1/DTD/svg11.dtd"><svg height="400" node-id="1" sillyvg="true" template-height="400" template-width="400" version="1.1" viewBox="0 0 400 400" width="400" xmlns="http://www.w3.org/2000/svg" xmlns:xlink="http://www.w3.org/1999/xlink"><defs node-id="27"><linearGradient gradientUnits="objectBoundingBox" id="linearGradient-1" node-id="5" spreadMethod="pad" x1="0.5799464" x2="0.41422534" y1="0.010372942" y2="0.9812213"><stop offset="0" stop-color="#ffffff"></stop><stop offset="1" stop-color="#6fad2c"></stop></linearGradient><clipPath id="mask-3_10" node-id="13"><path d="M 151.19 217.93 L 134.78 212.12 L 121.56 207.97 L 111.08 205.19 L 102.89 203.53 L 96.62 202.75 L 91.92 202.65 L 88.46 203.05 L 85.97 203.81 L 84.22 204.84 L 82.54 206.51 L 81.19 208.55 L 80.16 211.04 L 79.48 214.07 L 79.21 217.74 L 79.44 222.18 L 80.26 227.53 L 81.81 233.94 L 84.22 241.56 L 90.82 253.17 L 97.10 263.25 L 103.09 271.94 L 108.80 279.36 L 114.24 285.65 L 119.43 290.91 L 124.39 295.25 L 129.14 298.77 L 131.68 300.36 L 136.69 303.40 L 142.64 306.98 L 147.98 310.16 L 151.19 312.03 L 154.04 313.46 L 157.99 315.15 L 167.06 318.51 L 176.86 321.62 L 185.87 324.01 L 189.79 324.83 L 192.54 325.22 L 201.64 325.81 L 209.85 325.94 L 217.24 325.67 L 224.63 324.99 L 231.48 324.01 L 237.85 322.75 L 247.24 320.33 L 256.20 317.49 L 265.05 314.31 L 274.11 310.90 L 283.34 307.47 L 293.41 304.00 L 299.97 301.55 L 305.89 298.74 L 311.54 295.43 L 317.24 291.50 L 322.92 287.11 L 329.27 281.79 L 343.75 269.11 L 346.65 267.07 L 352.42 264.01 L 362.47 259.56 L 378.47 253.32 L 370.08 250.74 L 362.54 248.95 L 355.78 247.85 L 349.71 247.37 L 344.28 247.44 L 339.39 248.00 L 335.00 249.01 L 331.05 250.44 L 327.47 252.28 L 324.24 254.52 L 321.32 257.18 L 318.38 259.96 L 316.22 261.55 L 314.65 262.30 L 313.04 262.55 L 311.79 262.23 L 310.75 261.35 L 309.55 259.33 L 308.49 256.16 L 306.72 248.56 L 305.67 244.43 L 304.33 240.38 L 303.18 237.79 L 301.79 235.48 L 300.17 233.44 L 295.89 229.31 L 292.36 226.59 L 289.44 224.96 L 287.03 224.16 L 284.98 224.02 L 283.20 224.41 L 288.82 238.74 L 292.40 248.72 L 294.46 255.36 L 295.44 259.51 L 296.23 265.47 L 296.45 270.52 L 296.18 274.79 L 295.50 278.39 L 294.29 282.02 L 292.76 284.96 L 290.95 287.34 L 288.86 289.22 L 286.42 290.70 L 283.78 291.74 L 280.90 292.33 L 277.73 292.45 L 274.61 292.14 L 271.36 291.42 L 267.95 290.23 L 264.34 288.55 L 251.81 281.43 L 235.93 271.83 L 218.60 261.09 L 201.74 250.55 L 187.27 241.56 L 184.52 240.62 L 178.76 238.87 L 171.79 236.78 L 165.44 234.82 L 161.52 233.44 L 159.15 232.11 L 157.05 230.36 L 155.20 228.15 L 153.59 225.40 L 152.24 222.03 L 151.19 217.93 Z" fill="#000000" fill-rule="evenodd" node-id="38" stroke="none" target-height="123.29498" target-width="299.25888" target-x="79.21262" target-y="202.64883"></path></clipPath><clipPath id="mask-3_9" node-id="13"><path d="M 157.10 211.25 L 140.69 205.43 L 127.48 201.28 L 116.99 198.50 L 108.81 196.84 L 102.54 196.07 L 97.83 195.96 L 94.37 196.36 L 91.89 197.12 L 90.14 198.16 L 88.46 199.82 L 87.10 201.86 L 86.07 204.35 L 85.40 207.38 L 85.13 211.05 L 85.35 215.50 L 86.18 220.85 L 87.72 227.25 L 90.14 234.88 L 96.73 246.49 L 103.02 256.56 L 109.01 265.25 L 114.72 272.68 L 120.16 278.96 L 125.35 284.23 L 130.31 288.57 L 135.05 292.09 L 137.60 293.67 L 142.61 296.71 L 148.55 300.29 L 153.89 303.48 L 157.10 305.35 L 159.95 306.77 L 163.91 308.47 L 172.98 311.82 L 182.78 314.93 L 191.78 317.33 L 195.71 318.14 L 198.45 318.53 L 207.55 319.12 L 215.76 319.26 L 223.15 318.98 L 230.54 318.31 L 237.40 317.33 L 243.77 316.06 L 253.16 313.65 L 262.11 310.80 L 270.96 307.63 L 280.02 304.21 L 289.26 300.78 L 299.32 297.31 L 305.88 294.87 L 311.80 292.05 L 317.46 288.75 L 323.16 284.82 L 328.83 280.42 L 335.18 275.11 L 349.66 262.43 L 352.56 260.39 L 358.34 257.32 L 368.39 252.88 L 384.39 246.63 L 375.99 244.05 L 368.45 242.26 L 361.69 241.17 L 355.63 240.69 L 350.19 240.76 L 345.31 241.32 L 340.92 242.33 L 336.96 243.76 L 333.39 245.59 L 330.16 247.83 L 327.23 250.50 L 324.29 253.28 L 322.13 254.86 L 320.56 255.62 L 318.96 255.87 L 317.70 255.55 L 316.67 254.67 L 315.47 252.64 L 314.40 249.48 L 312.64 241.88 L 311.59 237.74 L 310.24 233.69 L 309.10 231.10 L 307.71 228.80 L 306.08 226.75 L 301.80 222.63 L 298.27 219.90 L 295.36 218.27 L 292.94 217.48 L 290.89 217.33 L 289.11 217.73 L 294.73 232.05 L 298.32 242.04 L 300.38 248.68 L 301.36 252.83 L 302.15 258.78 L 302.36 263.83 L 302.09 268.10 L 301.42 271.70 L 300.20 275.33 L 298.68 278.28 L 296.87 280.65 L 294.77 282.53 L 292.33 284.02 L 289.69 285.05 L 286.82 285.64 L 283.65 285.77 L 280.53 285.46 L 277.27 284.73 L 273.86 283.55 L 270.26 281.86 L 257.73 274.74 L 241.84 265.14 L 224.51 254.40 L 207.66 243.87 L 193.18 234.88 L 190.44 233.94 L 184.67 232.19 L 177.71 230.10 L 171.35 228.13 L 167.43 226.75 L 165.06 225.43 L 162.97 223.68 L 161.12 221.46 L 159.51 218.72 L 158.16 215.35 L 157.10 211.25 Z" fill="#000000" fill-rule="evenodd" node-id="38" stroke="none" target-height="123.29497" target-width="299.25888" target-x="85.12707" target-y="195.96376"></path></clipPath><clipPath id="mask-3_8" node-id="13"><path d="M 156.74 211.66 L 140.33 205.84 L 127.11 201.69 L 116.63 198.92 L 108.44 197.26 L 102.17 196.48 L 97.47 196.38 L 94.01 196.77 L 91.52 197.53 L 89.77 198.57 L 88.09 200.23 L 86.74 202.28 L 85.71 204.77 L 85.03 207.79 L 84.76 211.46 L 84.99 215.91 L 85.81 221.26 L 87.36 227.67 L 89.77 235.29 L 96.37 246.90 L 102.65 256.98 L 108.64 265.66 L 114.35 273.09 L 119.79 279.38 L 124.99 284.64 L 129.94 288.98 L 134.69 292.50 L 137.23 294.08 L 142.24 297.13 L 148.19 300.70 L 153.53 303.89 L 156.74 305.76 L 159.59 307.18 L 163.54 308.88 L 172.61 312.23 L 182.42 315.35 L 191.42 317.74 L 195.34 318.56 L 198.09 318.94 L 207.19 319.54 L 215.40 319.67 L 222.79 319.39 L 230.18 318.72 L 237.03 317.74 L 243.40 316.48 L 252.79 314.06 L 261.75 311.21 L 270.60 308.04 L 279.66 304.62 L 288.89 301.20 L 298.96 297.73 L 305.52 295.28 L 311.44 292.46 L 317.09 289.16 L 322.80 285.23 L 328.47 280.83 L 334.82 275.52 L 349.30 262.84 L 352.20 260.80 L 357.97 257.73 L 368.02 253.29 L 384.02 247.04 L 375.63 244.47 L 368.09 242.67 L 361.33 241.58 L 355.26 241.10 L 349.83 241.17 L 344.95 241.73 L 340.55 242.74 L 336.60 244.17 L 333.02 246.01 L 329.79 248.25 L 326.87 250.91 L 323.93 253.69 L 321.77 255.28 L 320.20 256.03 L 318.59 256.28 L 317.34 255.96 L 316.30 255.08 L 315.10 253.05 L 314.04 249.89 L 312.27 242.29 L 311.23 238.15 L 309.88 234.10 L 308.73 231.52 L 307.34 229.21 L 305.72 227.16 L 301.44 223.04 L 297.91 220.31 L 294.99 218.68 L 292.58 217.89 L 290.53 217.74 L 288.75 218.14 L 294.37 232.46 L 297.95 242.45 L 300.01 249.09 L 300.99 253.24 L 301.78 259.19 L 302.00 264.24 L 301.73 268.51 L 301.05 272.11 L 299.84 275.74 L 298.31 278.69 L 296.50 281.07 L 294.41 282.94 L 291.97 284.43 L 289.33 285.46 L 286.45 286.05 L 283.28 286.18 L 280.16 285.87 L 276.91 285.14 L 273.50 283.96 L 269.89 282.27 L 257.36 275.15 L 241.48 265.55 L 224.15 254.81 L 207.29 244.28 L 192.82 235.29 L 190.07 234.35 L 184.31 232.60 L 177.34 230.51 L 170.99 228.54 L 167.07 227.16 L 164.70 225.84 L 162.60 224.09 L 160.75 221.88 L 159.14 219.13 L 157.79 215.76 L 156.74 211.66 Z" fill="#000000" fill-rule="evenodd" node-id="38" stroke="none" target-height="123.29498" target-width="299.25888" target-x="84.76302" target-y="196.37524"></path></clipPath><clipPath id="mask-3_7" node-id="13"><path d="M 154.94 213.69 L 138.53 207.88 L 125.32 203.72 L 114.83 200.95 L 106.65 199.29 L 100.38 198.51 L 95.67 198.41 L 92.21 198.80 L 89.73 199.56 L 87.98 200.60 L 86.30 202.26 L 84.94 204.31 L 83.91 206.80 L 83.23 209.82 L 82.97 213.50 L 83.19 217.94 L 84.01 223.29 L 85.56 229.70 L 87.98 237.32 L 94.57 248.93 L 100.85 259.01 L 106.85 267.69 L 112.55 275.12 L 118.00 281.41 L 123.19 286.67 L 128.15 291.01 L 132.89 294.53 L 135.44 296.11 L 140.45 299.16 L 146.39 302.74 L 151.73 305.92 L 154.94 307.79 L 157.79 309.21 L 161.74 310.91 L 170.81 314.27 L 180.62 317.38 L 189.62 319.77 L 193.55 320.59 L 196.29 320.98 L 205.39 321.57 L 213.60 321.70 L 220.99 321.42 L 228.38 320.75 L 235.24 319.77 L 241.60 318.51 L 250.99 316.09 L 259.95 313.24 L 268.80 310.07 L 277.86 306.66 L 287.09 303.23 L 297.16 299.76 L 303.72 297.31 L 309.64 294.50 L 315.29 291.19 L 321.00 287.26 L 326.67 282.87 L 333.02 277.55 L 347.50 264.87 L 350.40 262.83 L 356.18 259.77 L 366.23 255.32 L 382.22 249.07 L 373.83 246.50 L 366.29 244.71 L 359.53 243.61 L 353.47 243.13 L 348.03 243.20 L 343.15 243.76 L 338.76 244.77 L 334.80 246.20 L 331.23 248.04 L 327.99 250.28 L 325.07 252.94 L 322.13 255.72 L 319.97 257.31 L 318.40 258.06 L 316.79 258.31 L 315.54 257.99 L 314.50 257.11 L 313.31 255.08 L 312.24 251.92 L 310.48 244.32 L 309.43 240.19 L 308.08 236.13 L 306.93 233.55 L 305.55 231.24 L 303.92 229.19 L 299.64 225.07 L 296.11 222.35 L 293.20 220.71 L 290.78 219.92 L 288.73 219.77 L 286.95 220.17 L 292.57 234.49 L 296.15 244.48 L 298.22 251.12 L 299.20 255.27 L 299.98 261.22 L 300.20 266.27 L 299.93 270.54 L 299.25 274.15 L 298.04 277.77 L 296.52 280.72 L 294.71 283.10 L 292.61 284.97 L 290.17 286.46 L 287.53 287.49 L 284.65 288.08 L 281.48 288.21 L 278.36 287.90 L 275.11 287.17 L 271.70 285.99 L 268.10 284.31 L 255.56 277.18 L 239.68 267.58 L 222.35 256.84 L 205.50 246.31 L 191.02 237.32 L 188.27 236.38 L 182.51 234.63 L 175.54 232.54 L 169.19 230.57 L 165.27 229.19 L 162.90 227.87 L 160.80 226.12 L 158.96 223.91 L 157.35 221.16 L 156.00 217.79 L 154.94 213.69 Z" fill="#000000" fill-rule="evenodd" node-id="38" stroke="none" target-height="123.29497" target-width="299.2589" target-x="82.96546" target-y="198.407"></path></clipPath><clipPath id="mask-3_6" node-id="13"><path d="M 146.49 223.24 L 130.09 217.42 L 116.87 213.27 L 106.38 210.49 L 98.20 208.83 L 91.93 208.06 L 87.23 207.95 L 83.77 208.35 L 81.28 209.11 L 79.53 210.14 L 77.85 211.81 L 76.50 213.85 L 75.47 216.34 L 74.79 219.37 L 74.52 223.04 L 74.75 227.48 L 75.57 232.84 L 77.12 239.24 L 79.53 246.87 L 86.12 258.47 L 92.41 268.55 L 98.40 277.24 L 104.11 284.67 L 109.55 290.95 L 114.74 296.21 L 119.70 300.56 L 124.44 304.08 L 126.99 305.66 L 132.00 308.70 L 137.94 312.28 L 143.29 315.47 L 146.49 317.33 L 149.35 318.76 L 153.30 320.46 L 162.37 323.81 L 172.17 326.92 L 181.18 329.32 L 185.10 330.13 L 187.84 330.52 L 196.94 331.11 L 205.15 331.25 L 212.55 330.97 L 219.93 330.30 L 226.79 329.32 L 233.16 328.05 L 242.55 325.64 L 251.51 322.79 L 260.36 319.61 L 269.42 316.20 L 278.65 312.77 L 288.71 309.30 L 295.28 306.86 L 301.20 304.04 L 306.85 300.74 L 312.55 296.81 L 318.22 292.41 L 324.58 287.10 L 339.06 274.41 L 341.96 272.37 L 347.73 269.31 L 357.78 264.87 L 373.78 258.62 L 365.38 256.04 L 357.84 254.25 L 351.08 253.16 L 345.02 252.68 L 339.58 252.75 L 334.70 253.31 L 330.31 254.32 L 326.36 255.75 L 322.78 257.58 L 319.55 259.82 L 316.63 262.49 L 313.68 265.27 L 311.52 266.85 L 309.96 267.60 L 308.35 267.86 L 307.10 267.53 L 306.06 266.65 L 304.86 264.63 L 303.79 261.46 L 302.03 253.86 L 300.98 249.73 L 299.63 245.68 L 298.49 243.09 L 297.10 240.79 L 295.47 238.74 L 291.20 234.61 L 287.67 231.89 L 284.75 230.26 L 282.33 229.46 L 280.29 229.32 L 278.51 229.72 L 284.13 244.04 L 287.71 254.03 L 289.77 260.66 L 290.75 264.82 L 291.54 270.77 L 291.75 275.82 L 291.49 280.09 L 290.81 283.69 L 289.59 287.32 L 288.07 290.27 L 286.26 292.64 L 284.17 294.52 L 281.73 296.01 L 279.09 297.04 L 276.21 297.63 L 273.04 297.76 L 269.92 297.45 L 266.67 296.72 L 263.25 295.54 L 259.65 293.85 L 247.12 286.73 L 231.23 277.13 L 213.91 266.39 L 197.05 255.86 L 182.57 246.87 L 179.83 245.93 L 174.07 244.18 L 167.10 242.09 L 160.75 240.12 L 156.83 238.74 L 154.46 237.42 L 152.36 235.67 L 150.51 233.45 L 148.90 230.71 L 147.55 227.34 L 146.49 223.24 Z" fill="#000000" fill-rule="evenodd" node-id="38" stroke="none" target-height="123.29498" target-width="299.2589" target-x="74.520454" target-y="207.95236"></path></clipPath><clipPath id="mask-3" node-id="13"><path d="M 132.17 86.82 C 137.54 46.69 144.16 24.93 152.04 21.55 C 159.92 18.17 170.73 23.91 184.47 38.79 C 202.24 65.66 212.05 87.83 213.90 105.30 C 214.07 106.91 215.20 127.89 215.25 130.99 C 215.40 140.82 210.72 166.00 207.48 173.69 C 189.71 215.89 167.38 227.73 141.39 252.80 C 127.62 266.07 114.04 270.65 86.95 280.87 C 82.28 282.63 72.20 290.38 56.70 304.11 C 61.28 276.12 71.36 259.90 86.95 255.46 C 110.33 248.80 80.90 240.57 75.91 225.64 C 72.59 215.68 72.59 209.27 75.91 206.42 C 88.08 220.94 96.49 230.04 101.16 233.71 C 125.69 253.02 141.39 240.69 141.39 219.88 C 141.39 200.59 137.62 154.46 136.09 129.77 C 136.02 128.54 140.73 107.04 141.00 103.22 C 141.41 97.43 138.47 91.96 132.17 86.82 Z" fill="#000000" fill-rule="evenodd" node-id="38" stroke="none" target-height="285.94418" target-width="158.70169" target-x="56.702084" target-y="18.165897"></path></clipPath></defs><path d="M 0.00 0.00 L 400.00 0.00 L 400.00 400.00 L 0.00 400.00 Z" fill="#ffffff" fill-rule="evenodd" node-id="44" stroke="none" target-height="400" target-width="400" target-x="0" target-y="0"></path><g node-id="70"><g node-id="71"><g node-id="73"><path d="M 160.65 207.24 L 144.24 201.42 L 131.03 197.27 L 120.54 194.49 L 112.36 192.83 L 106.09 192.05 L 101.38 191.95 L 97.92 192.35 L 95.44 193.11 L 93.69 194.14 L 92.01 195.81 L 90.65 197.85 L 89.62 200.34 L 88.94 203.37 L 88.68 207.04 L 88.90 211.48 L 89.73 216.84 L 91.27 223.24 L 93.69 230.87 L 100.28 242.47 L 106.57 252.55 L 112.56 261.24 L 118.27 268.66 L 123.71 274.95 L 128.90 280.21 L 133.86 284.56 L 138.60 288.08 L 141.15 289.66 L 146.16 292.70 L 152.10 296.28 L 157.44 299.47 L 160.65 301.33 L 163.50 302.76 L 167.45 304.46 L 176.53 307.81 L 186.33 310.92 L 195.33 313.32 L 199.26 314.13 L 202.00 314.52 L 211.10 315.11 L 219.31 315.25 L 226.70 314.97 L 234.09 314.29 L 240.95 313.32 L 247.32 312.05 L 256.71 309.64 L 265.66 306.79 L 274.51 303.61 L 283.57 300.20 L 292.81 296.77 L 302.87 293.30 L 309.43 290.86 L 315.35 288.04 L 321.01 284.73 L 326.71 280.81 L 332.38 276.41 L 338.73 271.10 L 353.21 258.41 L 356.11 256.37 L 361.89 253.31 L 371.94 248.87 L 387.94 242.62 L 379.54 240.04 L 372.00 238.25 L 365.24 237.15 L 359.18 236.68 L 353.74 236.74 L 348.86 237.31 L 344.47 238.32 L 340.51 239.75 L 336.94 241.58 L 333.70 243.82 L 330.78 246.49 L 327.84 249.27 L 325.68 250.85 L 324.11 251.60 L 322.51 251.86 L 321.25 251.53 L 320.21 250.65 L 319.02 248.63 L 317.95 245.46 L 316.19 237.86 L 315.14 233.73 L 313.79 229.68 L 312.64 227.09 L 311.26 224.79 L 309.63 222.74 L 305.35 218.61 L 301.82 215.89 L 298.91 214.26 L 296.49 213.46 L 294.44 213.32 L 292.66 213.72 L 298.28 228.04 L 301.87 238.03 L 303.93 244.66 L 304.91 248.82 L 305.70 254.77 L 305.91 259.82 L 305.64 264.09 L 304.96 267.69 L 303.75 271.32 L 302.23 274.27 L 300.42 276.64 L 298.32 278.52 L 295.88 280.01 L 293.24 281.04 L 290.37 281.63 L 287.19 281.76 L 284.08 281.45 L 280.82 280.72 L 277.41 279.54 L 273.81 277.85 L 261.28 270.73 L 245.39 261.13 L 228.06 250.39 L 211.21 239.86 L 196.73 230.87 L 193.99 229.93 L 188.22 228.18 L 181.26 226.09 L 174.90 224.12 L 170.98 222.74 L 168.61 221.42 L 166.52 219.67 L 164.67 217.45 L 163.06 214.71 L 161.71 211.34 L 160.65 207.24 Z" fill="url(#linearGradient-1)" fill-rule="evenodd" group-id="1,2,4" node-id="49" stroke="none" target-height="123.29497" target-width="299.25888" target-x="88.67629" target-y="191.9521"></path></g><g node-id="74"><g clip-path="url(#mask-3_6)" group-id="1,2,5" node-id="52"><path d="M 97.73 204.16 L 96.83 204.73 L 95.81 205.04 L 94.61 205.08 L 92.75 204.82 L 90.70 204.33 L 86.71 203.46 L 84.87 203.46 L 83.34 204.00 L 73.61 210.42 L 66.19 215.88 L 60.71 220.50 L 56.82 224.38 L 54.21 227.65 L 52.60 230.39 L 51.77 232.72 L 51.55 234.72 L 51.85 236.50 L 184.74 330.09 L 336.01 201.22 L 314.60 197.49 L 297.20 195.01 L 283.25 193.57 L 272.26 192.97 L 263.76 193.03 L 257.31 193.59 L 247.47 195.18 L 238.39 196.95 L 230.04 198.87 L 217.84 202.04 L 207.17 205.01 L 197.01 207.78 L 188.33 209.81 L 182.65 210.79 L 177.62 211.21 L 173.15 211.13 L 169.84 210.66 L 166.78 209.78 L 163.92 208.49 L 161.25 206.77 L 158.08 204.67 L 154.60 202.85 L 150.75 201.33 L 146.78 200.13 L 142.64 199.18 L 138.33 198.50 L 131.82 197.92 L 125.40 197.83 L 119.09 198.17 L 113.37 198.86 L 107.97 199.90 L 103.68 201.12 L 100.98 202.17 L 99.05 203.19 L 97.73 204.16 Z" fill="#baeddc" fill-rule="evenodd" group-id="1,2,5" id="矩形备份-3" node-id="16" stroke="none" target-height="137.12045" target-width="284.45837" target-x="51.55388" target-y="192.96509"></path></g></g><g node-id="75"><g clip-path="url(#mask-3_7)" group-id="1,2,6" node-id="56"><path d="M 129.60 204.53 L 121.89 211.14 L 114.85 216.43 L 108.39 220.57 L 102.48 223.68 L 97.04 225.90 L 92.03 227.32 L 87.37 228.05 L 83.02 228.14 L 78.93 227.64 L 75.03 226.56 L 71.29 224.89 L 67.66 222.61 L 64.13 219.65 L 60.68 215.93 L 57.30 211.35 L 54.00 205.79 L 51.51 206.93 L 49.84 208.23 L 48.78 209.68 L 48.25 211.33 L 48.24 213.26 L 48.84 215.61 L 50.24 218.49 L 52.69 222.07 L 56.52 226.48 L 62.07 231.90 L 69.76 238.49 L 80.03 246.46 L 94.02 256.44 L 111.87 268.33 L 134.18 282.36 L 161.61 298.81 L 194.88 317.97 L 234.72 340.15 L 354.44 215.35 L 332.78 218.62 L 313.22 221.02 L 295.60 222.63 L 279.79 223.53 L 265.64 223.79 L 253.02 223.48 L 241.81 222.68 L 231.87 221.42 L 223.10 219.78 L 215.38 217.79 L 208.62 215.50 L 202.71 212.95 L 197.57 210.14 L 193.12 207.11 L 189.96 205.00 L 186.47 203.18 L 182.63 201.66 L 178.65 200.46 L 174.52 199.52 L 170.20 198.84 L 163.69 198.26 L 157.27 198.17 L 150.96 198.51 L 145.25 199.21 L 139.84 200.26 L 135.55 201.48 L 132.85 202.53 L 130.92 203.55 L 129.60 204.53 Z" fill="#a7ddcb" fill-rule="evenodd" group-id="1,2,6" id="矩形备份-2" node-id="17" stroke="none" target-height="141.97783" target-width="306.2016" target-x="48.23723" target-y="198.17238"></path></g></g><g node-id="76"><g clip-path="url(#mask-3_8)" group-id="1,2,7" node-id="60"><path d="M 153.18 218.66 L 144.16 226.50 L 135.88 233.03 L 128.28 238.36 L 121.30 242.63 L 114.89 245.95 L 108.99 248.42 L 103.55 250.15 L 98.53 251.21 L 93.86 251.66 L 89.51 251.57 L 85.42 250.95 L 81.55 249.84 L 77.86 248.21 L 74.33 246.07 L 80.48 255.08 L 86.82 263.43 L 93.35 271.15 L 100.09 278.27 L 107.02 284.81 L 114.15 290.80 L 121.49 296.26 L 129.06 301.21 L 136.85 305.66 L 144.89 309.62 L 153.18 313.09 L 162.31 316.29 L 173.15 319.48 L 185.93 322.62 L 200.85 325.70 L 218.14 328.68 L 238.07 331.53 L 260.88 334.19 L 286.84 336.65 L 316.23 338.85 L 391.19 236.49 L 366.59 236.80 L 346.56 237.46 L 330.51 238.40 L 317.86 239.55 L 308.11 240.84 L 300.09 241.85 L 292.45 242.40 L 285.16 242.53 L 278.20 242.24 L 268.87 241.29 L 260.28 239.85 L 252.37 237.95 L 244.58 235.54 L 237.67 232.96 L 231.57 230.21 L 225.61 227.06 L 220.70 224.08 L 216.71 221.24 L 213.55 219.14 L 210.06 217.32 L 206.22 215.80 L 202.24 214.60 L 198.10 213.66 L 193.79 212.97 L 187.28 212.40 L 180.86 212.31 L 174.55 212.65 L 168.83 213.34 L 163.43 214.39 L 159.13 215.61 L 156.44 216.67 L 154.51 217.68 L 153.18 218.66 Z" fill="#75c5aa" fill-rule="evenodd" group-id="1,2,7" id="矩形备份" node-id="18" stroke="none" target-height="126.54367" target-width="316.86157" target-x="74.33233" target-y="212.30835"></path></g></g><g node-id="77"><g clip-path="url(#mask-3_9)" group-id="1,2,8" node-id="64"><path d="M 162.83 245.92 L 155.70 252.03 L 148.79 257.25 L 142.08 261.64 L 135.57 265.26 L 129.22 268.17 L 123.01 270.42 L 116.93 272.05 L 110.94 273.08 L 105.02 273.54 L 99.15 273.45 L 93.29 272.79 L 87.42 271.57 L 81.52 269.77 L 75.57 267.35 L 69.54 264.29 L 63.41 260.53 L 278.66 370.94 L 393.40 243.19 L 385.00 241.43 L 377.50 240.34 L 370.82 239.87 L 364.87 239.93 L 359.59 240.47 L 354.89 241.43 L 350.71 242.79 L 346.98 244.51 L 343.67 246.59 L 339.17 249.55 L 334.43 252.20 L 329.43 254.53 L 324.17 256.54 L 316.99 258.71 L 309.61 260.40 L 301.99 261.59 L 294.31 262.32 L 286.69 262.64 L 279.13 262.54 L 271.57 262.06 L 264.40 261.26 L 257.58 260.16 L 250.81 258.70 L 244.75 257.05 L 239.35 255.23 L 234.06 253.02 L 229.80 250.78 L 226.42 248.53 L 223.26 246.43 L 219.77 244.61 L 215.92 243.08 L 211.94 241.88 L 207.80 240.94 L 203.48 240.25 L 196.96 239.67 L 190.53 239.58 L 184.21 239.92 L 178.49 240.61 L 173.09 241.65 L 168.79 242.87 L 166.09 243.92 L 164.16 244.94 L 162.83 245.92 Z" fill="#599eab" fill-rule="evenodd" group-id="1,2,8" id="矩形" node-id="19" stroke="none" target-height="131.36324" target-width="329.99384" target-x="63.408615" target-y="239.57774"></path></g></g><g clip-path="url(#mask-3_10)" group-id="1,2,9" node-id="68"><path d="M 179.45 273.89 L 172.84 279.45 L 166.44 284.10 L 160.23 287.90 L 154.19 290.94 L 148.29 293.27 L 142.51 294.94 L 136.82 295.98 L 131.19 296.41 L 125.58 296.26 L 119.97 295.51 L 114.32 294.16 L 108.61 292.18 L 102.81 289.52 L 96.90 286.14 L 90.86 281.98 L 84.66 276.96 L 78.28 271.02 L 86.03 278.19 L 94.18 284.99 L 102.76 291.43 L 111.76 297.52 L 121.22 303.25 L 131.15 308.62 L 141.58 313.64 L 152.51 318.30 L 163.99 322.58 L 176.02 326.49 L 188.65 330.01 L 203.86 333.63 L 217.76 336.36 L 230.45 338.29 L 242.02 339.50 L 252.55 340.04 L 262.11 339.99 L 270.80 339.39 L 278.69 338.30 L 285.84 336.76 L 292.32 334.81 L 387.94 242.62 L 379.94 243.79 L 373.03 245.22 L 367.10 246.87 L 362.04 248.69 L 357.75 250.67 L 344.47 257.45 L 332.13 263.41 L 320.68 268.60 L 309.03 273.40 L 298.47 277.19 L 288.92 280.07 L 281.49 281.83 L 274.75 282.92 L 268.64 283.43 L 263.09 283.41 L 258.53 282.94 L 254.37 282.04 L 250.56 280.74 L 247.06 279.03 L 243.83 276.93 L 240.61 274.79 L 237.07 272.94 L 233.16 271.39 L 229.12 270.16 L 224.93 269.18 L 220.55 268.46 L 213.95 267.84 L 207.44 267.71 L 201.05 268.00 L 195.27 268.66 L 189.80 269.68 L 185.46 270.87 L 182.73 271.91 L 180.78 272.92 L 179.45 273.89 Z" fill="#336d78" fill-rule="evenodd" group-id="1,2,9" id="矩形" node-id="20" stroke="none" target-height="97.4245" target-width="309.65186" target-x="78.283325" target-y="242.61884"></path></g></g><path d="M 180.82 67.52 L 178.35 69.05 L 175.44 70.42 L 172.01 71.62 L 166.68 73.04 L 160.92 74.23 L 149.63 76.28 L 144.39 77.42 L 140.24 78.69 L 137.71 79.82 L 135.98 81.05 L 134.86 82.38 L 133.59 85.09 L 133.02 87.45 L 133.04 89.56 L 133.58 91.49 L 134.68 93.32 L 136.43 95.09 L 146.41 93.83 L 155.14 92.23 L 162.73 90.32 L 169.31 88.15 L 174.97 85.76 L 179.82 83.17 L 183.94 80.39 L 187.41 77.45 L 190.30 74.33 L 192.66 71.03 L 194.53 67.52 L 199.78 55.29 L 203.23 46.12 L 205.29 39.43 L 206.30 34.69 L 206.77 32.74 L 206.96 29.55 L 206.80 27.88 L 206.45 27.23 L 206.00 27.10 L 205.28 27.46 L 200.87 39.79 L 197.81 47.25 L 195.75 51.30 L 193.07 55.53 L 190.81 58.57 L 188.46 61.21 L 186.15 63.37 L 180.82 67.52 Z" fill="#599eab" fill-rule="evenodd" group-id="1" id="路径-23" node-id="21" stroke="none" target-height="67.994286" target-width="73.939575" target-x="133.02254" target-y="27.09727"></path><path d="M 120.46 219.94 L 128.85 223.36 L 135.43 225.55 L 140.49 226.76 L 144.33 227.21 L 147.19 227.10 L 149.30 226.57 L 150.83 225.71 L 151.92 224.55 L 152.63 223.02 L 153.10 222.20 L 153.79 221.82 L 154.83 221.86 L 156.67 222.41 L 159.51 223.52 L 162.68 224.70 L 166.82 225.90 L 175.80 227.63 L 196.73 230.87 L 188.73 227.61 L 182.63 224.64 L 178.10 221.94 L 174.85 219.49 L 172.63 217.25 L 171.22 215.21 L 169.68 211.75 L 168.53 207.93 L 167.74 204.01 L 167.25 200.23 L 166.85 193.61 L 166.82 189.54 L 166.45 182.07 L 165.70 175.31 L 164.61 169.21 L 163.16 163.15 L 161.61 157.82 L 159.98 153.15 L 157.31 146.51 L 155.04 141.49 L 152.98 137.04 L 151.89 134.36 L 151.59 132.84 L 151.87 132.14 L 152.63 131.88 L 155.33 131.58 L 157.29 130.94 L 158.69 130.04 L 159.66 128.87 L 160.24 127.40 L 160.44 125.51 L 160.13 123.08 L 159.18 119.94 L 157.36 115.91 L 165.78 115.11 L 170.44 114.23 L 172.68 113.38 L 173.54 112.62 L 173.64 111.90 L 173.06 111.02 L 171.22 109.78 L 169.57 108.68 L 167.87 107.18 L 166.10 105.22 L 160.95 98.43 L 158.19 94.80 L 155.22 91.34 L 153.08 89.20 L 150.81 87.39 L 148.42 85.88 L 145.86 84.75 L 143.08 84.12 L 140.02 83.99 L 138.41 83.88 L 136.13 83.44 L 131.13 82.48 L 128.55 82.32 L 126.22 82.60 L 116.87 85.33 L 106.28 89.05 L 94.33 93.87 L 80.87 99.95 L 69.13 103.56 L 68.14 106.99 L 67.91 109.46 L 68.21 111.22 L 68.93 112.48 L 70.05 113.37 L 74.26 115.61 L 78.91 118.09 L 83.32 120.43 L 84.94 121.12 L 87.51 121.90 L 90.33 122.56 L 93.55 123.15 L 93.73 123.42 L 93.70 124.30 L 93.39 126.34 L 93.37 127.22 L 93.55 127.48 L 93.68 127.74 L 93.52 128.68 L 92.91 130.78 L 92.77 131.67 L 92.92 131.88 L 93.19 132.01 L 93.10 132.42 L 92.36 133.61 L 91.68 134.67 L 91.67 134.89 L 92.09 134.80 L 94.13 134.07 L 95.28 133.63 L 96.75 132.88 L 97.73 132.11 L 98.76 131.07 L 99.79 130.02 L 100.78 129.22 L 100.93 129.20 L 100.75 129.57 L 100.04 130.67 L 99.84 131.11 L 99.97 131.16 L 102.36 129.91 L 105.02 128.43 L 106.13 127.97 L 106.49 128.01 L 106.73 128.81 L 106.66 130.33 L 106.03 132.95 L 104.69 137.03 L 102.57 142.83 L 97.46 156.83 L 94.77 164.95 L 92.09 174.13 L 90.96 179.30 L 89.96 186.35 L 89.18 195.70 L 88.70 207.81 L 120.46 219.94 Z" fill="#baeddc" fill-rule="evenodd" group-id="1,3" id="路径" node-id="22" stroke="none" target-height="148.55069" target-width="128.81879" target-x="67.909935" target-y="82.31699"></path><path d="M 211.19 78.71 L 208.34 79.93 L 204.97 81.07 L 201.03 82.10 L 194.97 83.34 L 188.27 84.40 L 174.61 86.12 L 161.81 87.77 L 156.06 88.78 L 151.58 89.87 L 148.80 90.86 L 146.90 91.88 L 145.67 92.93 L 144.04 95.18 L 143.20 97.13 L 142.96 98.86 L 143.25 100.45 L 144.08 101.99 L 145.56 103.53 L 147.90 105.09 L 162.82 103.82 L 175.74 102.18 L 186.86 100.24 L 196.35 98.05 L 204.41 95.65 L 211.18 93.09 L 216.83 90.40 L 221.50 87.61 L 225.30 84.73 L 228.35 81.76 L 230.73 78.71 L 237.04 68.94 L 241.55 61.24 L 244.60 55.26 L 246.50 50.70 L 247.52 47.30 L 248.00 46.14 L 248.33 44.54 L 248.46 42.37 L 248.26 40.88 L 247.82 40.21 L 247.15 40.02 L 246.07 40.37 L 239.83 52.09 L 235.45 59.25 L 232.48 63.19 L 228.68 67.21 L 225.43 70.15 L 222.11 72.65 L 218.79 74.74 L 211.19 78.71 Z" fill="#336d78" fill-rule="evenodd" group-id="1" id="路径-23" node-id="23" stroke="none" target-height="65.06835" target-width="105.497284" target-x="142.96321" target-y="40.0232"></path><path d="M 211.19 78.71 L 208.34 79.93 L 204.97 81.07 L 201.03 82.10 L 194.97 83.34 L 188.27 84.40 L 174.61 86.12 L 161.81 87.77 L 156.06 88.78 L 151.58 89.87 L 148.80 90.86 L 146.90 91.88 L 145.67 92.93 L 144.04 95.18 L 143.20 97.13 L 142.96 98.86 L 143.25 100.45 L 144.08 101.99 L 145.56 103.53 L 147.90 105.09 L 162.82 103.82 L 175.74 102.18 L 186.86 100.24 L 196.35 98.05 L 204.41 95.65 L 211.18 93.09 L 216.83 90.40 L 221.50 87.61 L 225.30 84.73 L 228.35 81.76 L 230.73 78.71 L 237.04 68.94 L 241.55 61.24 L 244.60 55.26 L 246.50 50.70 L 247.52 47.30 L 248.00 46.14 L 248.33 44.54 L 248.46 42.37 L 248.26 40.88 L 247.82 40.21 L 247.15 40.02 L 246.07 40.37 L 239.83 52.09 L 235.45 59.25 L 232.48 63.19 L 228.68 67.21 L 225.43 70.15 L 222.11 72.65 L 218.79 74.74 L 211.19 78.71 Z" fill="#336d78" fill-rule="evenodd" group-id="1" id="路径-23" node-id="24" stroke="none" target-height="65.06835" target-width="105.497284" target-x="142.96321" target-y="40.0232"></path><path d="M 111.80 106.25 L 114.84 103.62 L 116.59 102.49 L 117.52 102.21 L 125.58 102.21 L 125.68 102.35 L 125.29 103.02 L 123.61 104.81 L 121.40 106.59 L 120.28 107.21 L 119.49 107.40 L 117.30 107.17 L 113.57 106.25 L 110.62 108.08 L 110.07 108.24 L 110.16 107.96 L 111.80 106.25 Z" fill="#ffffff" fill-rule="evenodd" group-id="1" id="路径-24" node-id="25" stroke="none" target-height="6.0338974" target-width="15.60833" target-x="110.0723" target-y="102.21085"></path></g></svg>