<?xml version="1.0" standalone="no"?><!DOCTYPE svg PUBLIC "-//W3C//DTD SVG 1.1//EN" "http://www.w3.org/Graphics/SVG/1.1/DTD/svg11.dtd"><svg height="400" node-id="1" sillyvg="true" template-height="400" template-width="400" version="1.1" viewBox="0 0 400 400" width="400" xmlns="http://www.w3.org/2000/svg" xmlns:xlink="http://www.w3.org/1999/xlink"><defs node-id="22"></defs><path d="M 0.00 0.00 L 400.00 0.00 L 400.00 400.00 L 0.00 400.00 Z" fill="#ffffff" fill-rule="evenodd" node-id="25" stroke="none" target-height="400" target-width="400" target-x="0" target-y="0"></path><g node-id="27"><path d="M 238.05 214.77 L 238.82 211.27 L 238.94 208.34 L 238.53 205.88 L 237.64 203.78 L 236.27 201.96 L 234.36 200.38 L 231.79 199.05 L 228.40 197.99 L 224.01 197.28 L 218.40 197.02 L 213.45 197.32 L 208.51 198.11 L 203.57 199.40 L 196.30 201.96 L 189.09 205.09 L 175.10 211.87 L 168.26 215.03 L 161.79 217.56 L 157.44 218.87 L 153.29 219.65 L 149.32 219.94 L 147.55 220.17 L 146.41 220.73 L 145.71 221.55 L 145.29 222.63 L 145.10 223.99 L 145.17 225.72 L 146.11 231.47 L 146.64 234.64 L 146.94 237.83 L 146.92 239.95 L 146.61 241.93 L 146.04 243.81 L 145.13 245.50 L 143.75 247.03 L 141.82 248.42 L 139.60 250.01 L 137.74 252.07 L 136.21 254.69 L 135.05 257.96 L 134.29 262.04 L 134.02 267.08 L 134.37 273.26 L 135.47 280.79 L 137.47 289.89 L 138.84 285.68 L 140.49 282.26 L 142.40 279.52 L 144.55 277.36 L 146.95 275.71 L 149.66 274.53 L 152.73 273.82 L 156.22 273.61 L 160.24 273.97 L 164.88 274.99 L 170.23 276.80 L 173.32 278.14 L 176.35 279.73 L 179.20 281.54 L 181.59 283.44 L 183.57 285.56 L 184.78 287.60 L 186.28 290.44 L 188.68 293.73 L 192.22 297.54 L 197.15 301.95 L 203.77 307.05 L 208.07 304.72 L 211.97 302.04 L 215.49 299.01 L 218.66 295.60 L 221.49 291.81 L 224.00 287.60 L 225.42 285.16 L 227.27 282.50 L 229.40 279.83 L 232.08 276.80 L 234.04 274.09 L 235.17 272.62 L 236.77 271.09 L 238.79 269.81 L 241.90 268.65 L 244.17 268.15 L 247.17 267.80 L 251.05 267.65 L 254.09 267.97 L 256.75 268.76 L 259.09 270.00 L 261.23 271.62 L 263.11 273.45 L 264.75 275.50 L 266.85 278.77 L 268.44 281.82 L 270.57 286.63 L 271.12 287.67 L 271.38 287.83 L 271.55 287.60 L 272.74 284.11 L 273.47 281.37 L 274.17 277.43 L 274.55 273.06 L 274.51 267.41 L 274.17 263.52 L 273.49 259.04 L 272.39 253.89 L 270.94 249.32 L 268.83 244.70 L 266.01 240.02 L 262.40 235.23 L 257.91 230.33 L 252.44 225.29 L 245.86 220.11 L 238.05 214.77 Z" fill="#336d78" fill-rule="evenodd" group-id="1" id="路径-15备份-3" node-id="7" stroke="none" target-height="110.02875" target-width="140.53091" target-x="134.0232" target-y="197.02048"></path><path d="M 202.60 180.54 L 203.69 177.94 L 204.02 175.84 L 203.76 174.10 L 202.95 172.58 L 201.51 171.22 L 199.24 170.01 L 195.87 169.00 L 191.06 168.29 L 184.40 168.02 L 179.45 168.32 L 174.51 169.11 L 169.57 170.40 L 162.30 172.96 L 155.09 176.09 L 141.10 182.87 L 134.26 186.03 L 127.79 188.56 L 123.44 189.87 L 119.29 190.65 L 115.32 190.94 L 113.55 191.17 L 112.41 191.73 L 111.71 192.55 L 111.29 193.63 L 111.10 194.99 L 111.17 196.72 L 112.11 202.47 L 112.64 205.64 L 112.94 208.83 L 112.92 210.95 L 112.61 212.93 L 112.04 214.81 L 111.13 216.50 L 109.75 218.03 L 107.82 219.42 L 105.60 221.01 L 103.74 223.07 L 102.21 225.69 L 101.05 228.96 L 100.29 233.04 L 100.02 238.08 L 100.37 244.26 L 101.47 251.79 L 103.47 260.89 L 106.63 256.68 L 109.87 253.20 L 113.20 250.39 L 116.62 248.18 L 120.17 246.51 L 123.86 245.37 L 127.74 244.74 L 131.84 244.63 L 136.22 245.07 L 140.90 246.11 L 145.96 247.80 L 155.70 251.37 L 162.85 253.52 L 167.93 254.61 L 171.41 254.93 L 173.71 254.74 L 175.17 254.20 L 176.05 253.42 L 202.69 223.79 L 202.60 180.54 Z" fill="#599eab" fill-rule="evenodd" group-id="1" id="路径-15备份-2" node-id="8" stroke="none" target-height="92.871216" target-width="103.9981" target-x="100.0232" target-y="168.02048"></path><path d="M 202.69 145.75 L 200.36 143.25 L 197.61 141.02 L 194.37 139.06 L 190.59 137.37 L 186.19 135.99 L 181.09 134.93 L 175.19 134.26 L 168.40 134.02 L 163.45 134.32 L 158.51 135.11 L 153.57 136.40 L 146.30 138.96 L 139.09 142.09 L 125.10 148.87 L 118.26 152.03 L 111.79 154.56 L 107.44 155.87 L 103.29 156.65 L 99.32 156.94 L 97.14 157.17 L 95.44 157.73 L 94.10 158.58 L 92.44 160.38 L 91.06 162.76 L 88.63 168.36 L 87.17 171.31 L 85.24 174.27 L 83.69 176.06 L 81.74 177.76 L 79.33 179.37 L 76.62 181.23 L 74.20 183.62 L 72.05 186.61 L 70.18 190.28 L 68.62 194.76 L 67.41 200.17 L 66.62 206.67 L 66.34 214.43 L 70.10 211.03 L 73.95 208.28 L 77.90 206.13 L 81.97 204.53 L 86.20 203.47 L 90.62 202.94 L 95.27 202.96 L 100.20 203.56 L 105.44 204.77 L 111.04 206.68 L 122.05 210.70 L 132.42 213.93 L 142.18 216.43 L 151.38 218.24 L 160.05 219.42 L 202.77 189.00 L 202.69 145.75 Z" fill="#75c5aa" fill-rule="evenodd" group-id="1" id="路径-15备份" node-id="9" stroke="none" target-height="85.40161" target-width="136.42717" target-x="66.33983" target-y="134.02048"></path><g node-id="28"><path d="M 201.44 180.54 L 200.35 177.94 L 200.02 175.84 L 200.29 174.10 L 201.10 172.58 L 202.54 171.22 L 204.80 170.01 L 208.17 169.00 L 212.99 168.29 L 219.65 168.02 L 224.60 168.32 L 229.53 169.11 L 234.47 170.40 L 241.74 172.96 L 248.96 176.09 L 262.94 182.87 L 269.78 186.03 L 276.25 188.56 L 280.61 189.87 L 284.75 190.65 L 288.72 190.94 L 290.49 191.17 L 291.63 191.73 L 292.34 192.55 L 292.75 193.63 L 292.94 194.99 L 292.87 196.72 L 291.93 202.47 L 291.40 205.64 L 291.11 208.83 L 291.13 210.95 L 291.43 212.93 L 292.00 214.81 L 292.92 216.50 L 294.29 218.03 L 296.22 219.42 L 298.45 221.01 L 300.31 223.07 L 301.83 225.69 L 303.00 228.96 L 303.76 233.04 L 304.02 238.08 L 303.67 244.26 L 302.58 251.79 L 300.57 260.89 L 297.42 256.68 L 294.17 253.20 L 290.85 250.39 L 287.42 248.18 L 283.88 246.51 L 280.18 245.37 L 276.30 244.74 L 272.20 244.63 L 267.83 245.07 L 263.14 246.11 L 258.09 247.80 L 248.34 251.37 L 241.19 253.52 L 236.12 254.61 L 232.63 254.93 L 230.33 254.74 L 228.87 254.20 L 227.99 253.42 L 201.36 223.79 L 201.44 180.54 Z" fill="#599eab" fill-rule="evenodd" group-id="1,2" id="路径-15备份-2" node-id="10" stroke="none" target-height="92.871216" target-width="103.99814" target-x="200.02301" target-y="168.02048"></path></g><path d="M 202.69 102.75 L 200.36 100.25 L 197.61 98.02 L 194.37 96.06 L 190.59 94.37 L 186.19 92.99 L 181.09 91.93 L 175.19 91.26 L 168.40 91.02 L 164.30 91.36 L 160.24 92.26 L 156.17 93.76 L 152.24 95.67 L 148.31 97.95 L 144.36 100.61 L 138.64 104.92 L 132.98 109.51 L 122.01 118.41 L 116.56 122.29 L 111.43 125.26 L 107.90 126.78 L 104.52 127.67 L 101.24 128.00 L 98.14 128.27 L 96.25 128.87 L 94.72 129.83 L 93.58 130.95 L 91.21 133.42 L 89.63 134.50 L 87.14 135.50 L 84.12 136.10 L 79.33 136.37 L 77.97 136.12 L 75.22 135.06 L 70.29 132.60 L 62.17 128.00 L 62.44 134.29 L 63.22 139.73 L 64.43 144.43 L 66.04 148.48 L 68.02 151.96 L 70.35 154.94 L 73.06 157.48 L 76.16 159.59 L 80.14 161.78 L 82.99 163.12 L 85.66 164.06 L 87.94 164.52 L 90.25 164.66 L 92.97 164.57 L 100.02 164.03 L 104.61 163.79 L 111.04 163.68 L 117.28 163.91 L 123.74 164.63 L 130.44 165.85 L 137.39 167.61 L 144.63 169.93 L 152.18 172.85 L 160.05 176.42 L 202.77 146.00 L 202.69 102.75 Z" fill="#a7ddcb" fill-rule="evenodd" group-id="1" id="路径-15" node-id="11" stroke="none" target-height="85.40162" target-width="140.59598" target-x="62.17103" target-y="91.02047"></path><path d="M 201.42 145.75 L 203.74 143.25 L 206.50 141.02 L 209.74 139.06 L 213.52 137.37 L 217.92 135.99 L 223.02 134.93 L 228.92 134.26 L 235.71 134.02 L 240.66 134.32 L 245.59 135.11 L 250.53 136.40 L 257.81 138.96 L 265.02 142.09 L 279.00 148.87 L 285.85 152.03 L 292.31 154.56 L 296.67 155.87 L 300.82 156.65 L 304.79 156.94 L 306.96 157.17 L 308.67 157.73 L 310.00 158.58 L 311.67 160.38 L 313.05 162.76 L 315.48 168.36 L 316.94 171.31 L 318.87 174.27 L 320.42 176.06 L 322.37 177.76 L 324.78 179.37 L 327.49 181.23 L 329.91 183.62 L 332.05 186.61 L 333.92 190.28 L 335.49 194.76 L 336.69 200.17 L 337.48 206.67 L 337.77 214.43 L 334.01 211.03 L 330.16 208.28 L 326.21 206.13 L 322.14 204.53 L 317.91 203.47 L 313.49 202.94 L 308.84 202.96 L 303.91 203.56 L 298.67 204.77 L 293.07 206.68 L 282.06 210.70 L 271.69 213.93 L 261.93 216.43 L 252.73 218.24 L 244.06 219.42 L 201.34 189.00 L 201.42 145.75 Z" fill="#75c5aa" fill-rule="evenodd" group-id="1,3" id="路径-15备份" node-id="12" stroke="none" target-height="85.40161" target-width="136.42719" target-x="201.33981" target-y="134.02048"></path><path d="M 197.25 102.75 L 199.57 100.25 L 202.33 98.02 L 205.57 96.06 L 209.35 94.37 L 213.75 92.99 L 218.85 91.93 L 224.75 91.26 L 231.54 91.02 L 235.64 91.36 L 239.70 92.26 L 243.77 93.76 L 247.70 95.67 L 251.63 97.95 L 255.57 100.61 L 261.30 104.92 L 266.96 109.51 L 277.93 118.41 L 283.38 122.29 L 288.51 125.26 L 292.04 126.78 L 295.42 127.67 L 298.70 128.00 L 301.80 128.27 L 303.69 128.87 L 305.21 129.83 L 306.36 130.95 L 308.72 133.42 L 310.31 134.50 L 312.80 135.50 L 315.82 136.10 L 320.61 136.37 L 321.97 136.12 L 324.72 135.06 L 329.65 132.60 L 337.77 128.00 L 337.50 134.29 L 336.72 139.73 L 335.51 144.43 L 333.90 148.48 L 331.92 151.96 L 329.58 154.94 L 326.88 157.48 L 323.77 159.59 L 319.80 161.78 L 316.95 163.12 L 314.28 164.06 L 312.00 164.52 L 309.68 164.66 L 306.97 164.57 L 299.92 164.03 L 295.33 163.79 L 288.90 163.68 L 282.66 163.91 L 276.20 164.63 L 269.50 165.85 L 262.55 167.61 L 255.31 169.93 L 247.76 172.85 L 239.89 176.42 L 197.17 146.00 L 197.25 102.75 Z" fill="#a7ddcb" fill-rule="evenodd" group-id="1,4" id="路径-15" node-id="13" stroke="none" target-height="85.40162" target-width="140.59598" target-x="197.17102" target-y="91.02047"></path><path d="M 203.79 263.11 L 210.50 248.12 L 209.96 212.48 L 210.02 197.12 L 210.28 192.34 L 210.50 191.60 L 213.51 190.29 L 217.37 188.99 L 222.22 187.71 L 234.31 184.99 L 239.58 184.10 L 244.00 183.71 L 246.84 183.76 L 249.41 184.12 L 251.73 184.77 L 254.18 185.96 L 255.33 186.83 L 256.28 187.89 L 256.90 189.14 L 257.12 190.65 L 256.81 191.00 L 255.48 191.67 L 251.89 193.01 L 248.29 194.35 L 246.94 195.02 L 246.61 195.37 L 246.75 197.28 L 247.45 198.95 L 248.60 200.36 L 250.09 201.41 L 251.80 202.03 L 253.62 202.13 L 254.81 201.89 L 255.97 201.35 L 257.12 200.48 L 258.74 198.56 L 260.26 195.90 L 261.65 192.31 L 262.86 187.58 L 263.82 181.47 L 264.45 173.71 L 264.65 164.02 L 251.99 157.40 L 241.76 152.63 L 233.60 149.38 L 227.17 147.36 L 222.19 146.31 L 218.38 146.00 L 212.98 146.19 L 209.41 146.67 L 207.18 147.31 L 205.90 148.04 L 205.25 148.81 L 205.05 149.65 L 204.84 148.82 L 204.17 148.06 L 202.83 147.33 L 200.49 146.68 L 196.69 146.19 L 190.94 146.00 L 186.85 146.27 L 181.47 147.18 L 174.52 148.92 L 165.67 151.71 L 154.58 155.78 L 140.88 161.40 L 141.09 174.20 L 141.72 183.49 L 142.62 189.98 L 143.69 194.32 L 144.82 197.05 L 145.96 198.65 L 146.95 199.26 L 148.73 199.70 L 150.76 199.87 L 153.17 199.84 L 155.63 199.63 L 158.01 199.26 L 160.26 198.71 L 161.97 198.10 L 163.31 197.28 L 163.79 196.53 L 163.61 196.25 L 162.73 195.86 L 160.16 195.23 L 157.37 194.64 L 155.67 194.14 L 154.16 192.87 L 153.52 191.72 L 153.49 190.59 L 154.02 189.55 L 155.21 188.59 L 157.39 187.71 L 161.71 186.73 L 165.56 186.14 L 168.97 185.87 L 174.03 185.91 L 178.51 186.34 L 186.97 187.71 L 190.74 188.43 L 194.31 189.56 L 196.19 190.39 L 198.49 191.60 L 198.63 192.28 L 198.63 196.94 L 197.96 212.22 L 195.82 248.12 L 203.79 263.11 Z" fill="#599eab" fill-rule="evenodd" group-id="1,5,6" id="三角形" node-id="15" stroke="none" target-height="117.10716" target-width="123.767105" target-x="140.88356" target-y="146.00002"></path><path d="M 204.46 237.13 L 209.50 230.12 L 208.96 201.05 L 209.01 188.34 L 209.28 184.27 L 209.50 183.60 L 210.55 182.74 L 211.89 180.97 L 214.64 176.53 L 216.18 174.19 L 217.75 172.16 L 218.93 170.97 L 220.08 170.18 L 221.22 169.71 L 227.91 168.38 L 235.03 167.44 L 242.63 166.89 L 250.73 166.77 L 270.39 161.60 L 258.05 151.46 L 247.87 143.67 L 239.55 137.86 L 232.84 133.71 L 227.48 130.90 L 223.25 129.16 L 219.94 128.26 L 217.38 128.00 L 211.98 128.19 L 208.41 128.67 L 206.18 129.31 L 204.90 130.04 L 204.25 130.81 L 204.05 131.65 L 203.84 130.82 L 203.17 130.06 L 201.83 129.33 L 199.49 128.68 L 195.69 128.19 L 189.94 128.00 L 187.19 128.27 L 183.72 129.20 L 179.35 130.97 L 173.89 133.81 L 167.14 137.98 L 158.87 143.79 L 148.84 151.55 L 136.77 161.60 L 156.39 169.71 L 167.78 169.14 L 176.12 169.04 L 182.00 169.26 L 185.97 169.71 L 186.92 170.06 L 187.87 170.73 L 188.85 171.80 L 190.15 173.65 L 191.50 175.91 L 194.26 180.40 L 195.84 182.31 L 197.49 183.60 L 197.79 184.97 L 198.44 195.26 L 199.53 230.12 L 204.46 237.13 Z" fill="#336d78" fill-rule="evenodd" group-id="1,5,7" id="三角形" node-id="16" stroke="none" target-height="109.12945" target-width="133.61195" target-x="136.7733" target-y="127.99999"></path><path d="M 204.60 260.89 L 205.67 253.11 L 207.04 246.74 L 208.63 241.58 L 210.39 237.47 L 212.30 234.23 L 214.34 231.74 L 216.48 229.87 L 218.77 228.55 L 221.22 227.71 L 227.91 226.38 L 235.03 225.44 L 242.63 224.89 L 250.73 224.77 L 258.69 206.65 L 259.32 201.64 L 259.39 198.59 L 259.12 196.89 L 258.69 196.03 L 258.09 195.79 L 257.08 196.03 L 254.80 197.08 L 253.62 197.45 L 252.72 197.41 L 238.18 191.98 L 231.74 189.74 L 226.52 188.14 L 221.68 187.02 L 218.28 186.68 L 216.28 186.94 L 214.74 187.72 L 213.54 189.04 L 212.72 190.72 L 212.00 193.22 L 211.47 196.80 L 211.07 202.60 L 210.83 211.00 L 210.40 232.70 L 210.08 233.43 L 208.40 235.78 L 203.77 241.33 L 201.04 236.89 L 199.79 234.21 L 199.44 232.70 L 198.66 217.62 L 197.82 206.70 L 196.93 199.86 L 195.85 194.96 L 194.66 191.58 L 193.34 189.30 L 191.84 187.81 L 190.14 186.96 L 188.17 186.68 L 186.04 186.91 L 183.47 187.55 L 180.39 188.71 L 169.89 193.53 L 163.71 196.32 L 156.39 199.26 L 154.41 199.72 L 152.73 199.72 L 151.14 199.43 L 149.83 199.06 L 148.60 198.73 L 147.70 198.65 L 146.98 198.93 L 146.40 199.85 L 146.09 201.26 L 145.96 204.03 L 146.19 207.16 L 146.92 210.55 L 148.22 214.25 L 150.16 218.31 L 152.84 222.78 L 156.39 227.71 L 167.78 227.14 L 176.12 227.04 L 182.00 227.26 L 185.97 227.71 L 187.66 228.30 L 189.56 229.67 L 191.76 232.09 L 194.31 235.94 L 197.27 241.67 L 200.69 249.79 L 204.60 260.89 Z" fill="#75c5aa" fill-rule="evenodd" group-id="1,5,8" id="三角形备份" node-id="17" stroke="none" target-height="74.21025" target-width="113.43216" target-x="145.95715" target-y="186.68144"></path><path d="M 203.77 279.00 L 206.99 278.98 L 210.02 278.79 L 213.01 278.20 L 216.26 276.93 L 218.34 275.75 L 220.74 274.00 L 223.51 271.58 L 227.57 267.32 L 232.79 260.89 L 237.44 254.52 L 241.23 248.82 L 244.25 243.75 L 246.96 238.44 L 248.64 234.25 L 249.51 230.97 L 249.71 228.43 L 249.36 226.68 L 248.59 225.48 L 247.37 224.68 L 243.38 223.36 L 240.08 222.56 L 237.36 222.17 L 233.38 222.07 L 230.28 222.45 L 224.98 223.84 L 222.61 224.44 L 220.28 224.68 L 218.23 224.92 L 216.31 225.65 L 214.46 226.90 L 212.67 228.76 L 210.91 231.39 L 209.21 234.95 L 207.59 239.66 L 206.11 245.75 L 204.81 253.47 L 203.77 263.11 L 203.65 253.46 L 203.05 245.75 L 202.10 239.69 L 200.87 235.00 L 199.44 231.46 L 197.87 228.84 L 196.17 226.96 L 194.35 225.69 L 192.37 224.94 L 190.17 224.68 L 185.03 224.34 L 182.22 224.12 L 178.94 224.01 L 175.47 224.16 L 171.24 224.72 L 166.79 225.73 L 161.27 227.51 L 160.25 228.12 L 159.61 228.96 L 159.30 230.08 L 159.38 231.61 L 159.89 233.65 L 160.86 236.20 L 162.43 239.38 L 165.12 244.11 L 168.49 249.57 L 175.59 260.89 L 178.92 265.80 L 182.08 269.57 L 185.08 272.39 L 188.41 274.81 L 191.58 276.56 L 194.63 277.71 L 197.81 278.48 L 200.85 278.90 L 203.77 279.00 Z" fill="#a7ddcb" fill-rule="evenodd" group-id="1,5,9" id="三角形备份-2" node-id="18" stroke="none" target-height="56.929962" target-width="90.40932" target-x="159.30334" target-y="222.07004"></path><path d="M 160.05 192.24 L 168.31 190.99 L 173.66 190.65 L 176.92 190.90 L 178.75 191.47 L 179.67 192.24 L 181.04 194.56 L 183.09 199.04 L 186.05 206.65 L 179.42 205.33 L 174.74 204.03 L 171.57 202.77 L 169.56 201.60 L 166.97 199.49 L 163.84 196.44 L 160.05 192.24 Z" fill="#336d78" fill-rule="evenodd" group-id="1,5" id="路径-9" node-id="19" stroke="none" target-height="16" target-width="26" target-x="160.05054" target-y="190.65005"></path><path d="M 249.05 192.24 L 240.80 190.99 L 235.44 190.65 L 232.18 190.90 L 230.35 191.47 L 229.43 192.24 L 228.06 194.56 L 226.01 199.04 L 223.05 206.65 L 229.68 205.33 L 234.36 204.03 L 237.53 202.77 L 239.55 201.60 L 242.13 199.49 L 245.26 196.44 L 249.05 192.24 Z" fill="#336d78" fill-rule="evenodd" group-id="1,5,10" id="路径-9备份" node-id="20" stroke="none" target-height="16" target-width="26" target-x="223.05054" target-y="190.65005"></path></g></svg>