<?xml version="1.0" standalone="no"?><!DOCTYPE svg PUBLIC "-//W3C//DTD SVG 1.1//EN" "http://www.w3.org/Graphics/SVG/1.1/DTD/svg11.dtd"><svg height="400" node-id="1" sillyvg="true" template-height="400" template-width="400" version="1.1" viewBox="0 0 400 400" width="400" xmlns="http://www.w3.org/2000/svg" xmlns:xlink="http://www.w3.org/1999/xlink"><defs node-id="29"><clipPath id="mask-2" node-id="12"><path d="M 144.00 97.00 L 143.80 97.90 L 143.19 98.82 L 142.06 99.82 L 140.19 100.89 L 137.63 101.95 L 134.23 103.02 L 129.79 104.07 L 122.88 105.26 L 114.38 106.21 L 105.45 106.79 L 95.50 107.00 L 85.55 106.79 L 76.62 106.21 L 68.12 105.26 L 61.21 104.07 L 56.77 103.02 L 53.37 101.95 L 50.81 100.89 L 48.94 99.82 L 47.81 98.82 L 47.20 97.90 L 47.00 97.00 L 47.20 96.10 L 47.81 95.18 L 48.94 94.18 L 50.81 93.11 L 53.37 92.05 L 56.77 90.98 L 61.21 89.93 L 68.12 88.74 L 76.62 87.79 L 85.55 87.21 L 95.50 87.00 L 105.45 87.21 L 114.38 87.79 L 122.88 88.74 L 129.79 89.93 L 134.23 90.98 L 137.63 92.05 L 140.19 93.11 L 142.06 94.18 L 143.19 95.18 L 143.80 96.10 L 144.00 97.00 Z" fill="#000000" fill-rule="evenodd" node-id="34" stroke="none" target-height="20" target-width="97" target-x="47" target-y="87"></path></clipPath><clipPath id="mask-4" node-id="18"><path d="M 354.00 97.00 L 353.80 97.90 L 353.19 98.82 L 352.06 99.82 L 350.19 100.89 L 347.63 101.95 L 344.23 103.02 L 339.79 104.07 L 332.88 105.26 L 324.38 106.21 L 315.45 106.79 L 305.50 107.00 L 295.55 106.79 L 286.62 106.21 L 278.12 105.26 L 271.21 104.07 L 266.77 103.02 L 263.37 101.95 L 260.81 100.89 L 258.94 99.82 L 257.81 98.82 L 257.20 97.90 L 257.00 97.00 L 257.20 96.10 L 257.81 95.18 L 258.94 94.18 L 260.81 93.11 L 263.37 92.05 L 266.77 90.98 L 271.21 89.93 L 278.12 88.74 L 286.62 87.79 L 295.55 87.21 L 305.50 87.00 L 315.45 87.21 L 324.38 87.79 L 332.88 88.74 L 339.79 89.93 L 344.23 90.98 L 347.63 92.05 L 350.19 93.11 L 352.06 94.18 L 353.19 95.18 L 353.80 96.10 L 354.00 97.00 Z" fill="#000000" fill-rule="evenodd" node-id="41" stroke="none" target-height="20" target-width="97" target-x="257" target-y="87"></path></clipPath></defs><path d="M 0.00 0.00 L 400.00 0.00 L 400.00 400.00 L 0.00 400.00 Z" fill="#ffffff" fill-rule="evenodd" node-id="47" stroke="none" target-height="400" target-width="400" target-x="0" target-y="0"></path><g node-id="69"><g node-id="70"><path d="M 95.50 121.00 L 105.45 120.79 L 114.38 120.21 L 122.88 119.26 L 129.79 118.07 L 134.23 117.02 L 137.63 115.95 L 140.19 114.89 L 142.06 113.82 L 143.19 112.82 L 143.80 111.90 L 144.00 111.00 L 144.00 97.00 L 127.74 98.91 L 114.50 100.14 L 103.88 100.80 L 95.50 101.00 L 85.36 100.67 L 69.76 99.45 L 47.00 97.00 L 47.00 111.00 L 47.20 111.90 L 47.81 112.82 L 48.94 113.82 L 50.81 114.89 L 53.37 115.95 L 56.77 117.02 L 61.21 118.07 L 68.12 119.26 L 76.62 120.21 L 85.55 120.79 L 95.50 121.00 Z" fill="#baeddc" fill-rule="evenodd" group-id="1,2" id="椭圆形备份" node-id="11" stroke="none" target-height="24" target-width="97" target-x="47" target-y="97"></path><g node-id="74"><path d="M 144.00 97.00 L 143.80 97.90 L 143.19 98.82 L 142.06 99.82 L 140.19 100.89 L 137.63 101.95 L 134.23 103.02 L 129.79 104.07 L 122.88 105.26 L 114.38 106.21 L 105.45 106.79 L 95.50 107.00 L 85.55 106.79 L 76.62 106.21 L 68.12 105.26 L 61.21 104.07 L 56.77 103.02 L 53.37 101.95 L 50.81 100.89 L 48.94 99.82 L 47.81 98.82 L 47.20 97.90 L 47.00 97.00 L 47.20 96.10 L 47.81 95.18 L 48.94 94.18 L 50.81 93.11 L 53.37 92.05 L 56.77 90.98 L 61.21 89.93 L 68.12 88.74 L 76.62 87.79 L 85.55 87.21 L 95.50 87.00 L 105.45 87.21 L 114.38 87.79 L 122.88 88.74 L 129.79 89.93 L 134.23 90.98 L 137.63 92.05 L 140.19 93.11 L 142.06 94.18 L 143.19 95.18 L 143.80 96.10 L 144.00 97.00 Z" fill="#baeddc" fill-rule="evenodd" group-id="1,2,6" node-id="53" stroke="none" target-height="20" target-width="97" target-x="47" target-y="87"></path></g><g clip-path="url(#mask-2)" group-id="1,2,7" node-id="56"><path d="M 144.00 103.00 L 143.80 103.90 L 143.19 104.82 L 142.06 105.82 L 140.19 106.89 L 137.63 107.95 L 134.23 109.02 L 129.79 110.07 L 122.88 111.26 L 114.38 112.21 L 105.45 112.79 L 95.50 113.00 L 85.55 112.79 L 76.62 112.21 L 68.12 111.26 L 61.21 110.07 L 56.77 109.02 L 53.37 107.95 L 50.81 106.89 L 48.94 105.82 L 47.81 104.82 L 47.20 103.90 L 47.00 103.00 L 47.20 102.10 L 47.81 101.18 L 48.94 100.18 L 50.81 99.11 L 53.37 98.05 L 56.77 96.98 L 61.21 95.93 L 68.12 94.74 L 76.62 93.79 L 85.55 93.21 L 95.50 93.00 L 105.45 93.21 L 114.38 93.79 L 122.88 94.74 L 129.79 95.93 L 134.23 96.98 L 137.63 98.05 L 140.19 99.11 L 142.06 100.18 L 143.19 101.18 L 143.80 102.10 L 144.00 103.00 Z" fill="#336d78" fill-rule="evenodd" group-id="1,2,7" id="椭圆形备份-2" node-id="15" stroke="none" target-height="20" target-width="97" target-x="47" target-y="93"></path></g></g><g node-id="71"><path d="M 305.50 121.00 L 315.45 120.79 L 324.38 120.21 L 332.88 119.26 L 339.79 118.07 L 344.23 117.02 L 347.63 115.95 L 350.19 114.89 L 352.06 113.82 L 353.19 112.82 L 353.80 111.90 L 354.00 111.00 L 354.00 97.00 L 337.74 98.91 L 324.50 100.14 L 313.88 100.80 L 305.50 101.00 L 295.36 100.67 L 279.76 99.45 L 257.00 97.00 L 257.00 111.00 L 257.20 111.90 L 257.81 112.82 L 258.94 113.82 L 260.81 114.89 L 263.37 115.95 L 266.77 117.02 L 271.21 118.07 L 278.12 119.26 L 286.62 120.21 L 295.55 120.79 L 305.50 121.00 Z" fill="#336d78" fill-rule="evenodd" group-id="1,3" id="椭圆形备份" node-id="17" stroke="none" target-height="24" target-width="97" target-x="257" target-y="97"></path><g node-id="76"><path d="M 354.00 97.00 L 353.80 97.90 L 353.19 98.82 L 352.06 99.82 L 350.19 100.89 L 347.63 101.95 L 344.23 103.02 L 339.79 104.07 L 332.88 105.26 L 324.38 106.21 L 315.45 106.79 L 305.50 107.00 L 295.55 106.79 L 286.62 106.21 L 278.12 105.26 L 271.21 104.07 L 266.77 103.02 L 263.37 101.95 L 260.81 100.89 L 258.94 99.82 L 257.81 98.82 L 257.20 97.90 L 257.00 97.00 L 257.20 96.10 L 257.81 95.18 L 258.94 94.18 L 260.81 93.11 L 263.37 92.05 L 266.77 90.98 L 271.21 89.93 L 278.12 88.74 L 286.62 87.79 L 295.55 87.21 L 305.50 87.00 L 315.45 87.21 L 324.38 87.79 L 332.88 88.74 L 339.79 89.93 L 344.23 90.98 L 347.63 92.05 L 350.19 93.11 L 352.06 94.18 L 353.19 95.18 L 353.80 96.10 L 354.00 97.00 Z" fill="#336d78" fill-rule="evenodd" group-id="1,3,8" node-id="64" stroke="none" target-height="20" target-width="97" target-x="257" target-y="87"></path></g><g clip-path="url(#mask-4)" group-id="1,3,9" node-id="67"><path d="M 354.00 103.00 L 353.80 103.90 L 353.19 104.82 L 352.06 105.82 L 350.19 106.89 L 347.63 107.95 L 344.23 109.02 L 339.79 110.07 L 332.88 111.26 L 324.38 112.21 L 315.45 112.79 L 305.50 113.00 L 295.55 112.79 L 286.62 112.21 L 278.12 111.26 L 271.21 110.07 L 266.77 109.02 L 263.37 107.95 L 260.81 106.89 L 258.94 105.82 L 257.81 104.82 L 257.20 103.90 L 257.00 103.00 L 257.20 102.10 L 257.81 101.18 L 258.94 100.18 L 260.81 99.11 L 263.37 98.05 L 266.77 96.98 L 271.21 95.93 L 278.12 94.74 L 286.62 93.79 L 295.55 93.21 L 305.50 93.00 L 315.45 93.21 L 324.38 93.79 L 332.88 94.74 L 339.79 95.93 L 344.23 96.98 L 347.63 98.05 L 350.19 99.11 L 352.06 100.18 L 353.19 101.18 L 353.80 102.10 L 354.00 103.00 Z" fill="#baeddc" fill-rule="evenodd" group-id="1,3,9" id="椭圆形备份-2" node-id="21" stroke="none" target-height="20" target-width="97" target-x="257" target-y="93"></path></g></g><path d="M 88.00 119.00 L 100.00 119.00 L 100.00 129.00 L 88.00 129.00 Z" fill="#baeddc" fill-rule="evenodd" group-id="1" id="矩形" node-id="22" stroke="none" target-height="10" target-width="12" target-x="88" target-y="119"></path><path d="M 300.00 120.00 L 312.00 120.00 L 312.00 130.00 L 300.00 130.00 Z" fill="#336d78" fill-rule="evenodd" group-id="1" id="矩形" node-id="23" stroke="none" target-height="10" target-width="12" target-x="300" target-y="120"></path><path d="M 76.00 129.00 L 332.00 129.00 L 332.00 139.00 L 195.62 139.00 L 186.00 182.43 L 186.28 179.05 L 186.02 175.94 L 185.24 173.02 L 183.94 170.25 L 182.07 167.60 L 179.58 165.04 L 176.35 162.56 L 172.28 160.16 L 167.21 157.87 L 161.00 155.71 L 150.44 152.78 L 137.12 149.64 L 120.60 146.30 L 100.39 142.75 L 76.00 139.00 L 76.00 129.00 Z" fill="#baeddc" fill-rule="evenodd" group-id="1" id="矩形备份" node-id="24" stroke="none" target-height="53.4252" target-width="256" target-x="76" target-y="129"></path><path d="M 196.00 134.00 L 196.00 181.98 L 196.00 272.90 L 233.41 292.95 L 233.41 313.00 L 196.00 313.00 L 186.00 313.00 L 112.38 313.00 L 119.07 311.40 L 125.85 309.32 L 132.73 306.76 L 139.71 303.69 L 146.82 300.08 L 155.14 295.26 L 164.39 289.27 L 174.65 281.95 L 186.00 273.15 L 186.00 182.43 L 186.00 134.00 L 196.00 134.00 Z" fill="#baeddc" fill-rule="evenodd" group-id="1,4" id="矩形备份-2" node-id="25" stroke="none" target-height="179" target-width="121.03302" target-x="112.375946" target-y="134"></path><path d="M 222.00 134.00 L 332.00 139.00 L 315.00 139.87 L 300.14 141.12 L 287.21 142.69 L 276.04 144.55 L 266.44 146.63 L 258.25 148.90 L 251.32 151.32 L 245.12 154.04 L 239.84 156.94 L 235.38 160.00 L 231.67 163.22 L 228.61 166.59 L 226.15 170.13 L 224.24 173.85 L 222.86 177.79 L 222.00 181.98 L 222.00 272.90 L 226.80 278.38 L 232.10 283.60 L 237.94 288.57 L 244.33 293.31 L 251.32 297.79 L 258.50 301.79 L 265.86 305.30 L 273.40 308.33 L 281.14 310.90 L 289.09 313.00 L 259.41 313.00 L 222.00 313.00 L 212.00 313.00 L 177.54 313.00 L 177.54 292.95 L 212.00 273.15 L 212.00 182.43 L 212.00 134.00 L 222.00 134.00 Z" fill="#336d78" fill-rule="evenodd" group-id="1,5" id="矩形备份-3" node-id="26" stroke="none" target-height="179" target-width="154.46025" target-x="177.53975" target-y="134"></path><path d="M 204.00 129.00 L 332.00 129.00 L 332.00 139.00 L 204.00 139.00 Z" fill="#336d78" fill-rule="evenodd" group-id="1" id="矩形备份" node-id="27" stroke="none" target-height="10" target-width="128" target-x="204" target-y="129"></path></g></svg>