<?xml version="1.0" standalone="no"?><!DOCTYPE svg PUBLIC "-//W3C//DTD SVG 1.1//EN" "http://www.w3.org/Graphics/SVG/1.1/DTD/svg11.dtd"><svg height="400" node-id="1" sillyvg="true" template-height="400" template-width="400" version="1.1" viewBox="0 0 400 400" width="400" xmlns="http://www.w3.org/2000/svg" xmlns:xlink="http://www.w3.org/1999/xlink"><defs node-id="20"><clipPath id="mask-2_6" node-id="11"><path d="M 265.50 110.00 L 265.99 110.49 L 265.96 110.98 L 265.32 111.63 L 263.46 112.59 L 259.44 113.97 L 252.00 115.90 L 247.26 116.77 L 243.43 117.02 L 240.36 116.77 L 237.91 116.12 L 235.96 115.12 L 234.41 113.79 L 233.21 112.11 L 232.34 110.00 L 218.97 108.63 L 206.68 107.93 L 195.39 107.82 L 185.05 108.27 L 175.57 109.22 L 166.90 110.64 L 158.97 112.49 L 151.72 114.73 L 145.09 117.36 L 139.05 120.34 L 133.53 123.67 L 128.51 127.35 L 123.95 131.38 L 119.75 135.85 L 115.93 140.76 L 112.48 146.15 L 109.39 152.05 L 106.67 158.50 L 104.34 165.56 L 102.42 173.28 L 100.94 181.71 L 99.93 190.92 L 99.43 200.97 L 99.49 211.93 L 100.16 223.86 L 101.50 236.85 L 106.47 241.77 L 110.16 246.08 L 112.76 249.86 L 114.47 253.18 L 115.45 256.12 L 115.82 258.75 L 115.66 261.14 L 115.00 263.36 L 112.27 270.20 L 110.24 276.02 L 108.83 280.93 L 101.50 266.53 L 100.38 262.97 L 99.02 260.33 L 97.45 258.43 L 95.68 257.13 L 93.65 256.34 L 91.31 256.07 L 90.53 255.74 L 89.62 254.57 L 88.54 251.92 L 87.42 247.43 L 86.37 240.62 L 85.68 233.12 L 85.31 223.93 L 85.35 214.30 L 85.88 203.61 L 86.94 192.72 L 88.62 181.42 L 90.10 173.89 L 91.91 166.46 L 94.04 159.11 L 96.55 151.88 L 99.42 145.00 L 102.66 138.43 L 106.37 132.14 L 110.48 126.39 L 115.00 121.15 L 119.82 116.52 L 125.04 112.29 L 130.67 108.44 L 136.74 104.98 L 143.29 101.90 L 150.34 99.21 L 157.95 96.92 L 166.14 95.06 L 174.97 93.64 L 184.49 92.70 L 194.75 92.27 L 205.80 92.39 L 217.70 93.10 L 230.50 94.45 L 244.27 96.50 L 247.40 100.13 L 249.91 102.37 L 251.93 103.56 L 253.58 104.02 L 254.98 103.91 L 256.24 103.28 L 257.50 102.64 L 258.75 102.56 L 260.09 103.02 L 261.61 104.20 L 263.40 106.39 L 265.50 110.00 Z" fill="#000000" fill-rule="evenodd" node-id="25" stroke="none" target-height="188.65955" target-width="180.68312" target-x="85.30626" target-y="92.267494"></path></clipPath><clipPath id="mask-2_5" node-id="11"><path d="M 265.50 110.00 L 265.99 110.49 L 265.96 110.98 L 265.32 111.63 L 263.46 112.59 L 259.44 113.97 L 252.00 115.90 L 247.26 116.77 L 243.43 117.02 L 240.36 116.77 L 237.91 116.12 L 235.96 115.12 L 234.41 113.79 L 233.21 112.11 L 232.34 110.00 L 218.97 108.63 L 206.68 107.93 L 195.39 107.82 L 185.05 108.27 L 175.57 109.22 L 166.90 110.64 L 158.97 112.49 L 151.72 114.73 L 145.09 117.36 L 139.05 120.34 L 133.53 123.67 L 128.51 127.35 L 123.95 131.38 L 119.75 135.85 L 115.93 140.76 L 112.48 146.15 L 109.39 152.05 L 106.67 158.50 L 104.34 165.56 L 102.42 173.28 L 100.94 181.71 L 99.93 190.92 L 99.43 200.97 L 99.49 211.93 L 100.16 223.86 L 101.50 236.85 L 106.47 241.77 L 110.16 246.08 L 112.76 249.86 L 114.47 253.18 L 115.45 256.12 L 115.82 258.75 L 115.66 261.14 L 115.00 263.36 L 112.27 270.20 L 110.24 276.02 L 108.83 280.93 L 101.50 266.53 L 100.38 262.97 L 99.02 260.33 L 97.45 258.43 L 95.68 257.13 L 93.65 256.34 L 91.31 256.07 L 90.53 255.74 L 89.62 254.57 L 88.54 251.92 L 87.42 247.43 L 86.37 240.62 L 85.68 233.12 L 85.31 223.93 L 85.35 214.30 L 85.88 203.61 L 86.94 192.72 L 88.62 181.42 L 90.10 173.89 L 91.91 166.46 L 94.04 159.11 L 96.55 151.88 L 99.42 145.00 L 102.66 138.43 L 106.37 132.14 L 110.48 126.39 L 115.00 121.15 L 119.82 116.52 L 125.04 112.29 L 130.67 108.44 L 136.74 104.98 L 143.29 101.90 L 150.34 99.21 L 157.95 96.92 L 166.14 95.06 L 174.97 93.64 L 184.49 92.70 L 194.75 92.27 L 205.80 92.39 L 217.70 93.10 L 230.50 94.45 L 244.27 96.50 L 247.40 100.13 L 249.91 102.37 L 251.93 103.56 L 253.58 104.02 L 254.98 103.91 L 256.24 103.28 L 257.50 102.64 L 258.75 102.56 L 260.09 103.02 L 261.61 104.20 L 263.40 106.39 L 265.50 110.00 Z" fill="#000000" fill-rule="evenodd" node-id="25" stroke="none" target-height="188.65955" target-width="180.68312" target-x="85.30626" target-y="92.267494"></path></clipPath><clipPath id="mask-2_4" node-id="11"><path d="M 265.50 110.00 L 265.99 110.49 L 265.96 110.98 L 265.32 111.63 L 263.46 112.59 L 259.44 113.97 L 252.00 115.90 L 247.26 116.77 L 243.43 117.02 L 240.36 116.77 L 237.91 116.12 L 235.96 115.12 L 234.41 113.79 L 233.21 112.11 L 232.34 110.00 L 218.97 108.63 L 206.68 107.93 L 195.39 107.82 L 185.05 108.27 L 175.57 109.22 L 166.90 110.64 L 158.97 112.49 L 151.72 114.73 L 145.09 117.36 L 139.05 120.34 L 133.53 123.67 L 128.51 127.35 L 123.95 131.38 L 119.75 135.85 L 115.93 140.76 L 112.48 146.15 L 109.39 152.05 L 106.67 158.50 L 104.34 165.56 L 102.42 173.28 L 100.94 181.71 L 99.93 190.92 L 99.43 200.97 L 99.49 211.93 L 100.16 223.86 L 101.50 236.85 L 106.47 241.77 L 110.16 246.08 L 112.76 249.86 L 114.47 253.18 L 115.45 256.12 L 115.82 258.75 L 115.66 261.14 L 115.00 263.36 L 112.27 270.20 L 110.24 276.02 L 108.83 280.93 L 101.50 266.53 L 100.38 262.97 L 99.02 260.33 L 97.45 258.43 L 95.68 257.13 L 93.65 256.34 L 91.31 256.07 L 90.53 255.74 L 89.62 254.57 L 88.54 251.92 L 87.42 247.43 L 86.37 240.62 L 85.68 233.12 L 85.31 223.93 L 85.35 214.30 L 85.88 203.61 L 86.94 192.72 L 88.62 181.42 L 90.10 173.89 L 91.91 166.46 L 94.04 159.11 L 96.55 151.88 L 99.42 145.00 L 102.66 138.43 L 106.37 132.14 L 110.48 126.39 L 115.00 121.15 L 119.82 116.52 L 125.04 112.29 L 130.67 108.44 L 136.74 104.98 L 143.29 101.90 L 150.34 99.21 L 157.95 96.92 L 166.14 95.06 L 174.97 93.64 L 184.49 92.70 L 194.75 92.27 L 205.80 92.39 L 217.70 93.10 L 230.50 94.45 L 244.27 96.50 L 247.40 100.13 L 249.91 102.37 L 251.93 103.56 L 253.58 104.02 L 254.98 103.91 L 256.24 103.28 L 257.50 102.64 L 258.75 102.56 L 260.09 103.02 L 261.61 104.20 L 263.40 106.39 L 265.50 110.00 Z" fill="#000000" fill-rule="evenodd" node-id="25" stroke="none" target-height="188.65955" target-width="180.68312" target-x="85.30626" target-y="92.267494"></path></clipPath><clipPath id="mask-2" node-id="11"><path d="M 189.50 38.00 C 191.67 39.32 187.17 41.29 176.00 43.90 C 164.83 46.52 158.27 44.55 156.34 38.00 C 105.26 31.72 69.13 38.84 47.95 59.38 C 26.77 79.92 19.28 115.07 25.50 164.85 C 37.36 175.77 41.86 184.61 39.00 191.36 C 36.14 198.12 34.09 203.98 32.83 208.93 L 25.50 194.53 C 23.85 187.56 20.45 184.07 15.31 184.07 C 7.60 184.07 0.66 89.15 39.00 49.15 C 64.56 22.48 107.65 14.27 168.27 24.50 C 173.42 31.11 177.40 33.37 180.24 31.28 C 183.07 29.19 186.16 31.43 189.50 38.00 Z" fill="#000000" fill-rule="evenodd" node-id="25" stroke="none" target-height="194.65904" target-width="191.01381" target-x="0.65902203" target-y="14.267989"></path></clipPath></defs><path d="M 0.00 0.00 L 400.00 0.00 L 400.00 400.00 L 0.00 400.00 Z" fill="#ffffff" fill-rule="evenodd" node-id="31" stroke="none" target-height="400" target-width="400" target-x="0" target-y="0"></path><g node-id="50"><path d="M 85.27 83.00 L 279.81 288.06 L 281.40 297.22 L 298.17 317.43 L 300.36 300.62 L 316.70 300.62 L 298.17 282.42 L 288.60 280.89 L 87.63 81.30 L 93.76 81.30 L 96.54 79.77 L 76.34 72.69 L 81.52 87.58 L 82.52 90.24 L 84.30 87.58 Z" fill="#599eab" fill-rule="evenodd" group-id="1" id="路径-22" node-id="9" stroke="none" target-height="244.73792" target-width="240.3613" target-x="76.33964" target-y="72.6907"></path><path d="M 101.50 279.53 L 301.05 302.58 L 303.75 300.47 L 270.50 101.00 L 266.03 101.00 L 299.20 283.32 L 301.25 285.49 L 303.75 300.47 L 302.29 300.47 L 101.50 274.89 L 101.50 279.53 Z" fill="#336d78" fill-rule="evenodd" group-id="1" id="路径-21" node-id="10" stroke="none" target-height="201.58408" target-width="202.25311" target-x="101.5" target-y="101"></path><g node-id="51"><path d="M 265.50 110.00 L 265.99 110.49 L 265.96 110.98 L 265.32 111.63 L 263.46 112.59 L 259.44 113.97 L 252.00 115.90 L 247.26 116.77 L 243.43 117.02 L 240.36 116.77 L 237.91 116.12 L 235.96 115.12 L 234.41 113.79 L 233.21 112.11 L 232.34 110.00 L 218.97 108.63 L 206.68 107.93 L 195.39 107.82 L 185.05 108.27 L 175.57 109.22 L 166.90 110.64 L 158.97 112.49 L 151.72 114.73 L 145.09 117.36 L 139.05 120.34 L 133.53 123.67 L 128.51 127.35 L 123.95 131.38 L 119.75 135.85 L 115.93 140.76 L 112.48 146.15 L 109.39 152.05 L 106.67 158.50 L 104.34 165.56 L 102.42 173.28 L 100.94 181.71 L 99.93 190.92 L 99.43 200.97 L 99.49 211.93 L 100.16 223.86 L 101.50 236.85 L 106.47 241.77 L 110.16 246.08 L 112.76 249.86 L 114.47 253.18 L 115.45 256.12 L 115.82 258.75 L 115.66 261.14 L 115.00 263.36 L 112.27 270.20 L 110.24 276.02 L 108.83 280.93 L 101.50 266.53 L 100.38 262.97 L 99.02 260.33 L 97.45 258.43 L 95.68 257.13 L 93.65 256.34 L 91.31 256.07 L 90.53 255.74 L 89.62 254.57 L 88.54 251.92 L 87.42 247.43 L 86.37 240.62 L 85.68 233.12 L 85.31 223.93 L 85.35 214.30 L 85.88 203.61 L 86.94 192.72 L 88.62 181.42 L 90.10 173.89 L 91.91 166.46 L 94.04 159.11 L 96.55 151.88 L 99.42 145.00 L 102.66 138.43 L 106.37 132.14 L 110.48 126.39 L 115.00 121.15 L 119.82 116.52 L 125.04 112.29 L 130.67 108.44 L 136.74 104.98 L 143.29 101.90 L 150.34 99.21 L 157.95 96.92 L 166.14 95.06 L 174.97 93.64 L 184.49 92.70 L 194.75 92.27 L 205.80 92.39 L 217.70 93.10 L 230.50 94.45 L 244.27 96.50 L 247.40 100.13 L 249.91 102.37 L 251.93 103.56 L 253.58 104.02 L 254.98 103.91 L 256.24 103.28 L 257.50 102.64 L 258.75 102.56 L 260.09 103.02 L 261.61 104.20 L 263.40 106.39 L 265.50 110.00 Z" fill="#336d78" fill-rule="evenodd" group-id="1,2" node-id="37" stroke="none" target-height="188.65955" target-width="180.68312" target-x="85.30626" target-y="92.267494"></path></g><g node-id="52"><g clip-path="url(#mask-2_4)" group-id="1,3" node-id="40"><path d="M 238.00 151.50 L 237.69 158.85 L 236.83 165.94 L 235.43 172.81 L 233.49 179.47 L 231.02 185.99 L 228.11 192.20 L 224.74 198.12 L 220.92 203.77 L 216.68 209.11 L 212.08 214.08 L 207.11 218.68 L 201.77 222.92 L 196.12 226.74 L 190.20 230.11 L 183.99 233.02 L 177.47 235.49 L 170.81 237.43 L 163.94 238.83 L 156.85 239.69 L 149.50 240.00 L 142.15 239.69 L 135.06 238.83 L 128.19 237.43 L 121.53 235.49 L 115.01 233.02 L 108.80 230.11 L 102.88 226.74 L 97.23 222.92 L 91.89 218.68 L 86.92 214.08 L 82.32 209.11 L 78.08 203.77 L 74.26 198.12 L 70.89 192.20 L 67.98 185.99 L 65.51 179.47 L 63.57 172.81 L 62.17 165.94 L 61.31 158.85 L 61.00 151.50 L 61.31 144.15 L 62.17 137.06 L 63.57 130.19 L 65.51 123.53 L 67.98 117.01 L 70.89 110.80 L 74.26 104.88 L 78.08 99.23 L 82.32 93.89 L 86.92 88.92 L 91.89 84.32 L 97.23 80.08 L 102.88 76.26 L 108.80 72.89 L 115.01 69.98 L 121.53 67.51 L 128.19 65.57 L 135.06 64.17 L 142.15 63.31 L 149.50 63.00 L 156.85 63.31 L 163.94 64.17 L 170.81 65.57 L 177.47 67.51 L 183.99 69.98 L 190.20 72.89 L 196.12 76.26 L 201.77 80.08 L 207.11 84.32 L 212.08 88.92 L 216.68 93.89 L 220.92 99.23 L 224.74 104.88 L 228.11 110.80 L 231.02 117.01 L 233.49 123.53 L 235.43 130.19 L 236.83 137.06 L 237.69 144.15 L 238.00 151.50 Z" fill="#599eab" fill-rule="evenodd" group-id="1,3" id="椭圆形" node-id="14" stroke="none" target-height="177" target-width="177" target-x="61" target-y="63"></path></g></g><g node-id="53"><g clip-path="url(#mask-2_5)" group-id="1,4" node-id="44"><path d="M 200.00 98.50 L 199.69 105.85 L 198.83 112.94 L 197.43 119.81 L 195.49 126.47 L 193.02 132.99 L 190.11 139.20 L 186.74 145.12 L 182.92 150.77 L 178.68 156.11 L 174.08 161.08 L 169.11 165.68 L 163.77 169.92 L 158.12 173.74 L 152.20 177.11 L 145.99 180.02 L 139.47 182.49 L 132.81 184.43 L 125.94 185.83 L 118.85 186.69 L 111.50 187.00 L 104.15 186.69 L 97.06 185.83 L 90.19 184.43 L 83.53 182.49 L 77.01 180.02 L 70.80 177.11 L 64.88 173.74 L 59.23 169.92 L 53.89 165.68 L 48.92 161.08 L 44.32 156.11 L 40.08 150.77 L 36.26 145.12 L 32.89 139.20 L 29.98 132.99 L 27.51 126.47 L 25.57 119.81 L 24.17 112.94 L 23.31 105.85 L 23.00 98.50 L 23.31 91.15 L 24.17 84.06 L 25.57 77.19 L 27.51 70.53 L 29.98 64.01 L 32.89 57.80 L 36.26 51.88 L 40.08 46.23 L 44.32 40.89 L 48.92 35.92 L 53.89 31.32 L 59.23 27.08 L 64.88 23.26 L 70.80 19.89 L 77.01 16.98 L 83.53 14.51 L 90.19 12.57 L 97.06 11.17 L 104.15 10.31 L 111.50 10.00 L 118.85 10.31 L 125.94 11.17 L 132.81 12.57 L 139.47 14.51 L 145.99 16.98 L 152.20 19.89 L 158.12 23.26 L 163.77 27.08 L 169.11 31.32 L 174.08 35.92 L 178.68 40.89 L 182.92 46.23 L 186.74 51.88 L 190.11 57.80 L 193.02 64.01 L 195.49 70.53 L 197.43 77.19 L 198.83 84.06 L 199.69 91.15 L 200.00 98.50 Z" fill="#75c5aa" fill-rule="evenodd" group-id="1,4" id="椭圆形备份-2" node-id="15" stroke="none" target-height="177" target-width="177" target-x="23" target-y="10"></path></g></g><g node-id="54"><g clip-path="url(#mask-2_6)" group-id="1,5" node-id="48"><path d="M 161.00 101.00 L 160.72 106.19 L 159.97 111.15 L 158.75 115.90 L 157.07 120.46 L 154.94 124.87 L 152.45 128.97 L 149.59 132.79 L 146.36 136.36 L 142.79 139.59 L 138.97 142.45 L 134.87 144.94 L 130.46 147.07 L 125.90 148.75 L 121.15 149.97 L 116.19 150.72 L 111.00 151.00 L 105.81 150.72 L 100.85 149.97 L 96.10 148.75 L 91.54 147.07 L 87.13 144.94 L 83.03 142.45 L 79.21 139.59 L 75.64 136.36 L 72.41 132.79 L 69.55 128.97 L 67.06 124.87 L 64.93 120.46 L 63.25 115.90 L 62.03 111.15 L 61.28 106.19 L 61.00 101.00 L 61.28 95.81 L 62.03 90.85 L 63.25 86.10 L 64.93 81.54 L 67.06 77.13 L 69.55 73.03 L 72.41 69.21 L 75.64 65.64 L 79.21 62.41 L 83.03 59.55 L 87.13 57.06 L 91.54 54.93 L 96.10 53.25 L 100.85 52.03 L 105.81 51.28 L 111.00 51.00 L 116.19 51.28 L 121.15 52.03 L 125.90 53.25 L 130.46 54.93 L 134.87 57.06 L 138.97 59.55 L 142.79 62.41 L 146.36 65.64 L 149.59 69.21 L 152.45 73.03 L 154.94 77.13 L 157.07 81.54 L 158.75 86.10 L 159.97 90.85 L 160.72 95.81 L 161.00 101.00 Z" fill="#a7ddcb" fill-rule="evenodd" group-id="1,5" id="椭圆形备份-3" node-id="16" stroke="none" target-height="100" target-width="100" target-x="61" target-y="51"></path></g></g><path d="M 279.00 96.50 L 278.77 98.96 L 278.16 101.22 L 277.16 103.31 L 275.82 105.21 L 274.21 106.82 L 272.31 108.16 L 270.22 109.16 L 267.96 109.77 L 265.50 110.00 L 263.04 109.77 L 260.78 109.16 L 258.69 108.16 L 256.79 106.82 L 255.18 105.21 L 253.84 103.31 L 252.84 101.22 L 252.23 98.96 L 252.00 96.50 L 252.23 94.04 L 252.84 91.78 L 253.84 89.69 L 255.18 87.79 L 256.79 86.18 L 258.69 84.84 L 260.78 83.84 L 263.04 83.23 L 265.50 83.00 L 267.96 83.23 L 270.22 83.84 L 272.31 84.84 L 274.21 86.18 L 275.82 87.79 L 277.16 89.69 L 278.16 91.78 L 278.77 94.04 L 279.00 96.50 Z" fill="#336d78" fill-rule="evenodd" group-id="1" id="椭圆形" node-id="17" stroke="none" target-height="27" target-width="27" target-x="252" target-y="83"></path><path d="M 115.00 273.50 L 114.77 275.96 L 114.16 278.22 L 113.16 280.31 L 111.82 282.21 L 110.21 283.82 L 108.31 285.16 L 106.22 286.16 L 103.96 286.77 L 101.50 287.00 L 99.04 286.77 L 96.78 286.16 L 94.69 285.16 L 92.79 283.82 L 91.18 282.21 L 89.84 280.31 L 88.84 278.22 L 88.23 275.96 L 88.00 273.50 L 88.23 271.04 L 88.84 268.78 L 89.84 266.69 L 91.18 264.79 L 92.79 263.18 L 94.69 261.84 L 96.78 260.84 L 99.04 260.23 L 101.50 260.00 L 103.96 260.23 L 106.22 260.84 L 108.31 261.84 L 110.21 263.18 L 111.82 264.79 L 113.16 266.69 L 114.16 268.78 L 114.77 271.04 L 115.00 273.50 Z" fill="#336d78" fill-rule="evenodd" group-id="1" id="椭圆形备份" node-id="18" stroke="none" target-height="27" target-width="27" target-x="88" target-y="260"></path></g></svg>