<?xml version="1.0" standalone="no"?><!DOCTYPE svg PUBLIC "-//W3C//DTD SVG 1.1//EN" "http://www.w3.org/Graphics/SVG/1.1/DTD/svg11.dtd"><svg height="400" node-id="1" sillyvg="true" template-height="400" template-width="400" version="1.1" viewBox="0 0 400 400" width="400" xmlns="http://www.w3.org/2000/svg" xmlns:xlink="http://www.w3.org/1999/xlink"><defs node-id="27"></defs><path d="M 0.00 0.00 L 400.00 0.00 L 400.00 400.00 L 0.00 400.00 Z" fill="#ffffff" fill-rule="evenodd" node-id="30" stroke="none" target-height="400" target-width="400" target-x="0" target-y="0"></path><g node-id="32"><g node-id="33"><path d="M 252.05 171.44 L 252.39 171.42 L 252.97 172.02 L 254.17 174.08 L 255.37 176.13 L 255.94 176.74 L 256.27 176.72 L 262.97 170.03 L 269.92 162.41 L 277.13 153.79 L 284.62 144.09 L 292.40 133.22 L 291.29 118.33 L 285.36 113.00 L 282.45 104.72 L 279.30 97.42 L 275.94 91.00 L 272.37 85.38 L 268.62 80.49 L 264.68 76.27 L 260.55 72.66 L 256.21 69.62 L 248.66 65.19 L 240.17 60.77 L 230.68 56.35 L 220.11 51.94 L 208.37 47.57 L 227.50 65.64 L 238.38 76.55 L 243.75 82.56 L 245.81 85.47 L 246.21 86.67 L 245.94 87.10 L 244.74 87.13 L 241.28 86.16 L 233.54 82.99 L 218.80 76.01 L 193.67 63.21 L 198.84 72.52 L 203.87 80.61 L 208.77 87.59 L 213.54 93.57 L 218.19 98.62 L 222.73 102.86 L 227.17 106.34 L 231.51 109.15 L 235.79 111.35 L 240.01 112.98 L 244.21 114.08 L 252.51 116.00 L 258.62 117.88 L 262.98 119.69 L 265.96 121.42 L 267.88 123.04 L 269.00 124.58 L 269.51 126.09 L 269.51 127.62 L 274.81 131.07 L 274.40 132.18 L 272.91 134.78 L 269.44 139.88 L 262.96 148.32 L 249.18 164.99 L 241.30 175.66 L 237.93 180.85 L 236.98 182.93 L 237.02 183.56 L 237.52 183.62 L 239.16 182.73 L 243.34 179.42 L 252.05 171.44 Z" fill="#a7ddcb" fill-rule="evenodd" group-id="1,2" id="路径-13备份" node-id="7" stroke="none" target-height="136.05252" target-width="98.73189" target-x="193.67235" target-y="47.56794"></path></g><g node-id="34"><g node-id="36"><path d="M 247.80 237.57 L 245.26 222.06 L 225.56 184.29 L 220.14 173.23 L 219.62 171.75 L 220.95 169.59 L 222.81 167.18 L 225.28 164.51 L 228.93 161.15 L 233.02 158.00 L 237.57 155.07 L 242.63 152.36 L 246.35 146.00 L 246.97 126.89 L 233.41 126.10 L 223.13 125.93 L 215.54 126.22 L 210.11 126.84 L 206.38 127.67 L 203.93 128.61 L 200.25 130.76 L 198.17 132.49 L 197.16 133.89 L 196.87 135.07 L 197.14 136.16 L 196.42 135.32 L 195.27 134.87 L 193.47 134.89 L 190.70 135.63 L 186.55 137.47 L 184.19 138.98 L 181.16 141.61 L 177.29 145.75 L 172.40 151.83 L 166.30 160.34 L 158.76 171.83 L 184.23 185.42 L 191.20 181.23 L 196.43 178.45 L 200.25 176.76 L 202.96 175.88 L 205.68 175.31 L 208.45 175.16 L 212.02 175.62 L 212.80 176.89 L 218.11 187.85 L 235.96 226.80 L 247.80 237.57 Z" fill="#599eab" fill-rule="evenodd" group-id="1,3,5" id="三角形" node-id="9" stroke="none" target-height="111.6367" target-width="89.04901" target-x="158.75589" target-y="125.93268"></path></g><g node-id="37"><path d="M 238.69 222.01 L 236.10 206.53 L 219.94 175.68 L 215.43 166.44 L 215.00 165.12 L 215.27 164.04 L 215.31 162.01 L 215.02 157.18 L 214.92 154.59 L 214.98 152.29 L 215.36 150.24 L 216.05 149.01 L 219.66 145.67 L 223.71 142.55 L 228.21 139.64 L 233.21 136.96 L 243.19 126.09 L 228.86 120.22 L 217.90 116.29 L 209.70 113.88 L 203.74 112.64 L 199.52 112.26 L 196.64 112.48 L 194.72 113.10 L 191.09 115.22 L 189.03 116.94 L 188.03 118.33 L 187.75 119.51 L 188.02 120.61 L 187.30 119.76 L 186.15 119.31 L 184.37 119.33 L 181.62 120.05 L 177.52 121.87 L 176.00 122.92 L 174.31 124.73 L 172.43 127.54 L 170.32 131.66 L 167.98 137.43 L 165.39 145.24 L 162.54 155.53 L 159.43 168.76 L 175.41 169.72 L 182.31 165.56 L 187.48 162.80 L 191.26 161.13 L 193.95 160.27 L 195.09 160.37 L 196.70 161.20 L 200.23 164.02 L 204.00 167.13 L 205.89 168.35 L 207.47 168.95 L 208.17 170.05 L 212.56 179.22 L 226.90 211.21 L 238.69 222.01 Z" fill="#336d78" fill-rule="evenodd" group-id="1,3,6" id="三角形" node-id="10" stroke="none" target-height="109.749115" target-width="83.75461" target-x="159.43457" target-y="112.26239"></path></g><g node-id="38"><path d="M 239.10 222.93 L 238.23 218.39 L 237.92 214.44 L 238.08 211.00 L 238.66 208.01 L 239.62 205.38 L 240.94 203.07 L 242.64 201.04 L 246.30 197.67 L 250.39 194.53 L 254.94 191.60 L 259.99 188.89 L 254.12 168.56 L 253.80 166.83 L 253.13 165.57 L 252.13 164.66 L 250.73 164.06 L 248.81 163.82 L 237.13 163.67 L 232.02 163.75 L 228.00 164.00 L 224.41 164.56 L 222.12 165.36 L 219.41 167.04 L 217.59 168.78 L 216.48 170.59 L 215.97 172.52 L 216.03 174.64 L 216.73 177.06 L 215.04 175.19 L 213.20 173.98 L 211.17 173.33 L 208.87 173.24 L 206.21 173.77 L 203.05 175.07 L 201.82 175.95 L 200.49 177.34 L 199.05 179.39 L 194.60 187.08 L 191.94 191.59 L 188.65 196.55 L 187.60 197.61 L 186.54 198.14 L 184.40 198.49 L 183.47 198.59 L 182.87 198.81 L 182.55 199.26 L 182.60 200.31 L 183.04 201.66 L 184.22 204.18 L 186.20 207.52 L 188.83 210.94 L 192.20 214.48 L 196.42 218.15 L 201.59 221.95 L 208.56 217.76 L 213.79 214.98 L 217.61 213.29 L 220.32 212.41 L 221.96 212.26 L 224.00 212.61 L 226.58 213.62 L 229.84 215.48 L 233.96 218.48 L 239.10 222.93 Z" fill="#75c5aa" fill-rule="evenodd" group-id="1,3,7" id="三角形备份" node-id="11" stroke="none" target-height="59.25914" target-width="77.435486" target-x="182.5534" target-y="163.66837"></path></g><g node-id="39"><path d="M 150.58 309.48 L 151.99 312.98 L 153.08 315.18 L 154.78 317.76 L 156.15 319.37 L 157.95 321.04 L 160.25 322.76 L 162.70 324.22 L 165.81 325.62 L 169.68 326.95 L 174.51 328.01 L 179.41 328.49 L 184.31 328.50 L 188.91 328.12 L 193.34 327.45 L 197.08 326.62 L 200.49 325.63 L 202.81 324.75 L 204.61 323.78 L 205.00 323.28 L 204.84 322.12 L 204.25 321.15 L 203.12 320.31 L 201.26 319.62 L 198.35 319.16 L 201.26 318.90 L 203.19 318.32 L 204.42 317.53 L 205.13 316.55 L 205.41 315.32 L 205.48 314.80 L 205.18 315.02 L 204.82 315.05 L 204.01 314.77 L 203.08 314.19 L 201.46 312.83 L 199.09 310.30 L 197.11 308.38 L 194.25 305.96 L 190.96 303.66 L 186.74 301.33 L 183.72 300.02 L 180.27 298.87 L 176.34 297.92 L 172.36 297.32 L 167.88 297.08 L 162.85 297.23 L 161.80 297.07 L 160.18 296.33 L 158.56 295.25 L 156.91 293.80 L 155.52 292.13 L 154.59 290.38 L 154.09 288.20 L 154.05 286.23 L 154.55 283.16 L 154.72 282.34 L 154.59 282.41 L 152.28 284.48 L 150.75 285.97 L 149.28 287.82 L 148.52 289.20 L 148.05 290.68 L 147.88 292.33 L 148.20 297.93 L 148.74 302.51 L 149.60 306.67 L 150.58 309.48 Z" fill="#a7ddcb" fill-rule="evenodd" group-id="1,3,8" id="三角形备份-8" node-id="12" stroke="none" target-height="46.154327" target-width="57.59453" target-x="147.88123" target-y="282.34283"></path></g><g node-id="40"><path d="M 256.43 252.25 L 258.28 251.12 L 259.58 249.81 L 260.48 248.14 L 261.17 245.58 L 261.54 242.53 L 261.79 237.89 L 262.05 225.08 L 262.16 214.76 L 262.05 206.51 L 261.78 201.22 L 261.32 197.21 L 260.74 194.25 L 259.98 192.07 L 259.14 190.75 L 258.22 190.03 L 257.19 189.76 L 254.06 189.86 L 251.63 190.19 L 249.77 190.71 L 247.24 191.88 L 245.46 193.21 L 242.78 196.16 L 241.56 197.46 L 240.22 198.41 L 237.55 200.07 L 235.76 201.80 L 234.67 203.60 L 234.16 205.53 L 234.23 207.66 L 234.95 210.10 L 233.25 208.21 L 231.41 206.98 L 229.39 206.32 L 227.11 206.22 L 224.47 206.74 L 221.36 208.02 L 217.98 209.36 L 216.12 210.05 L 214.02 211.00 L 211.92 212.24 L 209.52 214.10 L 207.21 216.41 L 204.55 219.78 L 204.24 220.65 L 204.39 221.70 L 205.16 223.06 L 206.89 225.02 L 209.74 227.51 L 216.92 232.88 L 225.31 238.87 L 229.56 242.05 L 233.54 245.23 L 238.21 248.91 L 241.75 251.27 L 245.14 253.00 L 247.73 253.83 L 250.21 254.10 L 252.33 253.85 L 254.37 253.21 L 256.43 252.25 Z" fill="#a7ddcb" fill-rule="evenodd" group-id="1,3,9" id="三角形备份-2" node-id="13" stroke="none" target-height="64.33922" target-width="57.919006" target-x="204.23984" target-y="189.76358"></path></g><g node-id="41"><path d="M 204.49 321.48 L 204.11 322.03 L 202.89 322.56 L 199.76 323.30 L 198.23 323.70 L 197.39 324.09 L 197.15 324.40 L 197.29 324.77 L 198.08 325.37 L 199.90 326.17 L 204.12 327.53 L 208.13 328.52 L 211.84 329.17 L 215.29 329.51 L 220.34 329.59 L 224.45 329.26 L 228.19 328.58 L 230.67 327.83 L 232.57 326.87 L 233.00 326.28 L 232.84 325.12 L 232.25 324.15 L 231.12 323.31 L 229.26 322.62 L 226.35 322.16 L 229.26 321.90 L 231.19 321.32 L 232.42 320.53 L 233.13 319.55 L 233.41 318.32 L 233.48 317.80 L 233.18 318.02 L 232.82 318.05 L 232.01 317.77 L 231.08 317.19 L 229.46 315.83 L 228.39 315.24 L 225.95 314.56 L 223.08 314.08 L 219.21 313.71 L 215.08 313.53 L 210.36 313.54 L 205.52 313.80 L 200.52 314.32 L 197.03 314.99 L 195.85 315.52 L 195.54 315.96 L 195.63 316.39 L 196.22 316.94 L 197.49 317.65 L 199.32 318.47 L 202.85 320.02 L 204.15 320.86 L 204.49 321.48 Z" fill="#75c5aa" fill-rule="evenodd" group-id="1,3,10" id="三角形备份-7" node-id="14" stroke="none" target-height="16.064514" target-width="37.93579" target-x="195.53998" target-y="313.52686"></path></g><g node-id="42"><path d="M 232.93 321.34 L 232.72 321.97 L 231.71 322.84 L 228.93 324.46 L 227.58 325.29 L 226.90 325.91 L 226.76 326.27 L 227.00 326.59 L 227.93 326.93 L 229.91 327.16 L 234.34 327.23 L 238.46 327.01 L 242.20 326.54 L 245.60 325.86 L 250.45 324.46 L 254.29 322.94 L 257.66 321.19 L 259.82 319.75 L 261.35 318.28 L 261.59 317.59 L 261.10 316.53 L 260.25 315.77 L 258.93 315.30 L 256.95 315.19 L 254.03 315.59 L 256.74 314.49 L 258.42 313.38 L 259.35 312.26 L 259.75 311.11 L 259.66 309.86 L 259.57 309.34 L 259.35 309.64 L 259.01 309.77 L 258.16 309.74 L 257.10 309.46 L 255.15 308.64 L 253.95 308.38 L 251.43 308.44 L 248.54 308.83 L 244.73 309.60 L 240.73 310.63 L 236.22 312.03 L 231.67 313.68 L 227.03 315.65 L 223.90 317.31 L 222.92 318.16 L 222.75 318.67 L 222.96 319.06 L 223.69 319.41 L 225.11 319.72 L 227.10 319.97 L 230.93 320.42 L 232.42 320.84 L 232.93 321.34 Z" fill="#599eab" fill-rule="evenodd" group-id="1,3,11" id="三角形备份-6" node-id="15" stroke="none" target-height="18.855988" target-width="38.837112" target-x="222.75313" target-y="308.37753"></path></g><g node-id="43"><path d="M 257.32 314.39 L 257.66 314.96 L 257.65 316.29 L 257.05 319.45 L 256.79 321.01 L 256.81 321.94 L 257.00 322.28 L 257.39 322.30 L 258.26 321.83 L 259.73 320.49 L 262.69 317.19 L 265.23 313.93 L 267.33 310.80 L 269.04 307.79 L 271.17 303.21 L 272.54 299.32 L 273.44 295.62 L 273.76 293.05 L 273.66 290.93 L 273.29 290.30 L 272.17 289.97 L 271.04 290.12 L 269.82 290.80 L 268.43 292.22 L 266.82 294.70 L 267.77 291.93 L 268.03 289.93 L 267.80 288.49 L 267.20 287.44 L 266.19 286.68 L 265.74 286.41 L 265.83 286.77 L 265.70 287.11 L 265.12 287.73 L 264.21 288.35 L 262.31 289.28 L 261.33 290.02 L 259.72 291.96 L 258.12 294.40 L 256.20 297.78 L 254.35 301.48 L 252.45 305.80 L 250.71 310.32 L 249.16 315.10 L 248.35 318.56 L 248.35 319.86 L 248.63 320.32 L 249.06 320.42 L 249.80 320.10 L 250.97 319.23 L 252.46 317.88 L 255.31 315.29 L 256.61 314.45 L 257.32 314.39 Z" fill="#336d78" fill-rule="evenodd" group-id="1,3,12" id="三角形备份-5" node-id="16" stroke="none" target-height="35.88965" target-width="25.413193" target-x="248.3509" target-y="286.41083"></path></g><g node-id="44"><path d="M 268.12 292.01 L 268.81 292.29 L 269.61 293.38 L 270.99 296.33 L 271.70 297.75 L 272.30 298.51 L 272.68 298.68 L 273.07 298.47 L 273.59 297.59 L 274.15 295.64 L 274.90 291.23 L 275.27 287.10 L 275.32 283.32 L 275.08 279.87 L 274.26 274.89 L 273.15 270.90 L 271.72 267.36 L 270.44 265.05 L 269.42 263.73 L 268.75 263.17 L 268.30 263.06 L 267.01 263.45 L 266.04 264.24 L 265.33 265.53 L 264.92 267.48 L 264.93 270.38 L 264.14 267.62 L 263.18 265.83 L 262.09 264.75 L 260.86 264.21 L 259.41 264.15 L 258.82 264.19 L 259.12 264.43 L 259.21 264.78 L 259.05 265.63 L 258.58 266.65 L 257.36 268.51 L 256.89 269.68 L 256.58 272.20 L 256.57 275.12 L 256.85 279.00 L 257.39 283.10 L 258.26 287.74 L 259.41 292.45 L 260.89 297.27 L 262.26 300.57 L 263.07 301.64 L 263.61 301.86 L 264.08 301.69 L 264.57 301.01 L 265.14 299.62 L 265.71 297.67 L 266.79 293.90 L 267.48 292.48 L 268.12 292.01 Z" fill="#599eab" fill-rule="evenodd" group-id="1,3,13" id="三角形备份-4" node-id="17" stroke="none" target-height="38.806854" target-width="18.75232" target-x="256.57025" target-y="263.0555"></path></g><g node-id="45"><path d="M 266.87 270.23 L 267.78 270.13 L 268.96 270.63 L 271.43 272.60 L 273.83 274.61 L 274.93 275.18 L 275.70 275.14 L 276.06 274.84 L 276.37 274.11 L 276.58 272.66 L 276.53 270.16 L 276.01 265.65 L 275.02 260.80 L 273.71 256.56 L 272.12 252.85 L 270.16 249.29 L 268.17 246.32 L 266.16 243.88 L 262.91 240.71 L 260.27 238.82 L 258.41 237.92 L 257.26 237.65 L 256.57 237.76 L 255.06 238.77 L 254.05 239.97 L 253.47 241.38 L 253.30 243.08 L 253.61 245.18 L 254.55 247.80 L 252.88 245.60 L 251.27 244.17 L 249.69 243.35 L 248.09 243.03 L 246.41 243.18 L 244.58 243.87 L 243.78 244.23 L 244.29 244.34 L 244.54 244.68 L 244.63 245.72 L 244.35 247.10 L 243.33 249.86 L 243.12 250.81 L 243.16 252.27 L 243.58 254.42 L 244.64 257.69 L 246.44 261.87 L 248.69 266.15 L 251.59 270.87 L 254.90 275.49 L 258.73 280.08 L 261.31 282.61 L 262.80 283.59 L 263.72 283.81 L 264.35 283.67 L 264.82 283.19 L 265.25 282.05 L 265.50 280.27 L 265.58 276.21 L 265.79 272.40 L 266.22 270.95 L 266.87 270.23 Z" fill="#75c5aa" fill-rule="evenodd" group-id="1,3,14" id="三角形备份-3" node-id="18" stroke="none" target-height="46.1644" target-width="33.453796" target-x="243.12155" target-y="237.64975"></path></g><path d="M 188.66 188.68 L 193.12 185.02 L 196.23 183.04 L 198.35 182.21 L 199.77 182.11 L 200.77 182.51 L 204.08 185.54 L 211.24 193.35 L 206.63 194.25 L 203.17 194.56 L 200.62 194.45 L 198.77 194.03 L 194.72 192.22 L 188.66 188.68 Z" fill="#ffffff" fill-rule="evenodd" group-id="1,3" id="路径-9" node-id="19" stroke="none" target-height="12.455917" target-width="22.582092" target-x="188.66174" target-y="182.10793"></path><path d="M 243.90 160.53 L 238.33 161.99 L 234.90 163.34 L 232.98 164.56 L 232.06 165.66 L 231.80 166.70 L 232.30 171.16 L 234.41 181.54 L 237.85 178.34 L 240.14 175.73 L 241.55 173.60 L 242.29 171.86 L 243.21 167.51 L 243.90 160.53 Z" fill="#ffffff" fill-rule="evenodd" group-id="1,3,15" id="路径-9备份" node-id="20" stroke="none" target-height="21.015152" target-width="12.104553" target-x="231.79959" target-y="160.529"></path><path d="M 209.26 209.27 L 212.99 206.25 L 215.59 204.60 L 217.35 203.91 L 218.53 203.82 L 219.34 204.13 L 222.07 206.58 L 227.94 212.90 L 223.05 213.82 L 219.75 213.95 L 217.60 213.56 L 214.25 212.11 L 209.26 209.27 Z" fill="#ffffff" fill-rule="evenodd" group-id="1,3" id="路径-9" node-id="21" stroke="none" target-height="10.131363" target-width="18.682098" target-x="209.25754" target-y="203.81572"></path><path d="M 248.46 189.30 L 243.82 190.54 L 240.96 191.67 L 239.36 192.69 L 238.60 193.59 L 238.37 194.44 L 238.76 198.08 L 240.41 206.54 L 244.03 203.12 L 246.08 200.53 L 247.03 198.56 L 247.83 195.00 L 248.46 189.30 Z" fill="#ffffff" fill-rule="evenodd" group-id="1,3,16" id="路径-9备份" node-id="22" stroke="none" target-height="17.245071" target-width="10.087128" target-x="238.3747" target-y="189.2982"></path><path d="M 229.35 228.89 L 232.67 226.32 L 234.74 225.18 L 235.99 224.90 L 236.75 225.12 L 238.69 226.79 L 242.84 231.12 L 239.27 231.85 L 236.87 231.99 L 235.33 231.76 L 232.92 230.80 L 229.35 228.89 Z" fill="#ffffff" fill-rule="evenodd" group-id="1,3" id="路径-9" node-id="23" stroke="none" target-height="7.089432" target-width="13.482056" target-x="229.3544" target-y="224.9029"></path><path d="M 251.63 217.54 L 247.61 218.71 L 245.46 219.72 L 244.50 220.57 L 244.23 221.31 L 244.45 223.86 L 245.51 229.76 L 248.19 227.30 L 249.72 225.45 L 250.44 224.06 L 251.07 221.55 L 251.63 217.54 Z" fill="#ffffff" fill-rule="evenodd" group-id="1,3,17" id="路径-9备份" node-id="24" stroke="none" target-height="12.218292" target-width="7.397232" target-x="244.23232" target-y="217.54208"></path></g><path d="M 187.78 195.55 L 187.55 195.81 L 187.67 196.63 L 188.55 198.84 L 189.43 201.05 L 189.56 201.88 L 189.34 202.13 L 179.95 203.29 L 169.67 204.07 L 158.43 204.45 L 146.17 204.38 L 132.82 203.82 L 121.77 193.77 L 121.22 185.82 L 116.49 178.43 L 112.67 171.45 L 109.68 164.85 L 107.45 158.58 L 105.91 152.61 L 105.01 146.91 L 104.71 141.43 L 104.98 136.14 L 106.14 127.46 L 107.88 118.05 L 110.24 107.86 L 113.28 96.81 L 117.06 84.86 L 119.52 111.07 L 121.42 126.36 L 122.85 134.28 L 123.88 137.70 L 124.57 138.76 L 125.08 138.81 L 125.85 137.88 L 127.20 134.56 L 129.47 126.51 L 133.05 110.60 L 138.43 82.91 L 142.59 92.72 L 145.87 101.67 L 148.35 109.82 L 150.12 117.26 L 151.24 124.04 L 151.78 130.22 L 151.80 135.86 L 151.34 141.02 L 150.44 145.74 L 149.12 150.07 L 147.40 154.06 L 142.99 163.37 L 140.38 169.82 L 139.08 174.10 L 138.67 176.79 L 138.81 178.39 L 139.28 179.29 L 140.02 179.73 L 143.12 185.57 L 143.45 186.78 L 144.30 187.81 L 145.83 188.71 L 148.34 189.41 L 152.20 189.82 L 162.85 189.91 L 184.47 189.32 L 194.19 191.76 L 199.53 193.47 L 202.04 194.64 L 202.94 195.41 L 203.06 195.95 L 202.63 196.46 L 201.12 197.05 L 199.61 197.14 L 197.91 196.77 L 193.78 195.64 L 191.22 195.35 L 187.78 195.55 Z" fill="#a7ddcb" fill-rule="evenodd" group-id="1,4" id="路径-13" node-id="25" stroke="none" target-height="121.53476" target-width="98.35597" target-x="104.70857" target-y="82.91475"></path></g></svg>