<?xml version="1.0" standalone="no"?><!DOCTYPE svg PUBLIC "-//W3C//DTD SVG 1.1//EN" "http://www.w3.org/Graphics/SVG/1.1/DTD/svg11.dtd"><svg height="400" node-id="1" sillyvg="true" template-height="400" template-width="400" version="1.1" viewBox="0 0 400 400" width="400" xmlns="http://www.w3.org/2000/svg" xmlns:xlink="http://www.w3.org/1999/xlink"><defs node-id="38"><clipPath id="mask-2_8" node-id="11"><path d="M 271.87 230.36 L 272.85 233.89 L 274.12 236.74 L 275.65 239.03 L 277.44 240.82 L 279.50 242.20 L 281.88 243.16 L 284.66 243.72 L 287.90 243.82 L 291.70 243.38 L 296.18 242.31 L 301.44 240.47 L 306.11 238.37 L 310.58 235.91 L 314.85 233.08 L 318.94 229.85 L 322.75 226.32 L 326.31 222.45 L 329.63 218.23 L 332.71 213.64 L 335.42 208.87 L 337.83 203.78 L 339.93 198.35 L 341.72 192.56 L 343.10 186.74 L 344.10 180.61 L 344.73 174.15 L 344.95 167.34 L 344.67 156.58 L 343.87 146.50 L 343.02 139.86 L 341.99 133.74 L 340.78 128.10 L 339.28 122.51 L 337.65 117.64 L 335.91 113.41 L 333.82 109.33 L 331.69 106.13 L 329.53 103.67 L 327.63 102.08 L 325.74 101.01 L 323.83 100.37 L 321.86 100.14 L 319.72 99.84 L 317.10 98.81 L 313.87 96.81 L 309.85 93.55 L 304.89 88.66 L 298.81 81.71 L 291.43 72.25 L 282.52 59.76 L 271.87 43.69 L 272.75 53.31 L 274.16 62.17 L 276.05 70.32 L 278.40 77.83 L 281.18 84.73 L 284.39 91.09 L 288.02 96.93 L 292.06 102.31 L 296.53 107.23 L 301.44 111.74 L 304.16 114.29 L 306.55 117.03 L 308.62 119.97 L 310.39 123.12 L 312.33 127.54 L 313.84 132.16 L 314.91 137.01 L 315.59 141.95 L 315.93 146.90 L 315.95 151.88 L 315.45 159.25 L 314.46 166.14 L 313.03 172.73 L 311.42 178.26 L 309.51 183.27 L 307.77 186.67 L 306.38 188.63 L 305.32 189.55 L 304.49 189.82 L 303.22 189.62 L 301.66 189.01 L 299.73 187.88 L 296.90 185.83 L 293.52 183.09 L 286.22 177.03 L 282.26 174.00 L 278.19 171.26 L 273.97 168.94 L 269.80 167.34 L 263.00 165.13 L 255.38 162.20 L 246.86 158.44 L 237.35 153.76 L 202.21 196.24 L 203.36 214.12 L 271.87 230.36 Z" fill="#000000" fill-rule="evenodd" node-id="43" stroke="none" target-height="200.1238" target-width="142.74132" target-x="202.21358" target-y="43.693695"></path></clipPath><clipPath id="mask-2_7" node-id="11"><path d="M 271.87 230.36 L 272.85 233.89 L 274.12 236.74 L 275.65 239.03 L 277.44 240.82 L 279.50 242.20 L 281.88 243.16 L 284.66 243.72 L 287.90 243.82 L 291.70 243.38 L 296.18 242.31 L 301.44 240.47 L 306.11 238.37 L 310.58 235.91 L 314.85 233.08 L 318.94 229.85 L 322.75 226.32 L 326.31 222.45 L 329.63 218.23 L 332.71 213.64 L 335.42 208.87 L 337.83 203.78 L 339.93 198.35 L 341.72 192.56 L 343.10 186.74 L 344.10 180.61 L 344.73 174.15 L 344.95 167.34 L 344.67 156.58 L 343.87 146.50 L 343.02 139.86 L 341.99 133.74 L 340.78 128.10 L 339.28 122.51 L 337.65 117.64 L 335.91 113.41 L 333.82 109.33 L 331.69 106.13 L 329.53 103.67 L 327.63 102.08 L 325.74 101.01 L 323.83 100.37 L 321.86 100.14 L 319.72 99.84 L 317.10 98.81 L 313.87 96.81 L 309.85 93.55 L 304.89 88.66 L 298.81 81.71 L 291.43 72.25 L 282.52 59.76 L 271.87 43.69 L 272.75 53.31 L 274.16 62.17 L 276.05 70.32 L 278.40 77.83 L 281.18 84.73 L 284.39 91.09 L 288.02 96.93 L 292.06 102.31 L 296.53 107.23 L 301.44 111.74 L 304.16 114.29 L 306.55 117.03 L 308.62 119.97 L 310.39 123.12 L 312.33 127.54 L 313.84 132.16 L 314.91 137.01 L 315.59 141.95 L 315.93 146.90 L 315.95 151.88 L 315.45 159.25 L 314.46 166.14 L 313.03 172.73 L 311.42 178.26 L 309.51 183.27 L 307.77 186.67 L 306.38 188.63 L 305.32 189.55 L 304.49 189.82 L 303.22 189.62 L 301.66 189.01 L 299.73 187.88 L 296.90 185.83 L 293.52 183.09 L 286.22 177.03 L 282.26 174.00 L 278.19 171.26 L 273.97 168.94 L 269.80 167.34 L 263.00 165.13 L 255.38 162.20 L 246.86 158.44 L 237.35 153.76 L 202.21 196.24 L 203.36 214.12 L 271.87 230.36 Z" fill="#000000" fill-rule="evenodd" node-id="43" stroke="none" target-height="200.1238" target-width="142.74132" target-x="202.21358" target-y="43.693695"></path></clipPath><clipPath id="mask-2_6" node-id="11"><path d="M 271.87 230.36 L 272.85 233.89 L 274.12 236.74 L 275.65 239.03 L 277.44 240.82 L 279.50 242.20 L 281.88 243.16 L 284.66 243.72 L 287.90 243.82 L 291.70 243.38 L 296.18 242.31 L 301.44 240.47 L 306.11 238.37 L 310.58 235.91 L 314.85 233.08 L 318.94 229.85 L 322.75 226.32 L 326.31 222.45 L 329.63 218.23 L 332.71 213.64 L 335.42 208.87 L 337.83 203.78 L 339.93 198.35 L 341.72 192.56 L 343.10 186.74 L 344.10 180.61 L 344.73 174.15 L 344.95 167.34 L 344.67 156.58 L 343.87 146.50 L 343.02 139.86 L 341.99 133.74 L 340.78 128.10 L 339.28 122.51 L 337.65 117.64 L 335.91 113.41 L 333.82 109.33 L 331.69 106.13 L 329.53 103.67 L 327.63 102.08 L 325.74 101.01 L 323.83 100.37 L 321.86 100.14 L 319.72 99.84 L 317.10 98.81 L 313.87 96.81 L 309.85 93.55 L 304.89 88.66 L 298.81 81.71 L 291.43 72.25 L 282.52 59.76 L 271.87 43.69 L 272.75 53.31 L 274.16 62.17 L 276.05 70.32 L 278.40 77.83 L 281.18 84.73 L 284.39 91.09 L 288.02 96.93 L 292.06 102.31 L 296.53 107.23 L 301.44 111.74 L 304.16 114.29 L 306.55 117.03 L 308.62 119.97 L 310.39 123.12 L 312.33 127.54 L 313.84 132.16 L 314.91 137.01 L 315.59 141.95 L 315.93 146.90 L 315.95 151.88 L 315.45 159.25 L 314.46 166.14 L 313.03 172.73 L 311.42 178.26 L 309.51 183.27 L 307.77 186.67 L 306.38 188.63 L 305.32 189.55 L 304.49 189.82 L 303.22 189.62 L 301.66 189.01 L 299.73 187.88 L 296.90 185.83 L 293.52 183.09 L 286.22 177.03 L 282.26 174.00 L 278.19 171.26 L 273.97 168.94 L 269.80 167.34 L 263.00 165.13 L 255.38 162.20 L 246.86 158.44 L 237.35 153.76 L 202.21 196.24 L 203.36 214.12 L 271.87 230.36 Z" fill="#000000" fill-rule="evenodd" node-id="43" stroke="none" target-height="200.1238" target-width="142.74132" target-x="202.21358" target-y="43.693695"></path></clipPath><clipPath id="mask-2_5" node-id="11"><path d="M 271.87 230.36 L 272.85 233.89 L 274.12 236.74 L 275.65 239.03 L 277.44 240.82 L 279.50 242.20 L 281.88 243.16 L 284.66 243.72 L 287.90 243.82 L 291.70 243.38 L 296.18 242.31 L 301.44 240.47 L 306.11 238.37 L 310.58 235.91 L 314.85 233.08 L 318.94 229.85 L 322.75 226.32 L 326.31 222.45 L 329.63 218.23 L 332.71 213.64 L 335.42 208.87 L 337.83 203.78 L 339.93 198.35 L 341.72 192.56 L 343.10 186.74 L 344.10 180.61 L 344.73 174.15 L 344.95 167.34 L 344.67 156.58 L 343.87 146.50 L 343.02 139.86 L 341.99 133.74 L 340.78 128.10 L 339.28 122.51 L 337.65 117.64 L 335.91 113.41 L 333.82 109.33 L 331.69 106.13 L 329.53 103.67 L 327.63 102.08 L 325.74 101.01 L 323.83 100.37 L 321.86 100.14 L 319.72 99.84 L 317.10 98.81 L 313.87 96.81 L 309.85 93.55 L 304.89 88.66 L 298.81 81.71 L 291.43 72.25 L 282.52 59.76 L 271.87 43.69 L 272.75 53.31 L 274.16 62.17 L 276.05 70.32 L 278.40 77.83 L 281.18 84.73 L 284.39 91.09 L 288.02 96.93 L 292.06 102.31 L 296.53 107.23 L 301.44 111.74 L 304.16 114.29 L 306.55 117.03 L 308.62 119.97 L 310.39 123.12 L 312.33 127.54 L 313.84 132.16 L 314.91 137.01 L 315.59 141.95 L 315.93 146.90 L 315.95 151.88 L 315.45 159.25 L 314.46 166.14 L 313.03 172.73 L 311.42 178.26 L 309.51 183.27 L 307.77 186.67 L 306.38 188.63 L 305.32 189.55 L 304.49 189.82 L 303.22 189.62 L 301.66 189.01 L 299.73 187.88 L 296.90 185.83 L 293.52 183.09 L 286.22 177.03 L 282.26 174.00 L 278.19 171.26 L 273.97 168.94 L 269.80 167.34 L 263.00 165.13 L 255.38 162.20 L 246.86 158.44 L 237.35 153.76 L 202.21 196.24 L 203.36 214.12 L 271.87 230.36 Z" fill="#000000" fill-rule="evenodd" node-id="43" stroke="none" target-height="200.1238" target-width="142.74132" target-x="202.21358" target-y="43.693695"></path></clipPath><clipPath id="mask-2" node-id="11"><path d="M 73.13 14.33 C 70.33 0.85 60.47 -2.52 43.56 4.22 C 18.19 14.33 0.05 41.27 0.05 77.35 C 0.05 113.42 9.42 144.55 23.14 144.55 C 32.29 144.55 48.95 163.36 73.13 200.99 C 71.29 170.57 61.43 147.89 43.56 132.95 C 16.75 110.55 34.00 54.87 40.51 54.87 C 47.03 54.87 61.12 73.24 75.20 77.35 C 84.58 80.08 95.40 84.61 107.65 90.92 L 142.79 48.45 L 141.64 30.56 L 73.13 14.33 Z" fill="#000000" fill-rule="evenodd" node-id="43" stroke="none" target-height="203.51743" target-width="142.74133" target-x="0.04509364" target-y="-2.5237088"></path></clipPath><clipPath id="mask-4_8" node-id="19"><path d="M 127.13 230.36 L 126.15 233.89 L 124.88 236.74 L 123.35 239.03 L 121.56 240.82 L 119.50 242.20 L 117.12 243.16 L 114.34 243.72 L 111.10 243.82 L 107.30 243.38 L 102.82 242.31 L 97.56 240.47 L 92.89 238.37 L 88.42 235.91 L 84.15 233.08 L 80.06 229.85 L 76.25 226.32 L 72.69 222.45 L 69.37 218.23 L 66.29 213.64 L 63.58 208.87 L 61.17 203.78 L 59.07 198.35 L 57.28 192.56 L 55.90 186.74 L 54.90 180.61 L 54.27 174.15 L 54.05 167.34 L 54.33 156.58 L 55.13 146.50 L 55.98 139.86 L 57.01 133.74 L 58.22 128.10 L 59.72 122.51 L 61.35 117.64 L 63.09 113.41 L 65.18 109.33 L 67.31 106.13 L 69.47 103.67 L 71.37 102.08 L 73.26 101.01 L 75.17 100.37 L 77.14 100.14 L 79.28 99.84 L 81.90 98.81 L 85.13 96.81 L 89.15 93.55 L 94.11 88.66 L 100.19 81.71 L 107.57 72.25 L 116.48 59.76 L 127.13 43.69 L 126.25 53.31 L 124.84 62.17 L 122.95 70.32 L 120.60 77.83 L 117.82 84.73 L 114.61 91.09 L 110.98 96.93 L 106.94 102.31 L 102.47 107.23 L 97.56 111.74 L 94.84 114.29 L 92.45 117.03 L 90.38 119.97 L 88.61 123.12 L 86.67 127.54 L 85.16 132.16 L 84.09 137.01 L 83.41 141.95 L 83.07 146.90 L 83.05 151.88 L 83.55 159.25 L 84.54 166.14 L 85.97 172.73 L 87.58 178.26 L 89.49 183.27 L 91.23 186.67 L 92.62 188.63 L 93.68 189.55 L 94.51 189.82 L 95.78 189.62 L 97.34 189.01 L 99.27 187.88 L 102.10 185.83 L 105.48 183.09 L 112.78 177.03 L 116.74 174.00 L 120.81 171.26 L 125.03 168.94 L 129.20 167.34 L 136.00 165.13 L 143.62 162.20 L 152.14 158.44 L 161.65 153.76 L 196.79 196.24 L 195.64 214.12 L 127.13 230.36 Z" fill="#000000" fill-rule="evenodd" node-id="50" stroke="none" target-height="200.1238" target-width="142.74133" target-x="54.045094" target-y="43.693695"></path></clipPath><clipPath id="mask-4_7" node-id="19"><path d="M 127.13 230.36 L 126.15 233.89 L 124.88 236.74 L 123.35 239.03 L 121.56 240.82 L 119.50 242.20 L 117.12 243.16 L 114.34 243.72 L 111.10 243.82 L 107.30 243.38 L 102.82 242.31 L 97.56 240.47 L 92.89 238.37 L 88.42 235.91 L 84.15 233.08 L 80.06 229.85 L 76.25 226.32 L 72.69 222.45 L 69.37 218.23 L 66.29 213.64 L 63.58 208.87 L 61.17 203.78 L 59.07 198.35 L 57.28 192.56 L 55.90 186.74 L 54.90 180.61 L 54.27 174.15 L 54.05 167.34 L 54.33 156.58 L 55.13 146.50 L 55.98 139.86 L 57.01 133.74 L 58.22 128.10 L 59.72 122.51 L 61.35 117.64 L 63.09 113.41 L 65.18 109.33 L 67.31 106.13 L 69.47 103.67 L 71.37 102.08 L 73.26 101.01 L 75.17 100.37 L 77.14 100.14 L 79.28 99.84 L 81.90 98.81 L 85.13 96.81 L 89.15 93.55 L 94.11 88.66 L 100.19 81.71 L 107.57 72.25 L 116.48 59.76 L 127.13 43.69 L 126.25 53.31 L 124.84 62.17 L 122.95 70.32 L 120.60 77.83 L 117.82 84.73 L 114.61 91.09 L 110.98 96.93 L 106.94 102.31 L 102.47 107.23 L 97.56 111.74 L 94.84 114.29 L 92.45 117.03 L 90.38 119.97 L 88.61 123.12 L 86.67 127.54 L 85.16 132.16 L 84.09 137.01 L 83.41 141.95 L 83.07 146.90 L 83.05 151.88 L 83.55 159.25 L 84.54 166.14 L 85.97 172.73 L 87.58 178.26 L 89.49 183.27 L 91.23 186.67 L 92.62 188.63 L 93.68 189.55 L 94.51 189.82 L 95.78 189.62 L 97.34 189.01 L 99.27 187.88 L 102.10 185.83 L 105.48 183.09 L 112.78 177.03 L 116.74 174.00 L 120.81 171.26 L 125.03 168.94 L 129.20 167.34 L 136.00 165.13 L 143.62 162.20 L 152.14 158.44 L 161.65 153.76 L 196.79 196.24 L 195.64 214.12 L 127.13 230.36 Z" fill="#000000" fill-rule="evenodd" node-id="50" stroke="none" target-height="200.1238" target-width="142.74133" target-x="54.045094" target-y="43.693695"></path></clipPath><clipPath id="mask-4_6" node-id="19"><path d="M 127.13 230.36 L 126.15 233.89 L 124.88 236.74 L 123.35 239.03 L 121.56 240.82 L 119.50 242.20 L 117.12 243.16 L 114.34 243.72 L 111.10 243.82 L 107.30 243.38 L 102.82 242.31 L 97.56 240.47 L 92.89 238.37 L 88.42 235.91 L 84.15 233.08 L 80.06 229.85 L 76.25 226.32 L 72.69 222.45 L 69.37 218.23 L 66.29 213.64 L 63.58 208.87 L 61.17 203.78 L 59.07 198.35 L 57.28 192.56 L 55.90 186.74 L 54.90 180.61 L 54.27 174.15 L 54.05 167.34 L 54.33 156.58 L 55.13 146.50 L 55.98 139.86 L 57.01 133.74 L 58.22 128.10 L 59.72 122.51 L 61.35 117.64 L 63.09 113.41 L 65.18 109.33 L 67.31 106.13 L 69.47 103.67 L 71.37 102.08 L 73.26 101.01 L 75.17 100.37 L 77.14 100.14 L 79.28 99.84 L 81.90 98.81 L 85.13 96.81 L 89.15 93.55 L 94.11 88.66 L 100.19 81.71 L 107.57 72.25 L 116.48 59.76 L 127.13 43.69 L 126.25 53.31 L 124.84 62.17 L 122.95 70.32 L 120.60 77.83 L 117.82 84.73 L 114.61 91.09 L 110.98 96.93 L 106.94 102.31 L 102.47 107.23 L 97.56 111.74 L 94.84 114.29 L 92.45 117.03 L 90.38 119.97 L 88.61 123.12 L 86.67 127.54 L 85.16 132.16 L 84.09 137.01 L 83.41 141.95 L 83.07 146.90 L 83.05 151.88 L 83.55 159.25 L 84.54 166.14 L 85.97 172.73 L 87.58 178.26 L 89.49 183.27 L 91.23 186.67 L 92.62 188.63 L 93.68 189.55 L 94.51 189.82 L 95.78 189.62 L 97.34 189.01 L 99.27 187.88 L 102.10 185.83 L 105.48 183.09 L 112.78 177.03 L 116.74 174.00 L 120.81 171.26 L 125.03 168.94 L 129.20 167.34 L 136.00 165.13 L 143.62 162.20 L 152.14 158.44 L 161.65 153.76 L 196.79 196.24 L 195.64 214.12 L 127.13 230.36 Z" fill="#000000" fill-rule="evenodd" node-id="50" stroke="none" target-height="200.1238" target-width="142.74133" target-x="54.045094" target-y="43.693695"></path></clipPath><clipPath id="mask-4_5" node-id="19"><path d="M 127.13 230.36 L 126.15 233.89 L 124.88 236.74 L 123.35 239.03 L 121.56 240.82 L 119.50 242.20 L 117.12 243.16 L 114.34 243.72 L 111.10 243.82 L 107.30 243.38 L 102.82 242.31 L 97.56 240.47 L 92.89 238.37 L 88.42 235.91 L 84.15 233.08 L 80.06 229.85 L 76.25 226.32 L 72.69 222.45 L 69.37 218.23 L 66.29 213.64 L 63.58 208.87 L 61.17 203.78 L 59.07 198.35 L 57.28 192.56 L 55.90 186.74 L 54.90 180.61 L 54.27 174.15 L 54.05 167.34 L 54.33 156.58 L 55.13 146.50 L 55.98 139.86 L 57.01 133.74 L 58.22 128.10 L 59.72 122.51 L 61.35 117.64 L 63.09 113.41 L 65.18 109.33 L 67.31 106.13 L 69.47 103.67 L 71.37 102.08 L 73.26 101.01 L 75.17 100.37 L 77.14 100.14 L 79.28 99.84 L 81.90 98.81 L 85.13 96.81 L 89.15 93.55 L 94.11 88.66 L 100.19 81.71 L 107.57 72.25 L 116.48 59.76 L 127.13 43.69 L 126.25 53.31 L 124.84 62.17 L 122.95 70.32 L 120.60 77.83 L 117.82 84.73 L 114.61 91.09 L 110.98 96.93 L 106.94 102.31 L 102.47 107.23 L 97.56 111.74 L 94.84 114.29 L 92.45 117.03 L 90.38 119.97 L 88.61 123.12 L 86.67 127.54 L 85.16 132.16 L 84.09 137.01 L 83.41 141.95 L 83.07 146.90 L 83.05 151.88 L 83.55 159.25 L 84.54 166.14 L 85.97 172.73 L 87.58 178.26 L 89.49 183.27 L 91.23 186.67 L 92.62 188.63 L 93.68 189.55 L 94.51 189.82 L 95.78 189.62 L 97.34 189.01 L 99.27 187.88 L 102.10 185.83 L 105.48 183.09 L 112.78 177.03 L 116.74 174.00 L 120.81 171.26 L 125.03 168.94 L 129.20 167.34 L 136.00 165.13 L 143.62 162.20 L 152.14 158.44 L 161.65 153.76 L 196.79 196.24 L 195.64 214.12 L 127.13 230.36 Z" fill="#000000" fill-rule="evenodd" node-id="50" stroke="none" target-height="200.1238" target-width="142.74133" target-x="54.045094" target-y="43.693695"></path></clipPath><clipPath id="mask-4" node-id="19"><path d="M 73.13 14.33 C 70.33 0.85 60.47 -2.52 43.56 4.22 C 18.19 14.33 0.05 41.27 0.05 77.35 C 0.05 113.42 9.42 144.55 23.14 144.55 C 32.29 144.55 48.95 163.36 73.13 200.99 C 71.29 170.57 61.43 147.89 43.56 132.95 C 16.75 110.55 34.00 54.87 40.51 54.87 C 47.03 54.87 61.12 73.24 75.20 77.35 C 84.58 80.08 95.40 84.61 107.65 90.92 L 142.79 48.45 L 141.64 30.56 L 73.13 14.33 Z" fill="#000000" fill-rule="evenodd" node-id="50" stroke="none" target-height="203.51743" target-width="142.74133" target-x="0.04509364" target-y="-2.5237088"></path></clipPath></defs><path d="M 0.00 0.00 L 400.00 0.00 L 400.00 400.00 L 0.00 400.00 Z" fill="#ffffff" fill-rule="evenodd" node-id="56" stroke="none" target-height="400" target-width="400" target-x="0" target-y="0"></path><g node-id="100"><g node-id="101"><g node-id="104"><path d="M 271.87 230.36 L 272.85 233.89 L 274.12 236.74 L 275.65 239.03 L 277.44 240.82 L 279.50 242.20 L 281.88 243.16 L 284.66 243.72 L 287.90 243.82 L 291.70 243.38 L 296.18 242.31 L 301.44 240.47 L 306.11 238.37 L 310.58 235.91 L 314.85 233.08 L 318.94 229.85 L 322.75 226.32 L 326.31 222.45 L 329.63 218.23 L 332.71 213.64 L 335.42 208.87 L 337.83 203.78 L 339.93 198.35 L 341.72 192.56 L 343.10 186.74 L 344.10 180.61 L 344.73 174.15 L 344.95 167.34 L 344.67 156.58 L 343.87 146.50 L 343.02 139.86 L 341.99 133.74 L 340.78 128.10 L 339.28 122.51 L 337.65 117.64 L 335.91 113.41 L 333.82 109.33 L 331.69 106.13 L 329.53 103.67 L 327.63 102.08 L 325.74 101.01 L 323.83 100.37 L 321.86 100.14 L 319.72 99.84 L 317.10 98.81 L 313.87 96.81 L 309.85 93.55 L 304.89 88.66 L 298.81 81.71 L 291.43 72.25 L 282.52 59.76 L 271.87 43.69 L 272.75 53.31 L 274.16 62.17 L 276.05 70.32 L 278.40 77.83 L 281.18 84.73 L 284.39 91.09 L 288.02 96.93 L 292.06 102.31 L 296.53 107.23 L 301.44 111.74 L 304.16 114.29 L 306.55 117.03 L 308.62 119.97 L 310.39 123.12 L 312.33 127.54 L 313.84 132.16 L 314.91 137.01 L 315.59 141.95 L 315.93 146.90 L 315.95 151.88 L 315.45 159.25 L 314.46 166.14 L 313.03 172.73 L 311.42 178.26 L 309.51 183.27 L 307.77 186.67 L 306.38 188.63 L 305.32 189.55 L 304.49 189.82 L 303.22 189.62 L 301.66 189.01 L 299.73 187.88 L 296.90 185.83 L 293.52 183.09 L 286.22 177.03 L 282.26 174.00 L 278.19 171.26 L 273.97 168.94 L 269.80 167.34 L 263.00 165.13 L 255.38 162.20 L 246.86 158.44 L 237.35 153.76 L 202.21 196.24 L 203.36 214.12 L 271.87 230.36 Z" fill="#baeddc" fill-rule="evenodd" group-id="1,2,5" node-id="61" stroke="none" target-height="200.1238" target-width="142.74132" target-x="202.21358" target-y="43.693695"></path></g><g node-id="105"><g clip-path="url(#mask-2_5)" group-id="1,2,6" node-id="64"><path d="M 314.32 212.54 L 305.78 202.05 L 297.77 192.50 L 289.94 183.16 L 282.70 174.22 L 275.84 165.17 L 269.59 155.97 L 265.77 149.65 L 262.23 143.00 L 258.96 136.02 L 256.11 128.85 L 253.55 121.07 L 251.30 112.62 L 250.93 109.49 L 251.18 106.21 L 252.08 102.71 L 253.48 99.33 L 255.38 95.86 L 257.84 92.27 L 260.58 88.87 L 263.68 85.52 L 267.17 82.21 L 272.72 77.61 L 278.66 73.44 L 284.84 69.80 L 290.90 66.89 L 295.05 65.30 L 298.90 64.16 L 302.49 63.44 L 306.12 63.14 L 309.26 63.35 L 312.01 64.03 L 318.21 66.63 L 323.99 69.71 L 329.36 73.25 L 334.44 77.23 L 339.34 81.63 L 344.06 86.45 L 347.62 90.68 L 350.84 95.25 L 353.72 100.21 L 356.27 105.56 L 358.42 111.05 L 360.27 116.76 L 361.81 122.70 L 363.04 128.88 L 364.19 137.18 L 364.84 145.56 L 364.99 154.02 L 364.67 162.49 L 363.93 170.67 L 362.76 178.59 L 361.15 186.44 L 359.21 193.63 L 356.97 200.21 L 354.83 204.96 L 352.04 209.62 L 349.87 212.56 L 347.51 215.27 L 344.93 217.74 L 342.15 219.96 L 339.24 221.76 L 336.21 223.19 L 333.04 224.18 L 329.79 224.64 L 326.43 224.57 L 323.14 223.94 L 319.73 222.62 L 316.14 220.52 L 314.32 212.54 Z" fill="#a7ddcb" fill-rule="evenodd" group-id="1,2,6" id="路径-10备份-2" node-id="14" stroke="none" target-height="161.50082" target-width="114.060165" target-x="250.93288" target-y="63.13759"></path></g></g><g node-id="106"><g clip-path="url(#mask-2_6)" group-id="1,2,7" node-id="68"><path d="M 305.32 249.54 L 296.78 239.05 L 288.77 229.50 L 280.94 220.16 L 273.70 211.22 L 266.84 202.17 L 260.59 192.97 L 256.77 186.65 L 253.23 180.00 L 249.96 173.02 L 247.11 165.85 L 244.55 158.07 L 242.30 149.62 L 241.93 146.49 L 242.18 143.21 L 243.08 139.71 L 244.48 136.33 L 246.38 132.86 L 248.84 129.27 L 251.58 125.87 L 254.68 122.52 L 258.17 119.21 L 263.72 114.61 L 269.66 110.44 L 275.84 106.80 L 281.90 103.89 L 286.05 102.30 L 289.90 101.16 L 293.49 100.44 L 297.12 100.14 L 300.26 100.35 L 303.01 101.03 L 309.21 103.63 L 314.99 106.71 L 320.36 110.25 L 325.44 114.23 L 330.34 118.63 L 335.06 123.45 L 338.62 127.68 L 341.84 132.25 L 344.72 137.21 L 347.27 142.56 L 349.42 148.05 L 351.27 153.76 L 352.81 159.70 L 354.04 165.88 L 355.19 174.18 L 355.84 182.56 L 355.99 191.02 L 355.67 199.49 L 354.93 207.67 L 353.76 215.59 L 352.15 223.44 L 350.21 230.63 L 347.97 237.21 L 345.83 241.96 L 343.04 246.62 L 340.87 249.56 L 338.51 252.27 L 335.93 254.74 L 333.15 256.96 L 330.24 258.76 L 327.21 260.19 L 324.04 261.18 L 320.79 261.64 L 317.43 261.57 L 314.14 260.94 L 310.73 259.62 L 307.14 257.52 L 305.32 249.54 Z" fill="#75c5aa" fill-rule="evenodd" group-id="1,2,7" id="路径-10备份" node-id="15" stroke="none" target-height="161.50084" target-width="114.06018" target-x="241.93286" target-y="100.13759"></path></g></g><g node-id="107"><g clip-path="url(#mask-2_7)" group-id="1,2,8" node-id="72"><path d="M 294.32 271.54 L 285.78 261.05 L 277.77 251.50 L 269.94 242.16 L 262.70 233.22 L 255.84 224.17 L 249.59 214.97 L 245.77 208.65 L 242.23 202.00 L 238.96 195.02 L 236.11 187.85 L 233.55 180.07 L 231.30 171.62 L 230.93 168.49 L 231.18 165.21 L 232.08 161.71 L 233.48 158.33 L 235.38 154.86 L 237.84 151.27 L 240.58 147.87 L 243.68 144.52 L 247.17 141.21 L 252.72 136.61 L 258.66 132.44 L 264.84 128.80 L 270.90 125.89 L 275.05 124.30 L 278.90 123.16 L 282.49 122.44 L 286.12 122.14 L 289.26 122.35 L 292.01 123.03 L 298.21 125.63 L 303.99 128.71 L 309.36 132.25 L 314.44 136.23 L 319.34 140.63 L 324.06 145.45 L 327.62 149.68 L 330.84 154.25 L 333.72 159.21 L 336.27 164.56 L 338.42 170.05 L 340.27 175.76 L 341.81 181.70 L 343.04 187.88 L 344.19 196.18 L 344.84 204.56 L 344.99 213.02 L 344.67 221.49 L 343.93 229.67 L 342.76 237.59 L 341.15 245.44 L 339.21 252.63 L 336.97 259.21 L 334.83 263.96 L 332.04 268.62 L 329.87 271.56 L 327.51 274.27 L 324.93 276.74 L 322.15 278.96 L 319.24 280.76 L 316.21 282.19 L 313.04 283.18 L 309.79 283.64 L 306.43 283.57 L 303.14 282.94 L 299.73 281.62 L 296.14 279.52 L 294.32 271.54 Z" fill="#599eab" fill-rule="evenodd" group-id="1,2,8" id="路径-10" node-id="16" stroke="none" target-height="161.50081" target-width="114.06018" target-x="230.93286" target-y="122.13759"></path></g></g><g clip-path="url(#mask-2_8)" group-id="1,2,9" node-id="76"><path d="M 261.32 283.54 L 252.78 273.05 L 244.77 263.50 L 236.94 254.16 L 229.70 245.22 L 222.84 236.17 L 216.59 226.97 L 212.77 220.65 L 209.23 214.00 L 205.96 207.02 L 203.11 199.85 L 200.55 192.07 L 198.30 183.62 L 197.93 180.49 L 198.18 177.21 L 199.08 173.71 L 200.48 170.33 L 202.38 166.86 L 204.84 163.27 L 207.58 159.87 L 210.68 156.52 L 214.17 153.21 L 219.72 148.61 L 225.66 144.44 L 231.84 140.80 L 237.90 137.89 L 242.05 136.30 L 245.90 135.16 L 249.49 134.44 L 253.12 134.14 L 256.26 134.35 L 259.01 135.03 L 265.21 137.63 L 270.99 140.71 L 276.36 144.25 L 281.44 148.23 L 286.34 152.63 L 291.06 157.45 L 294.62 161.68 L 297.84 166.25 L 300.72 171.21 L 303.27 176.56 L 305.42 182.05 L 307.27 187.76 L 308.81 193.70 L 310.04 199.88 L 311.19 208.18 L 311.84 216.56 L 311.99 225.02 L 311.67 233.49 L 310.93 241.67 L 309.76 249.59 L 308.15 257.44 L 306.21 264.63 L 303.97 271.21 L 301.83 275.96 L 299.04 280.62 L 296.87 283.56 L 294.51 286.27 L 291.93 288.74 L 289.15 290.96 L 286.24 292.76 L 283.21 294.19 L 280.04 295.18 L 276.79 295.64 L 273.43 295.57 L 270.14 294.94 L 266.73 293.62 L 263.14 291.52 L 261.32 283.54 Z" fill="#336d78" fill-rule="evenodd" group-id="1,2,9" id="路径-10" node-id="17" stroke="none" target-height="161.50082" target-width="114.06018" target-x="197.93286" target-y="134.1376"></path></g></g><g node-id="102"><g node-id="109"><path d="M 127.13 230.36 L 126.15 233.89 L 124.88 236.74 L 123.35 239.03 L 121.56 240.82 L 119.50 242.20 L 117.12 243.16 L 114.34 243.72 L 111.10 243.82 L 107.30 243.38 L 102.82 242.31 L 97.56 240.47 L 92.89 238.37 L 88.42 235.91 L 84.15 233.08 L 80.06 229.85 L 76.25 226.32 L 72.69 222.45 L 69.37 218.23 L 66.29 213.64 L 63.58 208.87 L 61.17 203.78 L 59.07 198.35 L 57.28 192.56 L 55.90 186.74 L 54.90 180.61 L 54.27 174.15 L 54.05 167.34 L 54.33 156.58 L 55.13 146.50 L 55.98 139.86 L 57.01 133.74 L 58.22 128.10 L 59.72 122.51 L 61.35 117.64 L 63.09 113.41 L 65.18 109.33 L 67.31 106.13 L 69.47 103.67 L 71.37 102.08 L 73.26 101.01 L 75.17 100.37 L 77.14 100.14 L 79.28 99.84 L 81.90 98.81 L 85.13 96.81 L 89.15 93.55 L 94.11 88.66 L 100.19 81.71 L 107.57 72.25 L 116.48 59.76 L 127.13 43.69 L 126.25 53.31 L 124.84 62.17 L 122.95 70.32 L 120.60 77.83 L 117.82 84.73 L 114.61 91.09 L 110.98 96.93 L 106.94 102.31 L 102.47 107.23 L 97.56 111.74 L 94.84 114.29 L 92.45 117.03 L 90.38 119.97 L 88.61 123.12 L 86.67 127.54 L 85.16 132.16 L 84.09 137.01 L 83.41 141.95 L 83.07 146.90 L 83.05 151.88 L 83.55 159.25 L 84.54 166.14 L 85.97 172.73 L 87.58 178.26 L 89.49 183.27 L 91.23 186.67 L 92.62 188.63 L 93.68 189.55 L 94.51 189.82 L 95.78 189.62 L 97.34 189.01 L 99.27 187.88 L 102.10 185.83 L 105.48 183.09 L 112.78 177.03 L 116.74 174.00 L 120.81 171.26 L 125.03 168.94 L 129.20 167.34 L 136.00 165.13 L 143.62 162.20 L 152.14 158.44 L 161.65 153.76 L 196.79 196.24 L 195.64 214.12 L 127.13 230.36 Z" fill="#baeddc" fill-rule="evenodd" group-id="1,3,10" node-id="83" stroke="none" target-height="200.1238" target-width="142.74133" target-x="54.045094" target-y="43.693695"></path></g><g node-id="110"><g clip-path="url(#mask-4_5)" group-id="1,3,11" node-id="86"><path d="M 84.68 212.54 L 93.22 202.05 L 101.23 192.50 L 109.06 183.16 L 116.30 174.22 L 123.16 165.17 L 129.41 155.97 L 133.23 149.65 L 136.77 143.00 L 140.04 136.02 L 142.89 128.85 L 145.45 121.07 L 147.70 112.62 L 148.07 109.49 L 147.82 106.21 L 146.92 102.71 L 145.52 99.33 L 143.62 95.86 L 141.16 92.27 L 138.42 88.87 L 135.32 85.52 L 131.83 82.21 L 126.28 77.61 L 120.34 73.44 L 114.16 69.80 L 108.10 66.89 L 103.95 65.30 L 100.10 64.16 L 96.51 63.44 L 92.88 63.14 L 89.74 63.35 L 86.99 64.03 L 80.79 66.63 L 75.01 69.71 L 69.64 73.25 L 64.56 77.23 L 59.66 81.63 L 54.94 86.45 L 51.38 90.68 L 48.16 95.25 L 45.28 100.21 L 42.73 105.56 L 40.58 111.05 L 38.73 116.76 L 37.19 122.70 L 35.96 128.88 L 34.81 137.18 L 34.16 145.56 L 34.01 154.02 L 34.33 162.49 L 35.07 170.67 L 36.24 178.59 L 37.85 186.44 L 39.79 193.63 L 42.03 200.21 L 44.17 204.96 L 46.96 209.62 L 49.13 212.56 L 51.49 215.27 L 54.07 217.74 L 56.85 219.96 L 59.76 221.76 L 62.79 223.19 L 65.96 224.18 L 69.21 224.64 L 72.57 224.57 L 75.86 223.94 L 79.27 222.62 L 82.86 220.52 L 84.68 212.54 Z" fill="#a7ddcb" fill-rule="evenodd" group-id="1,3,11" id="路径-10备份-2" node-id="22" stroke="none" target-height="161.50082" target-width="114.060165" target-x="34.006958" target-y="63.13759"></path></g></g><g node-id="111"><g clip-path="url(#mask-4_6)" group-id="1,3,12" node-id="90"><path d="M 93.68 249.54 L 102.22 239.05 L 110.23 229.50 L 118.06 220.16 L 125.30 211.22 L 132.16 202.17 L 138.41 192.97 L 142.23 186.65 L 145.77 180.00 L 149.04 173.02 L 151.89 165.85 L 154.45 158.07 L 156.70 149.62 L 157.07 146.49 L 156.82 143.21 L 155.92 139.71 L 154.52 136.33 L 152.62 132.86 L 150.16 129.27 L 147.42 125.87 L 144.32 122.52 L 140.83 119.21 L 135.28 114.61 L 129.34 110.44 L 123.16 106.80 L 117.10 103.89 L 112.95 102.30 L 109.10 101.16 L 105.51 100.44 L 101.88 100.14 L 98.74 100.35 L 95.99 101.03 L 89.79 103.63 L 84.01 106.71 L 78.64 110.25 L 73.56 114.23 L 68.66 118.63 L 63.94 123.45 L 60.38 127.68 L 57.16 132.25 L 54.28 137.21 L 51.73 142.56 L 49.58 148.05 L 47.73 153.76 L 46.19 159.70 L 44.96 165.88 L 43.81 174.18 L 43.16 182.56 L 43.01 191.02 L 43.33 199.49 L 44.07 207.67 L 45.24 215.59 L 46.85 223.44 L 48.79 230.63 L 51.03 237.21 L 53.17 241.96 L 55.96 246.62 L 58.13 249.56 L 60.49 252.27 L 63.07 254.74 L 65.85 256.96 L 68.76 258.76 L 71.79 260.19 L 74.96 261.18 L 78.21 261.64 L 81.57 261.57 L 84.86 260.94 L 88.27 259.62 L 91.86 257.52 L 93.68 249.54 Z" fill="#75c5aa" fill-rule="evenodd" group-id="1,3,12" id="路径-10备份" node-id="23" stroke="none" target-height="161.50084" target-width="114.06018" target-x="43.006958" target-y="100.13759"></path></g></g><g node-id="112"><g clip-path="url(#mask-4_7)" group-id="1,3,13" node-id="94"><path d="M 104.68 271.54 L 113.22 261.05 L 121.23 251.50 L 129.06 242.16 L 136.30 233.22 L 143.16 224.17 L 149.41 214.97 L 153.23 208.65 L 156.77 202.00 L 160.04 195.02 L 162.89 187.85 L 165.45 180.07 L 167.70 171.62 L 168.07 168.49 L 167.82 165.21 L 166.92 161.71 L 165.52 158.33 L 163.62 154.86 L 161.16 151.27 L 158.42 147.87 L 155.32 144.52 L 151.83 141.21 L 146.28 136.61 L 140.34 132.44 L 134.16 128.80 L 128.10 125.89 L 123.95 124.30 L 120.10 123.16 L 116.51 122.44 L 112.88 122.14 L 109.74 122.35 L 106.99 123.03 L 100.79 125.63 L 95.01 128.71 L 89.64 132.25 L 84.56 136.23 L 79.66 140.63 L 74.94 145.45 L 71.38 149.68 L 68.16 154.25 L 65.28 159.21 L 62.73 164.56 L 60.58 170.05 L 58.73 175.76 L 57.19 181.70 L 55.96 187.88 L 54.81 196.18 L 54.16 204.56 L 54.01 213.02 L 54.33 221.49 L 55.07 229.67 L 56.24 237.59 L 57.85 245.44 L 59.79 252.63 L 62.03 259.21 L 64.17 263.96 L 66.96 268.62 L 69.13 271.56 L 71.49 274.27 L 74.07 276.74 L 76.85 278.96 L 79.76 280.76 L 82.79 282.19 L 85.96 283.18 L 89.21 283.64 L 92.57 283.57 L 95.86 282.94 L 99.27 281.62 L 102.86 279.52 L 104.68 271.54 Z" fill="#599eab" fill-rule="evenodd" group-id="1,3,13" id="路径-10" node-id="24" stroke="none" target-height="161.50081" target-width="114.06018" target-x="54.006958" target-y="122.13759"></path></g></g><g clip-path="url(#mask-4_8)" group-id="1,3,14" node-id="98"><path d="M 137.68 283.54 L 146.22 273.05 L 154.23 263.50 L 162.06 254.16 L 169.30 245.22 L 176.16 236.17 L 182.41 226.97 L 186.23 220.65 L 189.77 214.00 L 193.04 207.02 L 195.89 199.85 L 198.45 192.07 L 200.70 183.62 L 201.07 180.49 L 200.82 177.21 L 199.92 173.71 L 198.52 170.33 L 196.62 166.86 L 194.16 163.27 L 191.42 159.87 L 188.32 156.52 L 184.83 153.21 L 179.28 148.61 L 173.34 144.44 L 167.16 140.80 L 161.10 137.89 L 156.95 136.30 L 153.10 135.16 L 149.51 134.44 L 145.88 134.14 L 142.74 134.35 L 139.99 135.03 L 133.79 137.63 L 128.01 140.71 L 122.64 144.25 L 117.56 148.23 L 112.66 152.63 L 107.94 157.45 L 104.38 161.68 L 101.16 166.25 L 98.28 171.21 L 95.73 176.56 L 93.58 182.05 L 91.73 187.76 L 90.19 193.70 L 88.96 199.88 L 87.81 208.18 L 87.16 216.56 L 87.01 225.02 L 87.33 233.49 L 88.07 241.67 L 89.24 249.59 L 90.85 257.44 L 92.79 264.63 L 95.03 271.21 L 97.17 275.96 L 99.96 280.62 L 102.13 283.56 L 104.49 286.27 L 107.07 288.74 L 109.85 290.96 L 112.76 292.76 L 115.79 294.19 L 118.96 295.18 L 122.21 295.64 L 125.57 295.57 L 128.86 294.94 L 132.27 293.62 L 135.86 291.52 L 137.68 283.54 Z" fill="#336d78" fill-rule="evenodd" group-id="1,3,14" id="路径-10" node-id="25" stroke="none" target-height="161.50082" target-width="114.06018" target-x="87.00696" target-y="134.1376"></path></g></g><g node-id="103"><g node-id="114"><path d="M 200.79 276.11 L 207.50 261.12 L 206.96 225.48 L 207.02 210.12 L 207.28 205.34 L 207.50 204.60 L 210.51 203.29 L 214.37 201.99 L 219.22 200.71 L 231.31 197.99 L 236.58 197.10 L 241.00 196.71 L 243.84 196.76 L 246.41 197.12 L 248.73 197.77 L 251.18 198.96 L 252.33 199.83 L 253.28 200.89 L 253.90 202.14 L 254.12 203.65 L 253.81 204.00 L 252.48 204.67 L 248.89 206.01 L 245.29 207.35 L 243.94 208.02 L 243.61 208.37 L 243.75 210.28 L 244.45 211.95 L 245.60 213.36 L 247.09 214.41 L 248.80 215.03 L 250.62 215.13 L 251.81 214.89 L 252.97 214.35 L 254.12 213.48 L 255.74 211.56 L 257.26 208.90 L 258.65 205.31 L 259.86 200.58 L 260.82 194.47 L 261.45 186.71 L 261.65 177.02 L 248.99 170.40 L 238.76 165.63 L 230.60 162.38 L 224.17 160.36 L 219.19 159.31 L 215.38 159.00 L 209.98 159.19 L 206.41 159.67 L 204.18 160.31 L 202.90 161.04 L 202.25 161.81 L 202.05 162.65 L 201.84 161.82 L 201.17 161.06 L 199.83 160.33 L 197.49 159.68 L 193.69 159.19 L 187.94 159.00 L 183.85 159.27 L 178.47 160.18 L 171.52 161.92 L 162.67 164.71 L 151.58 168.78 L 137.88 174.40 L 138.09 187.20 L 138.72 196.49 L 139.62 202.98 L 140.69 207.32 L 141.82 210.05 L 142.96 211.65 L 143.95 212.26 L 145.73 212.70 L 147.76 212.87 L 150.17 212.84 L 152.63 212.63 L 155.01 212.26 L 157.26 211.71 L 158.97 211.10 L 160.31 210.28 L 160.79 209.53 L 160.61 209.25 L 159.73 208.86 L 157.16 208.23 L 154.37 207.64 L 152.67 207.14 L 151.16 205.87 L 150.52 204.72 L 150.49 203.59 L 151.02 202.55 L 152.21 201.59 L 154.39 200.71 L 158.71 199.73 L 162.56 199.14 L 165.97 198.87 L 171.03 198.91 L 175.51 199.34 L 183.97 200.71 L 187.74 201.43 L 191.31 202.56 L 193.19 203.39 L 195.49 204.60 L 195.63 205.28 L 195.63 209.94 L 194.96 225.22 L 192.82 261.12 L 200.79 276.11 Z" fill="#599eab" fill-rule="evenodd" group-id="1,4,15" id="三角形" node-id="27" stroke="none" target-height="117.10716" target-width="123.767105" target-x="137.88356" target-y="159.00002"></path></g><g node-id="115"><path d="M 199.79 258.11 L 206.50 243.12 L 205.96 214.05 L 206.01 201.34 L 206.28 197.27 L 206.50 196.60 L 207.55 195.74 L 208.89 193.97 L 211.64 189.53 L 213.18 187.19 L 214.75 185.16 L 215.93 183.97 L 217.08 183.18 L 218.22 182.71 L 224.91 181.38 L 232.03 180.44 L 239.63 179.89 L 247.73 179.77 L 267.39 174.60 L 255.05 164.46 L 244.87 156.67 L 236.55 150.86 L 229.84 146.71 L 224.48 143.90 L 220.25 142.16 L 216.94 141.26 L 214.38 141.00 L 208.98 141.19 L 205.41 141.67 L 203.18 142.31 L 201.90 143.04 L 201.25 143.81 L 201.05 144.65 L 200.84 143.82 L 200.17 143.06 L 198.83 142.33 L 196.49 141.68 L 192.69 141.19 L 186.94 141.00 L 184.19 141.27 L 180.72 142.20 L 176.35 143.97 L 170.89 146.81 L 164.14 150.98 L 155.87 156.79 L 145.84 164.55 L 133.77 174.60 L 153.39 182.71 L 164.78 182.14 L 173.12 182.04 L 179.00 182.26 L 182.97 182.71 L 183.92 183.06 L 184.87 183.73 L 185.85 184.80 L 187.15 186.65 L 188.50 188.91 L 191.26 193.40 L 192.84 195.31 L 194.49 196.60 L 194.63 197.21 L 194.63 201.16 L 193.95 213.80 L 191.82 243.12 L 199.79 258.11 Z" fill="#336d78" fill-rule="evenodd" group-id="1,4,16" id="三角形" node-id="28" stroke="none" target-height="117.10716" target-width="133.61195" target-x="133.7733" target-y="140.99998"></path></g><g node-id="116"><path d="M 199.79 258.57 L 201.48 254.40 L 203.48 250.86 L 205.78 247.89 L 208.37 245.43 L 211.28 243.42 L 214.55 241.85 L 218.22 240.71 L 224.91 239.38 L 232.03 238.44 L 239.63 237.89 L 247.73 237.77 L 255.69 219.65 L 256.32 214.64 L 256.39 211.59 L 256.12 209.89 L 255.69 209.03 L 255.09 208.79 L 254.08 209.03 L 251.80 210.08 L 250.62 210.45 L 249.72 210.41 L 235.18 204.98 L 228.74 202.74 L 223.52 201.14 L 218.68 200.02 L 215.28 199.68 L 211.10 199.91 L 207.90 200.53 L 205.48 201.45 L 203.68 202.62 L 202.38 204.02 L 201.51 205.67 L 201.05 207.65 L 200.38 205.70 L 199.30 204.05 L 197.78 202.64 L 195.75 201.46 L 193.07 200.53 L 189.60 199.91 L 185.17 199.68 L 183.04 199.91 L 180.47 200.55 L 177.39 201.71 L 166.89 206.53 L 160.71 209.32 L 153.39 212.26 L 151.41 212.72 L 149.73 212.72 L 148.14 212.43 L 146.83 212.06 L 145.60 211.73 L 144.70 211.65 L 143.98 211.93 L 143.40 212.85 L 143.09 214.26 L 142.96 217.03 L 143.19 220.16 L 143.92 223.55 L 145.22 227.25 L 147.16 231.31 L 149.84 235.78 L 153.39 240.71 L 164.78 240.14 L 173.12 240.04 L 179.00 240.26 L 182.97 240.71 L 185.28 241.39 L 187.72 242.74 L 190.36 244.92 L 193.23 248.11 L 196.36 252.57 L 199.79 258.57 Z" fill="#75c5aa" fill-rule="evenodd" group-id="1,4,17" id="三角形备份" node-id="29" stroke="none" target-height="58.892014" target-width="113.43216" target-x="142.95715" target-y="199.68141"></path></g><g node-id="117"><path d="M 203.05 292.64 L 206.15 292.47 L 208.62 291.90 L 210.90 290.80 L 213.37 288.87 L 215.82 286.32 L 219.13 282.34 L 227.72 271.12 L 234.54 262.02 L 239.72 254.70 L 242.82 249.84 L 244.82 246.09 L 245.97 243.25 L 246.42 241.05 L 246.24 239.53 L 245.57 238.44 L 244.37 237.68 L 240.38 236.36 L 237.08 235.56 L 234.36 235.17 L 230.38 235.07 L 227.28 235.45 L 221.98 236.84 L 219.61 237.44 L 217.28 237.68 L 213.10 237.91 L 209.90 238.53 L 207.48 239.45 L 205.68 240.62 L 204.38 242.02 L 203.51 243.67 L 203.05 245.65 L 202.38 243.70 L 201.30 242.05 L 199.78 240.64 L 197.75 239.46 L 195.07 238.53 L 191.60 237.91 L 187.17 237.68 L 182.03 237.34 L 179.22 237.12 L 175.94 237.01 L 172.47 237.16 L 168.24 237.72 L 163.79 238.73 L 158.27 240.51 L 157.27 241.19 L 156.82 242.19 L 156.92 243.68 L 157.84 246.17 L 159.85 249.69 L 162.34 253.37 L 165.48 257.67 L 172.25 266.76 L 175.60 271.50 L 178.57 276.11 L 182.10 281.44 L 185.09 285.15 L 187.21 287.29 L 189.18 288.92 L 191.01 290.11 L 193.93 291.46 L 196.83 292.21 L 199.82 292.55 L 203.05 292.64 Z" fill="#a7ddcb" fill-rule="evenodd" group-id="1,4,18" id="三角形备份-2" node-id="30" stroke="none" target-height="57.569565" target-width="89.604065" target-x="156.8169" target-y="235.07005"></path></g><path d="M 157.05 205.24 L 165.31 203.99 L 170.66 203.65 L 173.92 203.90 L 175.75 204.47 L 176.67 205.24 L 178.04 207.56 L 180.09 212.04 L 183.05 219.65 L 176.42 218.33 L 171.74 217.03 L 168.57 215.77 L 166.56 214.60 L 163.97 212.49 L 160.84 209.44 L 157.05 205.24 Z" fill="#336d78" fill-rule="evenodd" group-id="1,4" id="路径-9" node-id="31" stroke="none" target-height="16" target-width="26" target-x="157.05054" target-y="203.65005"></path><path d="M 246.05 205.24 L 237.80 203.99 L 232.44 203.65 L 229.18 203.90 L 227.35 204.47 L 226.43 205.24 L 225.06 207.56 L 223.01 212.04 L 220.05 219.65 L 226.68 218.33 L 231.36 217.03 L 234.53 215.77 L 236.55 214.60 L 239.13 212.49 L 242.26 209.44 L 246.05 205.24 Z" fill="#336d78" fill-rule="evenodd" group-id="1,4,19" id="路径-9备份" node-id="32" stroke="none" target-height="16" target-width="26" target-x="220.05054" target-y="203.65005"></path><path d="M 170.05 232.97 L 177.01 231.93 L 181.53 231.65 L 184.27 231.86 L 185.82 232.34 L 186.59 232.97 L 187.75 234.92 L 189.47 238.66 L 191.97 245.01 L 186.38 243.91 L 182.43 242.82 L 179.76 241.77 L 178.06 240.79 L 175.89 239.03 L 173.24 236.49 L 170.05 232.97 Z" fill="#336d78" fill-rule="evenodd" group-id="1,4" id="路径-9" node-id="33" stroke="none" target-height="13.362488" target-width="21.918396" target-x="170.05054" target-y="231.65005"></path><path d="M 232.97 232.97 L 226.01 231.93 L 221.49 231.65 L 218.75 231.86 L 217.20 232.34 L 216.43 232.97 L 215.27 234.92 L 213.55 238.66 L 211.05 245.01 L 216.64 243.91 L 220.59 242.82 L 223.26 241.77 L 224.96 240.79 L 227.13 239.03 L 229.78 236.49 L 232.97 232.97 Z" fill="#336d78" fill-rule="evenodd" group-id="1,4,20" id="路径-9备份" node-id="34" stroke="none" target-height="13.362488" target-width="21.918365" target-x="211.05054" target-y="231.65005"></path><path d="M 184.05 259.54 L 189.73 258.75 L 192.97 258.69 L 194.64 259.02 L 195.37 259.54 L 196.69 261.93 L 199.05 267.65 L 194.21 266.66 L 191.22 265.70 L 189.53 264.81 L 187.18 262.84 L 184.05 259.54 Z" fill="#336d78" fill-rule="evenodd" group-id="1,4" id="路径-9" node-id="35" stroke="none" target-height="8.961517" target-width="15" target-x="184.05054" target-y="258.68854"></path><path d="M 218.05 259.54 L 212.37 258.75 L 209.13 258.69 L 207.46 259.02 L 206.73 259.54 L 205.41 261.93 L 203.05 267.65 L 207.89 266.66 L 210.88 265.70 L 212.57 264.81 L 214.92 262.84 L 218.05 259.54 Z" fill="#336d78" fill-rule="evenodd" group-id="1,4,21" id="路径-9备份" node-id="36" stroke="none" target-height="8.961517" target-width="15" target-x="203.05054" target-y="258.68854"></path></g></g></svg>