<?xml version="1.0" standalone="no"?><!DOCTYPE svg PUBLIC "-//W3C//DTD SVG 1.1//EN" "http://www.w3.org/Graphics/SVG/1.1/DTD/svg11.dtd"><svg height="400" node-id="1" sillyvg="true" template-height="400" template-width="400" version="1.1" viewBox="0 0 400 400" width="400" xmlns="http://www.w3.org/2000/svg" xmlns:xlink="http://www.w3.org/1999/xlink"><defs node-id="21"></defs><path d="M 0.00 0.00 L 400.00 0.00 L 400.00 400.00 L 0.00 400.00 Z" fill="#ffffff" fill-rule="evenodd" node-id="24" stroke="none" target-height="400" target-width="400" target-x="0" target-y="0"></path><g node-id="26"><path d="M 124.47 231.40 L 126.42 241.57 L 127.80 250.95 L 128.64 259.59 L 129.00 267.55 L 128.91 274.87 L 128.42 281.60 L 127.49 288.07 L 126.22 293.62 L 124.66 298.37 L 122.84 302.40 L 120.78 305.81 L 118.50 308.66 L 116.00 311.02 L 135.73 303.89 L 140.29 306.42 L 149.36 311.02 L 151.39 311.72 L 153.44 311.99 L 155.54 311.82 L 158.66 311.00 L 161.65 309.69 L 164.45 308.11 L 166.73 306.64 L 169.82 304.63 L 170.25 304.52 L 170.34 304.74 L 170.00 305.66 L 169.79 306.03 L 170.50 303.54 L 171.61 299.41 L 173.30 291.64 L 174.80 282.61 L 176.20 269.94 L 176.31 266.12 L 176.05 260.52 L 175.24 252.66 L 173.73 241.98 L 146.49 231.40 L 131.77 216.70 L 124.47 231.40 Z" fill="#a7ddcb" fill-rule="evenodd" group-id="1" id="路径-17备份-2" node-id="7" stroke="none" target-height="95.28441" target-width="60.314636" target-x="116" target-y="216.70226"></path><path d="M 124.47 202.60 L 122.96 233.66 L 122.42 254.70 L 122.53 268.15 L 123.05 276.11 L 123.75 280.33 L 124.47 282.22 L 125.54 284.39 L 126.24 286.85 L 126.54 289.66 L 126.39 292.89 L 125.74 296.62 L 124.47 300.94 L 135.73 275.09 L 137.16 270.65 L 138.70 267.46 L 140.29 265.26 L 141.93 263.82 L 143.64 262.99 L 145.48 262.70 L 147.52 262.95 L 149.86 263.83 L 157.54 267.16 L 164.63 270.16 L 167.54 271.76 L 169.37 273.25 L 170.14 274.39 L 170.34 275.56 L 170.00 276.86 L 169.79 277.23 L 170.50 274.74 L 171.61 270.61 L 173.30 262.84 L 174.80 253.81 L 176.20 241.14 L 176.31 237.32 L 176.05 231.72 L 175.24 223.86 L 173.73 213.18 L 146.49 202.60 L 131.77 187.90 L 124.47 202.60 Z" fill="#75c5aa" fill-rule="evenodd" group-id="1" id="路径-17备份" node-id="8" stroke="none" target-height="113.03421" target-width="53.89949" target-x="122.415146" target-y="187.90225"></path><g node-id="27"><path d="M 275.05 231.40 L 273.10 241.57 L 271.72 250.95 L 270.88 259.59 L 270.52 267.55 L 270.60 274.87 L 271.10 281.60 L 272.03 288.07 L 273.30 293.62 L 274.86 298.37 L 276.68 302.40 L 278.74 305.81 L 281.02 308.66 L 283.52 311.02 L 263.79 303.89 L 259.23 306.42 L 250.16 311.02 L 248.13 311.72 L 246.08 311.99 L 243.97 311.82 L 240.86 311.00 L 237.87 309.69 L 235.07 308.11 L 232.79 306.64 L 229.70 304.63 L 229.27 304.52 L 229.18 304.74 L 229.52 305.66 L 229.73 306.03 L 229.02 303.54 L 227.91 299.41 L 226.21 291.64 L 224.72 282.61 L 223.32 269.94 L 223.20 266.12 L 223.47 260.52 L 224.27 252.66 L 225.78 241.98 L 253.02 231.40 L 267.75 216.70 L 275.05 231.40 Z" fill="#a7ddcb" fill-rule="evenodd" group-id="1,2" id="路径-17备份-2" node-id="9" stroke="none" target-height="95.28438" target-width="60.314606" target-x="223.20401" target-y="216.70226"></path></g><g node-id="28"><path d="M 275.04 202.60 L 276.55 233.66 L 277.10 254.70 L 276.98 268.15 L 276.46 276.11 L 275.76 280.33 L 275.04 282.22 L 273.97 284.39 L 273.27 286.85 L 272.97 289.66 L 273.12 292.89 L 273.78 296.62 L 275.04 300.94 L 263.78 275.09 L 262.35 270.65 L 260.81 267.46 L 259.22 265.26 L 257.58 263.82 L 255.87 262.99 L 254.04 262.70 L 251.99 262.95 L 249.65 263.83 L 241.97 267.16 L 234.88 270.16 L 231.97 271.76 L 230.15 273.25 L 229.37 274.39 L 229.17 275.56 L 229.52 276.86 L 229.72 277.23 L 229.01 274.74 L 227.90 270.61 L 226.21 262.84 L 224.71 253.81 L 223.31 241.14 L 223.20 237.32 L 223.47 231.72 L 224.27 223.86 L 225.78 213.18 L 253.02 202.60 L 267.74 187.90 L 275.04 202.60 Z" fill="#75c5aa" fill-rule="evenodd" group-id="1,3" id="路径-17备份" node-id="10" stroke="none" target-height="113.03421" target-width="53.899475" target-x="223.19739" target-y="187.90225"></path></g><g node-id="29"><path d="M 274.93 157.80 L 276.44 188.86 L 276.98 209.90 L 276.86 223.35 L 276.35 231.31 L 275.65 235.53 L 274.93 237.42 L 273.85 239.59 L 273.16 242.05 L 272.86 244.86 L 273.00 248.09 L 273.66 251.82 L 274.93 256.14 L 263.67 230.29 L 262.23 225.85 L 260.70 222.66 L 259.10 220.46 L 257.46 219.02 L 255.76 218.19 L 253.92 217.90 L 251.88 218.15 L 249.53 219.03 L 241.85 222.36 L 234.77 225.36 L 231.86 226.96 L 230.03 228.45 L 229.26 229.59 L 229.06 230.76 L 229.40 232.06 L 229.86 232.74 L 229.98 232.50 L 229.69 230.27 L 227.81 221.91 L 222.39 200.75 L 252.90 157.80 L 267.63 143.10 L 274.93 157.80 Z" fill="#599eab" fill-rule="evenodd" group-id="1,4" id="路径-17" node-id="11" stroke="none" target-height="113.03421" target-width="54.58745" target-x="222.39339" target-y="143.10226"></path></g><path d="M 123.67 157.80 L 122.16 188.86 L 121.62 209.90 L 121.73 223.35 L 122.25 231.31 L 122.95 235.53 L 123.67 237.42 L 124.74 239.59 L 125.44 242.05 L 125.74 244.86 L 125.59 248.09 L 124.94 251.82 L 123.67 256.14 L 134.93 230.29 L 136.36 225.85 L 137.90 222.66 L 139.49 220.46 L 141.13 219.02 L 142.84 218.19 L 144.68 217.90 L 146.72 218.15 L 149.06 219.03 L 156.74 222.36 L 163.83 225.36 L 166.74 226.96 L 168.57 228.45 L 169.34 229.59 L 169.54 230.76 L 169.20 232.06 L 168.73 232.74 L 168.62 232.50 L 168.91 230.27 L 170.78 221.91 L 176.20 200.75 L 145.69 157.80 L 130.97 143.10 L 123.67 157.80 Z" fill="#599eab" fill-rule="evenodd" group-id="1" id="路径-17" node-id="12" stroke="none" target-height="113.03421" target-width="54.587433" target-x="121.61514" target-y="143.10226"></path><path d="M 200.00 231.91 L 203.08 231.78 L 206.47 231.32 L 210.20 230.50 L 213.84 229.36 L 217.70 227.78 L 221.80 225.71 L 225.70 223.32 L 229.74 220.35 L 233.93 216.76 L 237.81 212.85 L 241.75 208.24 L 245.74 202.82 L 249.51 197.36 L 251.17 194.78 L 252.81 191.86 L 254.35 188.65 L 256.06 184.39 L 257.58 181.27 L 260.01 176.85 L 262.42 172.42 L 263.91 169.24 L 265.13 164.95 L 265.84 161.05 L 266.21 157.21 L 266.32 153.54 L 266.28 146.25 L 266.07 139.22 L 265.49 132.38 L 264.55 125.73 L 263.24 119.25 L 261.56 112.80 L 259.56 106.68 L 257.27 100.85 L 254.68 95.30 L 251.70 89.88 L 248.49 84.89 L 245.04 80.30 L 241.36 76.10 L 237.32 72.17 L 233.10 68.75 L 228.70 65.81 L 224.10 63.33 L 219.26 61.34 L 214.27 59.90 L 209.09 59.02 L 203.67 58.70 L 198.26 59.02 L 193.03 59.90 L 187.96 61.33 L 183.00 63.33 L 178.27 65.81 L 173.73 68.75 L 169.35 72.17 L 165.13 76.10 L 161.27 80.31 L 157.65 84.90 L 154.26 89.89 L 151.10 95.30 L 148.34 100.86 L 145.89 106.69 L 143.75 112.81 L 141.94 119.25 L 140.52 125.74 L 139.50 132.39 L 138.88 139.23 L 138.65 146.25 L 138.44 150.70 L 138.00 154.56 L 137.55 158.30 L 137.35 161.85 L 137.46 164.19 L 137.88 166.64 L 138.65 169.24 L 139.39 170.53 L 140.81 172.30 L 144.07 175.85 L 145.56 177.59 L 146.38 178.83 L 147.15 179.90 L 148.23 180.83 L 150.69 182.48 L 151.82 183.37 L 152.67 184.39 L 154.24 187.59 L 155.39 191.05 L 157.39 198.14 L 158.70 201.54 L 160.53 204.65 L 164.72 209.75 L 169.62 214.76 L 174.92 219.40 L 180.36 223.48 L 185.95 227.02 L 191.05 229.60 L 194.53 230.93 L 197.49 231.67 L 200.00 231.91 Z" fill="#baeddc" fill-rule="evenodd" group-id="1" id="椭圆形" node-id="13" stroke="none" target-height="173.21048" target-width="128.96877" target-x="137.35326" target-y="58.70226"></path><path d="M 203.44 98.15 L 198.20 101.92 L 194.60 105.06 L 192.27 107.68 L 190.91 109.87 L 190.29 111.72 L 190.24 113.34 L 190.69 114.81 L 191.67 116.22 L 195.07 119.55 L 197.37 121.25 L 198.89 121.90 L 199.91 121.90 L 199.31 125.06 L 198.34 127.76 L 197.03 130.09 L 195.37 132.08 L 193.33 133.78 L 190.87 135.19 L 187.93 136.30 L 184.81 136.95 L 180.57 137.23 L 174.92 137.03 L 167.54 136.17 L 158.08 134.50 L 146.16 131.80 L 143.65 137.48 L 142.17 141.69 L 141.47 144.72 L 141.32 146.86 L 141.56 148.33 L 143.48 154.43 L 145.62 161.33 L 147.35 167.08 L 148.02 169.72 L 147.74 169.87 L 146.74 169.03 L 144.02 165.53 L 140.81 160.73 L 138.07 156.15 L 136.97 154.79 L 135.60 153.90 L 134.09 153.36 L 132.82 153.15 L 131.73 153.21 L 131.44 153.40 L 128.79 168.26 L 127.01 179.60 L 125.67 189.89 L 124.90 197.39 L 124.43 204.09 L 124.26 208.73 L 124.24 215.57 L 124.19 216.59 L 124.07 215.55 L 123.66 208.16 L 123.16 195.18 L 122.71 178.41 L 122.45 159.62 L 122.52 140.60 L 123.07 123.14 L 123.59 115.30 L 124.24 109.03 L 125.58 101.17 L 127.41 93.85 L 129.70 87.02 L 132.49 80.38 L 135.51 74.41 L 138.74 69.07 L 142.39 63.97 L 145.98 59.70 L 149.53 56.16 L 153.42 52.99 L 156.96 50.76 L 160.20 49.32 L 164.32 48.17 L 169.25 47.38 L 175.13 47.02 L 182.09 47.15 L 190.30 47.88 L 199.91 49.32 L 203.44 98.15 Z" fill="#336d78" fill-rule="evenodd" group-id="1" id="路径-16" node-id="14" stroke="none" target-height="169.5771" target-width="80.99506" target-x="122.446526" target-y="47.016895"></path><path d="M 196.83 98.15 L 202.06 101.92 L 205.67 105.06 L 208.00 107.68 L 209.36 109.87 L 209.98 111.72 L 210.03 113.34 L 209.58 114.81 L 208.60 116.22 L 205.20 119.55 L 202.90 121.25 L 201.38 121.90 L 200.36 121.90 L 200.96 125.06 L 201.93 127.76 L 203.24 130.09 L 204.90 132.08 L 206.94 133.78 L 209.40 135.19 L 212.34 136.30 L 215.49 136.96 L 219.60 137.23 L 224.87 137.00 L 231.54 136.13 L 239.87 134.46 L 250.16 131.80 L 254.51 137.65 L 257.10 141.88 L 258.42 144.86 L 258.86 146.92 L 258.71 148.33 L 256.79 154.43 L 254.64 161.33 L 252.92 167.08 L 252.25 169.72 L 252.53 169.87 L 253.53 169.03 L 256.25 165.53 L 259.46 160.73 L 262.19 156.15 L 263.30 154.79 L 264.66 153.90 L 266.17 153.36 L 267.44 153.15 L 268.54 153.21 L 268.82 153.40 L 271.48 168.26 L 273.26 179.60 L 274.60 189.89 L 275.37 197.39 L 275.84 204.09 L 276.01 208.73 L 276.03 215.57 L 276.08 216.59 L 276.20 215.55 L 276.60 208.16 L 277.11 195.18 L 277.56 178.41 L 277.82 159.62 L 277.75 140.60 L 277.20 123.14 L 276.68 115.30 L 276.03 109.03 L 274.69 101.17 L 272.86 93.85 L 270.57 87.02 L 267.78 80.38 L 264.76 74.41 L 261.52 69.07 L 257.88 63.97 L 254.29 59.70 L 250.74 56.16 L 246.85 52.99 L 243.31 50.76 L 240.06 49.32 L 235.95 48.17 L 231.01 47.38 L 225.14 47.02 L 218.17 47.15 L 209.97 47.88 L 200.36 49.32 L 196.83 98.15 Z" fill="#336d78" fill-rule="evenodd" group-id="1,5" id="路径-16" node-id="15" stroke="none" target-height="169.57709" target-width="80.995056" target-x="196.8262" target-y="47.016895"></path><path d="M 152.81 147.75 L 160.14 148.02 L 165.68 148.61 L 169.76 149.43 L 172.68 150.39 L 174.70 151.44 L 176.03 152.56 L 177.96 154.97 L 179.57 157.60 L 180.85 160.48 L 181.81 163.63 L 176.01 164.52 L 171.08 164.75 L 166.89 164.43 L 163.34 163.63 L 161.29 162.73 L 159.37 161.28 L 157.55 159.21 L 155.84 156.39 L 154.24 152.63 L 152.81 147.75 Z" fill="#ffffff" fill-rule="evenodd" group-id="1" id="路径-18" node-id="16" stroke="none" target-height="16.996658" target-width="29.000015" target-x="152.8105" target-y="147.75479"></path><path d="M 244.81 147.75 L 237.48 148.02 L 231.94 148.61 L 227.86 149.43 L 224.94 150.39 L 222.92 151.44 L 221.59 152.56 L 219.66 154.97 L 218.05 157.60 L 216.77 160.48 L 215.81 163.63 L 221.61 164.52 L 226.54 164.75 L 230.73 164.43 L 234.28 163.63 L 236.33 162.73 L 238.25 161.28 L 240.07 159.21 L 241.78 156.39 L 243.38 152.63 L 244.81 147.75 Z" fill="#ffffff" fill-rule="evenodd" group-id="1,6" id="路径-18" node-id="17" stroke="none" target-height="16.996658" target-width="28.999985" target-x="215.81053" target-y="147.75479"></path><path d="M 152.81 148.75 L 160.48 148.98 L 166.29 149.64 L 170.61 150.62 L 173.73 151.82 L 175.91 153.17 L 177.37 154.65 L 183.69 163.34 L 182.35 157.17 L 181.01 153.15 L 179.73 150.71 L 178.52 149.36 L 177.37 148.75 L 173.37 147.74 L 168.00 146.61 L 165.11 146.19 L 162.30 145.95 L 159.58 145.97 L 157.32 146.31 L 154.51 146.73 L 151.70 146.61 L 148.84 145.94 L 145.89 144.67 L 146.49 146.03 L 147.26 147.04 L 148.18 147.77 L 149.97 148.45 L 152.81 148.75 Z" fill="#336d78" fill-rule="evenodd" group-id="1" id="路径-19" node-id="18" stroke="none" target-height="18.67044" target-width="37.79564" target-x="145.8928" target-y="144.66982"></path><path d="M 244.89 148.75 L 237.22 148.79 L 231.40 149.32 L 227.09 150.20 L 223.98 151.34 L 221.80 152.67 L 220.34 154.14 L 217.49 158.29 L 215.79 161.37 L 214.93 163.61 L 215.86 157.29 L 216.94 153.20 L 218.08 150.72 L 219.20 149.36 L 220.34 148.75 L 224.33 147.74 L 229.70 146.61 L 232.60 146.19 L 235.40 145.95 L 238.12 145.97 L 240.38 146.31 L 243.20 146.73 L 246.01 146.61 L 248.86 145.94 L 251.81 144.67 L 251.21 146.03 L 250.45 147.04 L 249.52 147.77 L 247.73 148.45 L 244.89 148.75 Z" fill="#336d78" fill-rule="evenodd" group-id="1,7" id="路径-19备份" node-id="19" stroke="none" target-height="18.945145" target-width="36.875717" target-x="214.9348" target-y="144.66982"></path></g></svg>